CSLSans[wght].glyphspackage
{
glyphname = exclam;
layers = (
{
layerId = "9A8FE613-2BB2-428D-A7DB-46DFB705B86D";
shapes = (
{
closed = 1;
nodes = (
(178,220,l),
(115,220,l),
(68,504,l),
(68,698,l),
(224,698,l),
(224,504,l)
);
},
{
closed = 1;
nodes = (
(82,-12,o),
(56,21,o),
(56,64,cs),
(56,88,ls),
(56,131,o),
(82,164,o),
(145,164,cs),
(208,164,o),
(234,131,o),
(234,88,cs),
(234,64,ls),
(234,21,o),
(208,-12,o),
(145,-12,cs)
);
}
);
width = 291;
},
{
layerId = "1513CFE8-5A13-42D2-8271-7D7365DF70DB";
shapes = (
{
closed = 1;
nodes = (
(168,192,l),
(124,192,l),
(95,497,l),
(95,698,l),
(196,698,l),
(196,497,l)
);
},
{
closed = 1;
nodes = (
(100,-12,o),
(79,13,o),
(79,49,cs),
(79,65,ls),
(79,101,o),
(100,126,o),
(145,126,cs),
(192,126,o),
(212,101,o),
(212,65,cs),
(212,49,ls),
(212,13,o),
(192,-12,o),
(145,-12,cs)
);
}
);
width = 291;
},
{
layerId = "1F8C5CD1-3431-41E3-A60F-01FCBC1C5BC1";
shapes = (
{
closed = 1;
nodes = (
(151,176,l),
(139,176,l),
(134,415,l),
(134,698,l),
(156,698,l),
(156,415,l)
);
},
{
closed = 1;
nodes = (
(128,-5,o),
(118,4,o),
(118,20,cs),
(118,28,ls),
(118,44,o),
(128,53,o),
(145,53,cs),
(164,53,o),
(172,44,o),
(172,28,cs),
(172,20,ls),
(172,4,o),
(162,-5,o),
(145,-5,cs)
);
}
);
width = 291;
}
);
unicode = 33;
}
{
glyphname = quotedbl;
layers = (
{
layerId = "9A8FE613-2BB2-428D-A7DB-46DFB705B86D";
shapes = (
{
alignment = -1;
pos = (-19,0);
ref = quotesingle;
},
{
alignment = -1;
pos = (206,0);
ref = quotesingle;
}
);
width = 433;
},
{
layerId = "1513CFE8-5A13-42D2-8271-7D7365DF70DB";
shapes = (
{
closed = 1;
nodes = (
(165,451,l),
(82,451,l),
(82,740,l),
(165,740,l)
);
},
{
closed = 1;
nodes = (
(351,451,l),
(268,451,l),
(268,740,l),
(351,740,l)
);
}
);
width = 433;
},
{
layerId = "1F8C5CD1-3431-41E3-A60F-01FCBC1C5BC1";
shapes = (
{
alignment = -1;
pos = (16,0);
ref = quotesingle;
},
{
alignment = -1;
pos = (169,0);
ref = quotesingle;
}
);
width = 433;
}
);
leftKerningGroup = uni2032_2;
rightKerningGroup = uni2032;
unicode = 34;
}
{
glyphname = numbersign;
layers = (
{
layerId = "9A8FE613-2BB2-428D-A7DB-46DFB705B86D";
shapes = (
{
closed = 1;
nodes = (
(369,0,l),
(399,173,l),
(239,173,l),
(209,0,l),
(115,0,l),
(145,173,l),
(44,173,l),
(44,263,l),
(161,263,l),
(190,435,l),
(89,435,l),
(89,525,l),
(206,525,l),
(236,698,l),
(329,698,l),
(299,525,l),
(459,525,l),
(489,698,l),
(583,698,l),
(553,525,l),
(654,525,l),
(654,435,l),
(537,435,l),
(508,263,l),
(609,263,l),
(609,173,l),
(492,173,l),
(462,0,l)
);
},
{
closed = 1;
nodes = (
(254,263,l),
(414,263,l),
(444,435,l),
(284,435,l)
);
}
);
width = 698;
},
{
layerId = "1513CFE8-5A13-42D2-8271-7D7365DF70DB";
shapes = (
{
closed = 1;
nodes = (
(364,0,l),
(398,199,l),
(243,199,l),
(208,0,l),
(139,0,l),
(174,199,l),
(51,199,l),
(51,265,l),
(185,265,l),
(213,433,l),
(91,433,l),
(91,499,l),
(225,499,l),
(259,698,l),
(328,698,l),
(294,499,l),
(449,499,l),
(484,698,l),
(553,698,l),
(519,499,l),
(642,499,l),
(642,433,l),
(507,433,l),
(479,265,l),
(602,265,l),
(602,199,l),
(468,199,l),
(433,0,l)
);
},
{
closed = 1;
nodes = (
(254,265,l),
(409,265,l),
(438,433,l),
(283,433,l)
);
}
);
width = 698;
},
{
layerId = "1F8C5CD1-3431-41E3-A60F-01FCBC1C5BC1";
shapes = (
{
closed = 1;
nodes = (
(382,0,l),
(420,220,l),
(234,220,l),
(196,0,l),
(175,0,l),
(213,220,l),
(63,220,l),
(63,239,l),
(217,239,l),
(254,459,l),
(102,459,l),
(102,478,l),
(257,478,l),
(295,698,l),
(316,698,l),
(278,478,l),
(464,478,l),
(502,698,l),
(523,698,l),
(485,478,l),
(635,478,l),
(635,459,l),
(481,459,l),
(444,239,l),
(596,239,l),
(596,220,l),
(441,220,l),
(403,0,l)
);
},
{
closed = 1;
nodes = (
(237,239,l),
(423,239,l),
(461,459,l),
(275,459,l)
);
}
);
width = 698;
}
);
unicode = 35;
}
{
glyphname = dollar;
layers = (
{
layerId = "9A8FE613-2BB2-428D-A7DB-46DFB705B86D";
shapes = (
{
closed = 1;
nodes = (
(363,-82,l),
(249,-82,l),
(249,53,l),
(262,73,l),
(262,625,l),
(249,645,l),
(249,780,l),
(363,780,l),
(363,645,l),
(351,625,l),
(351,73,l),
(363,53,l)
);
},
{
closed = 1;
nodes = (
(248,8,o),
(211,13,o),
(178,23,cs),
(112,43,o),
(64,78,o),
(31,115,c),
(121,197,l),
(134,184,o),
(150,171,o),
(167,159,cs),
(202,135,o),
(247,119,o),
(303,119,cs),
(333,119,o),
(357,124,o),
(374,133,cs),
(408,151,o),
(420,179,o),
(420,206,cs),
(420,216,o),
(418,226,o),
(414,237,cs),
(406,257,o),
(385,275,o),
(341,284,cs),
(275,298,ls),
(220,310,o),
(176,325,o),
(143,344,cs),
(78,380,o),
(51,431,o),
(51,496,cs),
(51,531,o),
(60,564,o),
(77,593,cs),
(111,652,o),
(185,690,o),
(310,690,cs),
(425,690,o),
(501,649,o),
(546,596,c),
(455,514,l),
(442,528,o),
(423,543,o),
(398,558,cs),
(372,573,o),
(339,580,o),
(300,580,cs),
(257,580,o),
(228,572,o),
(213,556,cs),
(197,539,o),
(189,521,o),
(189,500,cs),
(189,487,o),
(192,476,o),
(197,467,cs),
(208,448,o),
(231,436,o),
(268,427,cs),
(347,409,ls),
(394,398,o),
(434,385,o),
(465,368,cs),
(528,335,o),
(558,286,o),
(558,217,cs),
(558,182,o),
(549,149,o),
(531,117,cs),
(494,53,o),
(417,8,o),
(289,8,cs)
);
}
);
width = 599;
},
{
layerId = "1513CFE8-5A13-42D2-8271-7D7365DF70DB";
shapes = (
{
closed = 1;
nodes = (
(338,-82,l),
(266,-82,l),
(266,38,l),
(269,50,l),
(269,648,l),
(266,660,l),
(266,780,l),
(338,780,l),
(338,660,l),
(335,648,l),
(335,50,l),
(338,38,l)
);
},
{
closed = 1;
nodes = (
(260,0,o),
(225,5,o),
(193,16,cs),
(129,37,o),
(81,74,o),
(48,118,c),
(113,177,l),
(128,158,o),
(144,142,o),
(163,127,cs),
(200,97,o),
(247,79,o),
(302,79,cs),
(332,79,o),
(358,84,o),
(381,94,cs),
(426,114,o),
(453,150,o),
(453,197,cs),
(453,217,o),
(449,234,o),
(441,249,cs),
(424,278,o),
(390,299,o),
(331,311,cs),
(274,322,ls),
(227,332,o),
(189,346,o),
(158,363,cs),
(97,397,o),
(69,446,o),
(69,514,cs),
(69,550,o),
(78,582,o),
(97,610,cs),
(133,665,o),
(205,698,o),
(308,698,cs),
(415,698,o),
(490,652,o),
(537,588,c),
(471,535,l),
(455,556,o),
(433,576,o),
(405,594,cs),
(377,611,o),
(343,620,o),
(303,620,cs),
(255,620,o),
(219,610,o),
(195,591,cs),
(171,572,o),
(159,548,o),
(159,519,cs),
(159,498,o),
(164,480,o),
(173,465,cs),
(192,436,o),
(228,420,o),
(280,408,cs),
(338,395,ls),
(386,384,o),
(425,371,o),
(456,354,cs),
(516,321,o),
(543,274,o),
(543,203,cs),
(543,163,o),
(533,128,o),
(513,97,cs),
(473,36,o),
(399,0,o),
(299,0,cs)
);
}
);
width = 599;
},
{
layerId = "1F8C5CD1-3431-41E3-A60F-01FCBC1C5BC1";
shapes = (
{
closed = 1;
nodes = (
(314,-82,l),
(294,-82,l),
(294,6,l),
(294,14,l),
(294,684,l),
(294,692,l),
(294,780,l),
(314,780,l),
(314,692,l),
(314,684,l),
(314,14,l),
(314,6,l)
);
},
{
closed = 1;
nodes = (
(263,0,o),
(229,5,o),
(200,15,cs),
(142,35,o),
(101,71,o),
(68,114,c),
(86,127,l),
(102,106,o),
(120,88,o),
(139,72,cs),
(178,40,o),
(229,20,o),
(302,20,cs),
(344,20,o),
(379,27,o),
(408,40,cs),
(464,66,o),
(493,115,o),
(493,184,cs),
(493,223,o),
(486,253,o),
(471,274,cs),
(441,317,o),
(389,336,o),
(333,345,cs),
(265,357,ls),
(218,366,o),
(182,379,o),
(156,396,cs),
(103,430,o),
(84,478,o),
(84,530,cs),
(84,568,o),
(93,599,o),
(110,624,cs),
(144,673,o),
(209,698,o),
(301,698,cs),
(402,698,o),
(467,656,o),
(503,603,c),
(485,590,l),
(466,617,o),
(442,639,o),
(412,655,cs),
(382,670,o),
(345,678,o),
(301,678,cs),
(236,678,o),
(188,666,o),
(155,641,cs),
(122,616,o),
(106,579,o),
(106,530,cs),
(106,495,o),
(114,468,o),
(129,447,cs),
(160,406,o),
(213,387,o),
(272,376,cs),
(339,364,ls),
(387,355,o),
(424,342,o),
(449,324,cs),
(500,288,o),
(515,238,o),
(515,185,cs),
(515,146,o),
(507,112,o),
(490,85,c),
(457,29,o),
(393,0,o),
(302,0,cs)
);
}
);
width = 599;
}
);
unicode = 36;
}
{
glyphname = percent;
layers = (
{
layerId = "9A8FE613-2BB2-428D-A7DB-46DFB705B86D";
shapes = (
{
closed = 1;
nodes = (
(292,0,l),
(160,0,l),
(644,698,l),
(776,698,l)
);
},
{
closed = 1;
nodes = (
(172,314,o),
(140,322,o),
(113,337,cs),
(60,367,o),
(31,425,o),
(31,512,cs),
(31,555,o),
(38,592,o),
(52,621,cs),
(80,680,o),
(134,710,o),
(211,710,cs),
(250,710,o),
(282,703,o),
(309,688,cs),
(362,658,o),
(391,599,o),
(391,512,cs),
(391,469,o),
(384,432,o),
(370,403,cs),
(342,344,o),
(288,314,o),
(211,314,cs)
);
},
{
closed = 1;
nodes = (
(222,400,o),
(232,403,o),
(240,409,cs),
(255,421,o),
(263,446,o),
(263,486,cs),
(263,538,ls),
(263,558,o),
(261,574,o),
(257,587,cs),
(249,612,o),
(234,624,o),
(211,624,cs),
(200,624,o),
(190,621,o),
(183,615,cs),
(167,603,o),
(159,578,o),
(159,538,cs),
(159,486,ls),
(159,466,o),
(161,450,o),
(165,437,cs),
(173,412,o),
(188,400,o),
(211,400,cs)
);
},
{
closed = 1;
nodes = (
(686,-12,o),
(654,-5,o),
(627,11,cs),
(574,41,o),
(545,99,o),
(545,186,cs),
(545,229,o),
(552,266,o),
(566,295,cs),
(594,354,o),
(648,384,o),
(725,384,cs),
(764,384,o),
(796,377,o),
(823,362,cs),
(876,332,o),
(905,273,o),
(905,186,cs),
(905,143,o),
(898,106,o),
(884,77,cs),
(856,18,o),
(802,-12,o),
(725,-12,cs)
);
},
{
closed = 1;
nodes = (
(736,74,o),
(746,77,o),
(754,83,cs),
(769,95,o),
(777,120,o),
(777,160,cs),
(777,212,ls),
(777,232,o),
(775,248,o),
(771,261,cs),
(763,286,o),
(748,298,o),
(725,298,cs),
(714,298,o),
(704,295,o),
(697,289,cs),
(681,277,o),
(673,252,o),
(673,212,cs),
(673,160,ls),
(673,140,o),
(675,124,o),
(679,111,cs),
(687,86,o),
(702,74,o),
(725,74,cs)
);
}
);
width = 936;
},
{
layerId = "1513CFE8-5A13-42D2-8271-7D7365DF70DB";
shapes = (
{
closed = 1;
nodes = (
(270,0,l),
(182,0,l),
(666,698,l),
(754,698,l)
);
},
{
closed = 1;
nodes = (
(190,314,o),
(161,322,o),
(137,337,cs),
(88,368,o),
(62,427,o),
(62,512,cs),
(62,555,o),
(68,591,o),
(81,620,cs),
(106,679,o),
(156,710,o),
(224,710,cs),
(259,710,o),
(289,702,o),
(313,687,cs),
(361,656,o),
(387,597,o),
(387,512,cs),
(387,469,o),
(381,433,o),
(368,404,cs),
(343,345,o),
(295,314,o),
(224,314,cs)
);
},
{
closed = 1;
nodes = (
(242,372,o),
(257,376,o),
(269,385,cs),
(292,401,o),
(304,434,o),
(304,483,cs),
(304,541,ls),
(304,566,o),
(301,586,o),
(295,603,cs),
(283,635,o),
(260,652,o),
(224,652,cs),
(207,652,o),
(192,648,o),
(180,640,cs),
(156,623,o),
(145,590,o),
(145,541,cs),
(145,483,ls),
(145,458,o),
(148,438,o),
(154,422,cs),
(165,389,o),
(189,372,o),
(224,372,cs)
);
},
{
closed = 1;
nodes = (
(677,-12,o),
(648,-4,o),
(624,11,cs),
(575,42,o),
(549,101,o),
(549,186,cs),
(549,229,o),
(555,265,o),
(568,294,cs),
(593,353,o),
(643,384,o),
(712,384,cs),
(747,384,o),
(776,376,o),
(800,361,cs),
(848,330,o),
(874,271,o),
(874,186,cs),
(874,143,o),
(868,107,o),
(855,78,cs),
(830,19,o),
(781,-12,o),
(712,-12,cs)
);
},
{
closed = 1;
nodes = (
(729,46,o),
(744,50,o),
(756,59,cs),
(779,75,o),
(791,108,o),
(791,157,cs),
(791,215,ls),
(791,240,o),
(788,260,o),
(782,277,cs),
(770,309,o),
(747,326,o),
(712,326,cs),
(694,326,o),
(679,322,o),
(668,314,cs),
(644,297,o),
(632,264,o),
(632,215,cs),
(632,157,ls),
(632,132,o),
(635,112,o),
(641,96,cs),
(653,63,o),
(676,46,o),
(712,46,cs)
);
}
);
width = 936;
},
{
layerId = "1F8C5CD1-3431-41E3-A60F-01FCBC1C5BC1";
shapes = (
{
closed = 1;
nodes = (
(237,0,l),
(214,0,l),
(698,698,l),
(721,698,l)
);
},
{
closed = 1;
nodes = (
(219,326,o),
(195,333,o),
(174,346,cs),
(130,372,o),
(102,427,o),
(102,518,cs),
(102,564,o),
(109,601,o),
(122,629,cs),
(148,685,o),
(193,710,o),
(244,710,cs),
(270,710,o),
(294,704,o),
(315,691,cs),
(358,665,o),
(386,610,o),
(386,518,cs),
(386,473,o),
(380,436,o),
(367,408,cs),
(341,351,o),
(296,326,o),
(244,326,cs)
);
},
{
closed = 1;
nodes = (
(265,343,o),
(284,348,o),
(303,359,cs),
(339,380,o),
(364,426,o),
(364,502,cs),
(364,534,ls),
(364,572,o),
(358,603,o),
(347,626,cs),
(324,673,o),
(285,693,o),
(244,693,cs),
(223,693,o),
(204,688,o),
(186,677,cs),
(149,656,o),
(124,610,o),
(124,534,cs),
(124,502,ls),
(124,464,o),
(130,433,o),
(141,410,cs),
(164,363,o),
(203,343,o),
(244,343,cs)
);
},
{
closed = 1;
nodes = (
(667,-12,o),
(643,-6,o),
(622,8,c),
(578,34,o),
(550,89,o),
(550,180,cs),
(550,226,o),
(557,263,o),
(570,291,cs),
(596,347,o),
(641,372,o),
(692,372,cs),
(718,372,o),
(742,366,o),
(763,353,cs),
(806,327,o),
(834,272,o),
(834,180,cs),
(834,135,o),
(828,98,o),
(815,70,cs),
(789,13,o),
(744,-12,o),
(692,-12,cs)
);
},
{
closed = 1;
nodes = (
(713,5,o),
(732,10,o),
(751,21,cs),
(787,42,o),
(812,88,o),
(812,164,cs),
(812,196,ls),
(812,234,o),
(806,265,o),
(795,288,cs),
(772,335,o),
(733,355,o),
(692,355,cs),
(671,355,o),
(652,350,o),
(634,339,cs),
(597,318,o),
(572,272,o),
(572,196,cs),
(572,164,ls),
(572,126,o),
(578,95,o),
(589,72,cs),
(612,25,o),
(651,5,o),
(692,5,cs)
);
}
);
width = 936;
}
);
unicode = 37;
}
{
glyphname = ampersand;
layers = (
{
layerId = "7AA3F0E6-41A7-43FF-9A92-631D90721C2F";
shapes = (
{
closed = 1;
nodes = (
(528,0,l),
(477,56,l),
(475,56,l),
(461,45,o),
(445,34,o),
(426,23,cs),
(389,2,o),
(341,-12,o),
(276,-12,cs),
(225,-12,o),
(181,-4,o),
(146,14,c),
(75,48,o),
(39,108,o),
(39,183,cs),
(39,215,o),
(45,243,o),
(57,266,cs),
(81,312,o),
(126,346,o),
(179,377,c),
(140,421,o),
(101,479,o),
(101,543,cs),
(101,574,o),
(110,602,o),
(127,627,cs),
(161,678,o),
(225,710,o),
(310,710,cs),
(348,710,o),
(382,704,o),
(413,692,cs),
(473,667,o),
(511,618,o),
(511,550,cs),
(511,521,o),
(505,495,o),
(492,473,cs),
(467,428,o),
(423,394,o),
(372,363,c),
(480,246,l),
(497,289,o),
(506,338,o),
(509,385,c),
(676,385,l),
(676,262,l),
(613,262,l),
(602,221,o),
(587,183,o),
(568,151,c),
(707,0,l)
);
},
{
closed = 1;
nodes = (
(270,597,o),
(242,576,o),
(242,540,cs),
(242,536,ls),
(242,527,o),
(244,519,o),
(248,510,cs),
(255,493,o),
(272,473,o),
(299,442,c),
(315,451,o),
(328,461,o),
(339,470,c),
(359,489,o),
(370,509,o),
(370,536,cs),
(370,540,ls),
(370,552,o),
(367,562,o),
(362,571,c),
(350,587,o),
(330,597,o),
(306,597,cs)
);
},
{
closed = 1;
nodes = (
(311,111,o),
(324,112,o),
(336,115,c),
(360,119,o),
(382,127,o),
(399,139,c),
(252,298,l),
(237,289,o),
(225,280,o),
(216,271,cs),
(197,252,o),
(190,233,o),
(190,209,cs),
(190,199,ls),
(190,174,o),
(199,153,o),
(217,136,cs),
(235,119,o),
(262,111,o),
(298,111,cs)
);
}
);
width = 699;
},
{
layerId = "8E9CA4E0-9900-4C00-AB62-7898C7C10EDA";
shapes = (
{
closed = 1;
nodes = (
(559,0,l),
(490,76,l),
(488,76,l),
(477,64,o),
(463,51,o),
(446,38,cs),
(411,11,o),
(359,-12,o),
(286,-12,cs),
(239,-12,o),
(200,-3,o),
(167,14,cs),
(102,49,o),
(68,110,o),
(68,181,cs),
(68,216,o),
(75,245,o),
(89,270,cs),
(116,318,o),
(161,351,o),
(210,378,c),
(165,427,o),
(131,481,o),
(131,542,cs),
(131,573,o),
(139,602,o),
(155,627,cs),
(186,678,o),
(243,710,o),
(318,710,cs),
(352,710,o),
(382,704,o),
(408,691,cs),
(460,666,o),
(492,619,o),
(492,558,cs),
(492,527,o),
(485,501,o),
(471,479,cs),
(443,434,o),
(393,399,o),
(336,366,c),
(484,207,l),
(503,256,o),
(513,314,o),
(516,370,c),
(658,370,l),
(658,292,l),
(588,292,l),
(579,237,o),
(562,187,o),
(541,146,c),
(678,0,l)
);
},
{
closed = 1;
nodes = (
(261,634,o),
(222,598,o),
(222,547,cs),
(222,537,ls),
(222,524,o),
(225,512,o),
(230,500,cs),
(241,475,o),
(260,449,o),
(287,418,c),
(308,429,o),
(327,441,o),
(344,454,cs),
(379,480,o),
(403,509,o),
(403,544,cs),
(403,555,ls),
(403,572,o),
(399,586,o),
(391,598,cs),
(375,621,o),
(346,634,o),
(314,634,cs)
);
},
{
closed = 1;
nodes = (
(317,68,o),
(336,71,o),
(353,76,cs),
(388,87,o),
(415,105,o),
(438,132,c),
(258,326,l),
(241,317,o),
(225,306,o),
(211,295,cs),
(182,271,o),
(164,242,o),
(164,195,cs),
(164,181,ls),
(164,146,o),
(176,119,o),
(200,99,c),
(223,78,o),
(255,68,o),
(296,68,cs)
);
}
);
width = 699;
},
{
layerId = "43C84C2D-48F1-4CCB-8D92-E3AB8A629B7A";
shapes = (
{
closed = 1;
nodes = (
(623,0,l),
(509,115,l),
(507,115,l),
(493,90,o),
(475,68,o),
(454,49,cs),
(410,11,o),
(353,-12,o),
(282,-12,cs),
(241,-12,o),
(206,-5,o),
(176,10,cs),
(116,39,o),
(81,95,o),
(81,166,cs),
(81,203,o),
(89,234,o),
(104,259,cs),
(135,308,o),
(189,342,o),
(250,371,c),
(187,440,o),
(151,489,o),
(151,554,cs),
(151,585,o),
(158,613,o),
(172,636,cs),
(199,683,o),
(251,710,o),
(320,710,cs),
(353,710,o),
(382,704,o),
(406,692,cs),
(453,667,o),
(480,622,o),
(480,570,cs),
(480,538,o),
(472,510,o),
(456,487,cs),
(423,439,o),
(363,404,o),
(284,367,c),
(504,149,l),
(527,204,o),
(536,275,o),
(536,351,c),
(645,351,l),
(645,331,l),
(555,331,l),
(554,258,o),
(543,191,o),
(518,135,c),
(651,0,l)
);
},
{
closed = 1;
nodes = (
(228,691,o),
(174,635,o),
(174,564,cs),
(174,546,ls),
(174,527,o),
(178,509,o),
(187,491,cs),
(204,454,o),
(235,419,o),
(270,380,c),
(307,397,o),
(339,414,o),
(367,432,cs),
(423,468,o),
(457,509,o),
(457,560,cs),
(457,574,ls),
(457,599,o),
(451,620,o),
(438,637,cs),
(413,672,o),
(369,691,o),
(320,691,cs)
);
},
{
closed = 1;
nodes = (
(316,8,o),
(346,13,o),
(373,22,cs),
(426,41,o),
(467,78,o),
(494,129,c),
(264,358,l),
(235,344,o),
(209,329,o),
(185,314,cs),
(136,282,o),
(104,241,o),
(104,176,cs),
(104,156,ls),
(104,111,o),
(121,76,o),
(155,49,cs),
(188,22,o),
(231,8,o),
(282,8,cs)
);
}
);
width = 699;
}
);
unicode = 38;
}
{
glyphname = quotesingle;
layers = (
{
layerId = "9A8FE613-2BB2-428D-A7DB-46DFB705B86D";
shapes = (
{
closed = 1;
nodes = (
(189,414,l),
(57,414,l),
(57,740,l),
(189,740,l)
);
}
);
width = 247;
},
{
layerId = "1513CFE8-5A13-42D2-8271-7D7365DF70DB";
shapes = (
{
closed = 1;
nodes = (
(165,451,l),
(82,451,l),
(82,740,l),
(165,740,l)
);
}
);
width = 247;
},
{
layerId = "1F8C5CD1-3431-41E3-A60F-01FCBC1C5BC1";
shapes = (
{
closed = 1;
nodes = (
(133,490,l),
(113,490,l),
(113,740,l),
(133,740,l)
);
}
);
width = 247;
}
);
leftKerningGroup = uni2032_2;
rightKerningGroup = uni2032;
unicode = 39;
}
{
glyphname = parenleft;
layers = (
{
layerId = "9A8FE613-2BB2-428D-A7DB-46DFB705B86D";
shapes = (
{
closed = 1;
nodes = (
(36,377,o),
(44,438,o),
(59,495,cs),
(90,609,o),
(144,703,o),
(211,760,c),
(350,760,l),
(315,727,o),
(284,689,o),
(258,646,cs),
(205,561,o),
(176,459,o),
(176,346,cs),
(176,276,ls),
(176,217,o),
(183,163,o),
(198,112,cs),
(226,11,o),
(279,-73,o),
(350,-138,c),
(210,-138,l),
(178,-110,o),
(149,-73,o),
(123,-28,cs),
(70,64,o),
(36,183,o),
(36,312,cs)
);
}
);
width = 336;
},
{
layerId = "1513CFE8-5A13-42D2-8271-7D7365DF70DB";
shapes = (
{
closed = 1;
nodes = (
(74,377,o),
(82,438,o),
(98,495,cs),
(130,609,o),
(186,703,o),
(254,760,c),
(342,760,l),
(305,727,o),
(274,688,o),
(247,643,cs),
(193,554,o),
(162,449,o),
(162,352,cs),
(162,270,ls),
(162,221,o),
(170,171,o),
(185,121,cs),
(215,20,o),
(270,-73,o),
(342,-137,c),
(254,-137,l),
(221,-109,o),
(191,-72,o),
(164,-27,cs),
(109,64,o),
(74,183,o),
(74,312,cs)
);
}
);
width = 336;
},
{
layerId = "1F8C5CD1-3431-41E3-A60F-01FCBC1C5BC1";
shapes = (
{
closed = 1;
nodes = (
(107,379,o),
(116,442,o),
(134,499,cs),
(170,614,o),
(230,704,o),
(291,760,c),
(316,760,l),
(283,731,o),
(253,695,o),
(224,651,cs),
(167,563,o),
(128,452,o),
(128,328,cs),
(128,294,ls),
(128,233,o),
(137,175,o),
(155,120,cs),
(190,10,o),
(251,-79,o),
(316,-138,c),
(291,-138,l),
(260,-109,o),
(231,-73,o),
(203,-29,cs),
(147,59,o),
(107,175,o),
(107,311,cs)
);
}
);
width = 336;
}
);
unicode = 40;
}
{
glyphname = parenright;
layers = (
{
layerId = "7AA3F0E6-41A7-43FF-9A92-631D90721C2F";
shapes = (
{
closed = 1;
nodes = (
(300,248,o),
(292,187,o),
(277,130,cs),
(246,14,o),
(192,-79,o),
(125,-138,c),
(-14,-138,l),
(22,-105,o),
(53,-67,o),
(79,-24,cs),
(131,61,o),
(160,163,o),
(160,276,cs),
(160,346,ls),
(160,405,o),
(153,459,o),
(139,510,cs),
(110,611,o),
(57,696,o),
(-14,760,c),
(126,760,l),
(159,732,o),
(188,695,o),
(214,650,cs),
(266,559,o),
(300,443,o),
(300,312,cs)
);
}
);
width = 336;
},
{
layerId = "8E9CA4E0-9900-4C00-AB62-7898C7C10EDA";
shapes = (
{
closed = 1;
nodes = (
(261,247,o),
(253,186,o),
(237,128,cs),
(205,12,o),
(148,-81,o),
(81,-137,c),
(-7,-137,l),
(29,-105,o),
(61,-67,o),
(88,-22,cs),
(143,69,o),
(174,173,o),
(174,270,cs),
(174,352,ls),
(174,401,o),
(167,451,o),
(152,501,cs),
(122,601,o),
(68,693,o),
(-7,760,c),
(82,760,l),
(115,731,o),
(146,694,o),
(173,649,cs),
(228,557,o),
(261,441,o),
(261,312,cs)
);
}
);
width = 336;
},
{
layerId = "43C84C2D-48F1-4CCB-8D92-E3AB8A629B7A";
shapes = (
{
closed = 1;
nodes = (
(229,243,o),
(220,180,o),
(202,123,cs),
(166,8,o),
(106,-81,o),
(45,-138,c),
(20,-138,l),
(53,-109,o),
(83,-72,o),
(112,-29,cs),
(169,59,o),
(208,171,o),
(208,294,cs),
(208,328,ls),
(208,390,o),
(199,448,o),
(182,503,cs),
(146,612,o),
(85,703,o),
(20,760,c),
(45,760,l),
(76,732,o),
(105,696,o),
(133,652,cs),
(189,563,o),
(229,447,o),
(229,311,cs)
);
}
);
width = 336;
}
);
unicode = 41;
}
{
glyphname = asterisk;
layers = (
{
layerId = "9A8FE613-2BB2-428D-A7DB-46DFB705B86D";
shapes = (
{
closed = 1;
nodes = (
(175,747,l),
(304,747,l),
(295,560,l),
(297,558,l),
(469,630,l),
(508,516,l),
(328,462,l),
(327,459,l),
(451,308,l),
(347,239,l),
(240,400,l),
(238,400,l),
(131,238,l),
(27,308,l),
(153,459,l),
(152,462,l),
(-29,516,l),
(10,630,l),
(182,558,l),
(184,560,l)
);
}
);
width = 479;
},
{
layerId = "1513CFE8-5A13-42D2-8271-7D7365DF70DB";
shapes = (
{
closed = 1;
nodes = (
(199,747,l),
(280,747,l),
(273,595,l),
(275,593,l),
(418,647,l),
(443,571,l),
(296,530,l),
(295,527,l),
(391,406,l),
(326,360,l),
(240,489,l),
(238,489,l),
(152,360,l),
(87,406,l),
(184,527,l),
(183,530,l),
(35,571,l),
(60,647,l),
(203,593,l),
(205,595,l)
);
}
);
width = 479;
},
{
layerId = "1F8C5CD1-3431-41E3-A60F-01FCBC1C5BC1";
shapes = (
{
closed = 1;
nodes = (
(229,747,l),
(249,747,l),
(247,592,l),
(249,590,l),
(397,640,l),
(403,621,l),
(254,576,l),
(253,574,l),
(347,447,l),
(332,436,l),
(240,565,l),
(238,565,l),
(146,436,l),
(131,447,l),
(225,574,l),
(224,576,l),
(75,621,l),
(81,640,l),
(229,590,l),
(231,592,l)
);
}
);
width = 479;
}
);
leftKerningGroup = uni2032_2;
rightKerningGroup = uni2032;
unicode = 42;
}
{
glyphname = plus;
layers = (
{
layerId = "9A8FE613-2BB2-428D-A7DB-46DFB705B86D";
shapes = (
{
closed = 1;
nodes = (
(364,63,l),
(236,63,l),
(236,247,l),
(67,247,l),
(67,365,l),
(236,365,l),
(236,549,l),
(364,549,l),
(364,365,l),
(533,365,l),
(533,247,l),
(364,247,l)
);
}
);
width = 600;
},
{
layerId = "1513CFE8-5A13-42D2-8271-7D7365DF70DB";
shapes = (
{
closed = 1;
nodes = (
(343,62,l),
(257,62,l),
(257,266,l),
(67,266,l),
(67,344,l),
(257,344,l),
(257,548,l),
(343,548,l),
(343,344,l),
(533,344,l),
(533,266,l),
(343,266,l)
);
}
);
width = 600;
},
{
layerId = "1F8C5CD1-3431-41E3-A60F-01FCBC1C5BC1";
shapes = (
{
closed = 1;
nodes = (
(311,62,l),
(290,62,l),
(290,296,l),
(62,296,l),
(62,315,l),
(290,315,l),
(290,549,l),
(311,549,l),
(311,315,l),
(539,315,l),
(539,296,l),
(311,296,l)
);
}
);
width = 600;
}
);
unicode = 43;
}
{
glyphname = comma;
layers = (
{
layerId = "9A8FE613-2BB2-428D-A7DB-46DFB705B86D";
shapes = (
{
closed = 1;
nodes = (
(199,169,o),
(227,136,o),
(227,89,cs),
(227,69,ls),
(227,28,o),
(217,-12,o),
(198,-51,cs),
(178,-90,o),
(152,-122,o),
(120,-147,c),
(20,-147,l),
(67,-103,o),
(101,-62,o),
(118,-9,c),
(73,-1,o),
(51,30,o),
(51,69,cs),
(51,89,ls),
(51,136,o),
(79,169,o),
(139,169,cs)
);
}
);
width = 279;
},
{
layerId = "1513CFE8-5A13-42D2-8271-7D7365DF70DB";
shapes = (
{
closed = 1;
nodes = (
(185,127,o),
(206,101,o),
(206,64,cs),
(206,49,ls),
(206,20,o),
(198,-12,o),
(181,-47,cs),
(164,-82,o),
(141,-111,o),
(112,-136,c),
(38,-136,l),
(79,-92,o),
(106,-57,o),
(118,-9,c),
(87,-2,o),
(73,20,o),
(73,49,cs),
(73,64,ls),
(73,101,o),
(95,127,o),
(140,127,cs)
);
}
);
width = 279;
},
{
layerId = "1F8C5CD1-3431-41E3-A60F-01FCBC1C5BC1";
shapes = (
{
closed = 1;
nodes = (
(159,53,o),
(166,42,o),
(166,27,cs),
(166,15,ls),
(166,-12,o),
(159,-41,o),
(144,-72,cs),
(129,-102,o),
(110,-127,o),
(89,-147,c),
(70,-147,l),
(121,-96,o),
(140,-42,o),
(144,-5,c),
(120,-5,o),
(112,6,o),
(112,18,cs),
(112,27,ls),
(112,42,o),
(120,53,o),
(140,53,cs)
);
}
);
width = 279;
}
);
leftKerningGroup = comma2;
rightKerningGroup = comma;
unicode = 44;
}
{
glyphname = hyphen;
layers = (
{
layerId = "7AA3F0E6-41A7-43FF-9A92-631D90721C2F";
shapes = (
{
closed = 1;
nodes = (
(348,233,l),
(51,233,l),
(51,377,l),
(348,377,l)
);
}
);
width = 400;
},
{
layerId = "8E9CA4E0-9900-4C00-AB62-7898C7C10EDA";
shapes = (
{
closed = 1;
nodes = (
(334,256,l),
(66,256,l),
(66,353,l),
(334,353,l)
);
}
);
width = 400;
},
{
layerId = "43C84C2D-48F1-4CCB-8D92-E3AB8A629B7A";
shapes = (
{
closed = 1;
nodes = (
(314,295,l),
(85,295,l),
(85,315,l),
(314,315,l)
);
}
);
width = 400;
}
);
leftKerningGroup = hyphen2;
rightKerningGroup = hyphen;
unicode = 45;
}
{
glyphname = period;
layers = (
{
layerId = "7AA3F0E6-41A7-43FF-9A92-631D90721C2F";
shapes = (
{
closed = 1;
nodes = (
(79,-11,o),
(51,24,o),
(51,69,cs),
(51,89,ls),
(51,136,o),
(79,169,o),
(139,169,cs),
(199,169,o),
(227,136,o),
(227,89,cs),
(227,69,ls),
(227,24,o),
(199,-11,o),
(139,-11,cs)
);
}
);
width = 279;
},
{
layerId = "8E9CA4E0-9900-4C00-AB62-7898C7C10EDA";
shapes = (
{
closed = 1;
nodes = (
(95,-12,o),
(73,15,o),
(73,50,cs),
(73,65,ls),
(73,101,o),
(95,127,o),
(140,127,cs),
(185,127,o),
(206,101,o),
(206,65,cs),
(206,50,ls),
(206,15,o),
(185,-12,o),
(140,-12,cs)
);
}
);
width = 279;
},
{
layerId = "43C84C2D-48F1-4CCB-8D92-E3AB8A629B7A";
shapes = (
{
closed = 1;
nodes = (
(122,-5,o),
(112,4,o),
(112,20,cs),
(112,28,ls),
(112,44,o),
(122,53,o),
(139,53,cs),
(158,53,o),
(166,44,o),
(166,28,cs),
(166,20,ls),
(166,4,o),
(158,-5,o),
(139,-5,cs)
);
}
);
width = 279;
}
);
leftKerningGroup = comma2;
rightKerningGroup = comma;
unicode = 46;
}
{
glyphname = slash;
layers = (
{
layerId = "7AA3F0E6-41A7-43FF-9A92-631D90721C2F";
shapes = (
{
closed = 1;
nodes = (
(94,-151,l),
(-28,-151,l),
(270,740,l),
(392,740,l)
);
}
);
width = 398;
},
{
layerId = "8E9CA4E0-9900-4C00-AB62-7898C7C10EDA";
shapes = (
{
closed = 1;
nodes = (
(89,-151,l),
(8,-151,l),
(276,740,l),
(357,740,l)
);
}
);
width = 398;
},
{
layerId = "43C84C2D-48F1-4CCB-8D92-E3AB8A629B7A";
shapes = (
{
closed = 1;
nodes = (
(75,-151,l),
(55,-151,l),
(293,740,l),
(313,740,l)
);
}
);
width = 398;
}
);
unicode = 47;
}
{
glyphname = zero;
layers = (
{
layerId = "9A8FE613-2BB2-428D-A7DB-46DFB705B86D";
shapes = (
{
closed = 1;
nodes = (
(239,-12,o),
(189,2,o),
(149,31,cs),
(69,88,o),
(31,197,o),
(31,349,cs),
(31,425,o),
(41,490,o),
(60,544,cs),
(99,652,o),
(179,710,o),
(300,710,cs),
(361,710,o),
(412,696,o),
(452,668,cs),
(531,611,o),
(569,501,o),
(569,349,cs),
(569,273,o),
(559,208,o),
(540,155,cs),
(501,47,o),
(423,-12,o),
(300,-12,cs)
);
},
{
closed = 1;
nodes = (
(327,115,o),
(348,122,o),
(363,135,cs),
(394,162,o),
(406,212,o),
(406,283,cs),
(406,415,ls),
(406,450,o),
(403,481,o),
(396,506,cs),
(383,556,o),
(353,583,o),
(300,583,cs),
(273,583,o),
(252,576,o),
(237,563,cs),
(206,536,o),
(194,486,o),
(194,415,cs),
(194,283,ls),
(194,248,o),
(197,218,o),
(204,193,cs),
(217,143,o),
(247,115,o),
(300,115,cs)
);
}
);
width = 600;
},
{
layerId = "1513CFE8-5A13-42D2-8271-7D7365DF70DB";
shapes = (
{
closed = 1;
nodes = (
(243,-12,o),
(197,2,o),
(161,31,cs),
(88,88,o),
(54,197,o),
(54,349,cs),
(54,425,o),
(63,490,o),
(80,544,cs),
(115,652,o),
(187,710,o),
(300,710,cs),
(357,710,o),
(404,696,o),
(440,668,cs),
(512,611,o),
(546,501,o),
(546,349,cs),
(546,273,o),
(537,208,o),
(520,155,cs),
(485,47,o),
(415,-12,o),
(300,-12,cs)
);
},
{
closed = 1;
nodes = (
(335,71,o),
(362,80,o),
(383,99,cs),
(424,136,o),
(443,205,o),
(443,290,cs),
(443,408,ls),
(443,451,o),
(438,489,o),
(429,522,c),
(409,587,o),
(369,627,o),
(300,627,cs),
(266,627,o),
(239,618,o),
(218,599,cs),
(176,562,o),
(157,495,o),
(157,408,cs),
(157,290,ls),
(157,247,o),
(162,210,o),
(172,177,cs),
(191,111,o),
(232,71,o),
(300,71,cs)
);
}
);
width = 600;
},
{
layerId = "1F8C5CD1-3431-41E3-A60F-01FCBC1C5BC1";
shapes = (
{
closed = 1;
nodes = (
(251,-12,o),
(210,0,o),
(176,25,cs),
(108,74,o),
(71,178,o),
(71,349,cs),
(71,434,o),
(80,504,o),
(98,557,cs),
(134,663,o),
(203,710,o),
(300,710,cs),
(349,710,o),
(390,698,o),
(424,673,cs),
(492,624,o),
(529,520,o),
(529,349,cs),
(529,264,o),
(520,195,o),
(502,142,cs),
(466,36,o),
(397,-12,o),
(300,-12,cs)
);
},
{
closed = 1;
nodes = (
(345,8,o),
(382,20,o),
(413,43,cs),
(473,89,o),
(505,181,o),
(505,317,cs),
(505,381,ls),
(505,450,o),
(497,507,o),
(482,553,cs),
(450,644,o),
(389,690,o),
(300,690,cs),
(256,690,o),
(219,679,o),
(188,656,cs),
(127,610,o),
(95,518,o),
(95,381,cs),
(95,317,ls),
(95,249,o),
(103,192,o),
(119,146,cs),
(150,54,o),
(212,8,o),
(300,8,cs)
);
}
);
width = 600;
}
);
unicode = 48;
}
{
glyphname = one;
layers = (
{
layerId = "9A8FE613-2BB2-428D-A7DB-46DFB705B86D";
shapes = (
{
closed = 1;
nodes = (
(423,0,l),
(274,0,l),
(274,561,l),
(124,479,l),
(124,619,l),
(266,698,l),
(423,698,l)
);
}
);
width = 600;
},
{
layerId = "1513CFE8-5A13-42D2-8271-7D7365DF70DB";
shapes = (
{
closed = 1;
nodes = (
(396,0,l),
(296,0,l),
(296,605,l),
(146,518,l),
(146,616,l),
(288,698,l),
(396,698,l)
);
}
);
width = 600;
},
{
layerId = "1F8C5CD1-3431-41E3-A60F-01FCBC1C5BC1";
shapes = (
{
closed = 1;
nodes = (
(354,0,l),
(332,0,l),
(332,675,l),
(182,588,l),
(182,612,l),
(330,698,l),
(354,698,l)
);
}
);
width = 600;
}
);
unicode = 49;
}
{
glyphname = two;
layers = (
{
layerId = "7AA3F0E6-41A7-43FF-9A92-631D90721C2F";
shapes = (
{
closed = 1;
nodes = (
(551,126,l),
(551,0,l),
(57,0,l),
(57,137,l),
(272,321,ls),
(311,354,o),
(339,383,o),
(354,407,cs),
(369,430,o),
(377,457,o),
(377,486,cs),
(377,500,ls),
(377,527,o),
(367,547,o),
(348,560,cs),
(329,573,o),
(308,580,o),
(285,580,cs),
(220,580,o),
(188,535,o),
(173,482,c),
(42,532,l),
(53,565,o),
(69,594,o),
(91,621,cs),
(134,674,o),
(203,710,o),
(299,710,cs),
(350,710,o),
(393,701,o),
(428,683,cs),
(499,646,o),
(537,581,o),
(537,500,cs),
(537,460,o),
(529,425,o),
(512,394,cs),
(478,332,o),
(418,281,o),
(351,228,cs),
(221,126,l)
);
}
);
width = 600;
},
{
layerId = "8E9CA4E0-9900-4C00-AB62-7898C7C10EDA";
shapes = (
{
closed = 1;
nodes = (
(536,84,l),
(536,0,l),
(72,0,l),
(72,96,l),
(297,301,ls),
(331,332,o),
(358,363,o),
(379,395,cs),
(400,427,o),
(410,459,o),
(410,492,cs),
(410,504,ls),
(410,541,o),
(400,570,o),
(379,592,cs),
(358,614,o),
(327,625,o),
(288,625,cs),
(207,625,o),
(167,574,o),
(150,510,c),
(64,543,l),
(73,572,o),
(87,599,o),
(106,624,cs),
(143,675,o),
(203,710,o),
(294,710,cs),
(341,710,o),
(380,701,o),
(413,684,c),
(478,648,o),
(513,586,o),
(513,506,cs),
(513,469,o),
(506,436,o),
(492,406,cs),
(464,345,o),
(414,293,o),
(353,240,cs),
(176,84,l)
);
}
);
width = 600;
},
{
layerId = "43C84C2D-48F1-4CCB-8D92-E3AB8A629B7A";
shapes = (
{
closed = 1;
nodes = (
(521,20,l),
(521,0,l),
(87,0,l),
(87,22,l),
(356,294,ls),
(389,327,o),
(415,361,o),
(434,396,cs),
(453,430,o),
(462,465,o),
(462,502,cs),
(462,532,ls),
(462,577,o),
(448,615,o),
(420,645,cs),
(391,675,o),
(349,690,o),
(294,690,cs),
(190,690,o),
(134,636,o),
(107,551,c),
(87,555,l),
(96,586,o),
(109,613,o),
(127,636,cs),
(162,682,o),
(218,710,o),
(294,710,cs),
(336,710,o),
(371,702,o),
(400,687,c),
(456,655,o),
(486,596,o),
(486,516,cs),
(486,487,o),
(482,459,o),
(473,432,cs),
(455,379,o),
(421,330,o),
(370,279,cs),
(112,20,l)
);
}
);
width = 600;
}
);
unicode = 50;
}
{
glyphname = three;
layers = (
{
layerId = "7AA3F0E6-41A7-43FF-9A92-631D90721C2F";
shapes = (
{
closed = 1;
nodes = (
(197,422,l),
(262,422,ls),
(299,422,o),
(327,429,o),
(344,444,cs),
(361,458,o),
(369,476,o),
(369,497,cs),
(369,504,ls),
(369,529,o),
(361,550,o),
(344,565,cs),
(327,580,o),
(304,588,o),
(275,588,cs),
(219,588,o),
(168,558,o),
(133,505,c),
(39,593,l),
(57,616,o),
(77,637,o),
(99,654,cs),
(143,689,o),
(200,710,o),
(280,710,cs),
(330,710,o),
(374,702,o),
(411,687,cs),
(485,656,o),
(527,600,o),
(527,525,cs),
(527,480,o),
(514,445,o),
(488,418,cs),
(461,391,o),
(430,375,o),
(394,368,c),
(394,362,l),
(422,357,o),
(447,348,o),
(469,334,cs),
(512,305,o),
(539,258,o),
(539,194,cs),
(539,153,o),
(528,117,o),
(506,86,cs),
(461,24,o),
(379,-12,o),
(274,-12,cs),
(227,-12,o),
(187,-6,o),
(154,7,cs),
(89,31,o),
(47,75,o),
(16,122,c),
(127,208,l),
(158,151,o),
(199,110,o),
(274,110,cs),
(308,110,o),
(335,119,o),
(354,136,cs),
(373,153,o),
(382,176,o),
(382,205,cs),
(382,211,ls),
(382,268,o),
(336,297,o),
(260,297,cs),
(197,297,l)
);
}
);
width = 600;
},
{
layerId = "8E9CA4E0-9900-4C00-AB62-7898C7C10EDA";
shapes = (
{
closed = 1;
nodes = (
(187,406,l),
(261,406,ls),
(306,406,o),
(340,416,o),
(363,437,cs),
(386,457,o),
(397,483,o),
(397,514,cs),
(397,521,ls),
(397,556,o),
(386,582,o),
(364,600,cs),
(342,617,o),
(313,626,o),
(277,626,cs),
(209,626,o),
(165,593,o),
(134,540,c),
(66,595,l),
(79,615,o),
(95,634,o),
(114,651,cs),
(152,686,o),
(204,710,o),
(280,710,cs),
(321,710,o),
(359,703,o),
(392,689,cs),
(458,661,o),
(499,608,o),
(499,532,cs),
(499,487,o),
(486,452,o),
(460,425,cs),
(433,398,o),
(402,379,o),
(365,370,c),
(365,366,l),
(391,361,o),
(415,352,o),
(437,338,cs),
(481,309,o),
(511,261,o),
(511,192,cs),
(511,151,o),
(501,116,o),
(481,86,cs),
(441,25,o),
(366,-12,o),
(269,-12,cs),
(228,-12,o),
(193,-6,o),
(164,6,cs),
(106,29,o),
(66,69,o),
(37,110,c),
(109,165,l),
(144,110,o),
(185,72,o),
(268,72,cs),
(315,72,o),
(350,83,o),
(374,105,cs),
(398,126,o),
(410,156,o),
(410,194,cs),
(410,202,ls),
(410,279,o),
(359,323,o),
(266,323,cs),
(187,323,l)
);
}
);
width = 600;
},
{
layerId = "43C84C2D-48F1-4CCB-8D92-E3AB8A629B7A";
shapes = (
{
closed = 1;
nodes = (
(186,376,l),
(280,376,ls),
(331,376,o),
(372,390,o),
(404,417,cs),
(435,444,o),
(451,479,o),
(451,522,cs),
(451,546,ls),
(451,589,o),
(436,624,o),
(406,651,c),
(375,677,o),
(336,690,o),
(287,690,cs),
(194,690,o),
(144,651,o),
(113,591,c),
(95,599,l),
(104,621,o),
(118,640,o),
(135,657,cs),
(170,690,o),
(220,710,o),
(287,710,cs),
(325,710,o),
(358,703,o),
(387,689,c),
(443,660,o),
(475,607,o),
(475,536,cs),
(475,487,o),
(462,448,o),
(436,421,cs),
(410,394,o),
(376,376,o),
(335,368,c),
(335,365,l),
(366,361,o),
(394,352,o),
(417,337,cs),
(464,307,o),
(490,256,o),
(490,187,cs),
(490,146,o),
(482,111,o),
(465,81,cs),
(431,21,o),
(368,-12,o),
(283,-12,cs),
(251,-12,o),
(222,-8,o),
(195,-1,c),
(142,15,o),
(101,47,o),
(70,95,c),
(88,106,l),
(131,38,o),
(194,8,o),
(283,8,cs),
(337,8,o),
(381,23,o),
(415,53,cs),
(449,82,o),
(466,121,o),
(466,170,cs),
(466,198,ls),
(466,293,o),
(395,356,o),
(282,356,cs),
(186,356,l)
);
}
);
width = 600;
}
);
unicode = 51;
}
{
glyphname = four;
layers = (
{
layerId = "9A8FE613-2BB2-428D-A7DB-46DFB705B86D";
shapes = (
{
closed = 1;
nodes = (
(480,0,l),
(337,0,l),
(337,134,l),
(30,134,l),
(30,262,l),
(302,698,l),
(480,698,l),
(480,250,l),
(568,250,l),
(568,134,l),
(480,134,l)
);
},
{
closed = 1;
nodes = (
(327,543,l),
(150,250,l),
(337,250,l),
(337,543,l)
);
}
);
width = 600;
},
{
layerId = "1513CFE8-5A13-42D2-8271-7D7365DF70DB";
shapes = (
{
closed = 1;
nodes = (
(460,0,l),
(368,0,l),
(368,136,l),
(36,136,l),
(36,221,l),
(325,698,l),
(460,698,l),
(460,215,l),
(558,215,l),
(558,136,l),
(460,136,l)
);
},
{
closed = 1;
nodes = (
(362,616,l),
(123,215,l),
(368,215,l),
(368,616,l)
);
}
);
width = 600;
},
{
layerId = "1F8C5CD1-3431-41E3-A60F-01FCBC1C5BC1";
shapes = (
{
closed = 1;
nodes = (
(432,0,l),
(412,0,l),
(412,160,l),
(47,160,l),
(47,181,l),
(407,698,l),
(432,698,l),
(432,179,l),
(550,179,l),
(550,160,l),
(432,160,l)
);
},
{
closed = 1;
nodes = (
(410,670,l),
(69,179,l),
(412,179,l),
(412,670,l)
);
}
);
width = 600;
}
);
unicode = 52;
}
{
glyphname = five;
layers = (
{
layerId = "9A8FE613-2BB2-428D-A7DB-46DFB705B86D";
shapes = (
{
closed = 1;
nodes = (
(522,698,l),
(522,567,l),
(205,567,l),
(190,346,l),
(198,346,l),
(207,368,o),
(218,387,o),
(230,404,cs),
(254,437,o),
(289,457,o),
(348,457,cs),
(388,457,o),
(424,448,o),
(457,431,c),
(521,395,o),
(563,328,o),
(563,235,cs),
(563,188,o),
(553,145,o),
(532,108,cs),
(491,33,o),
(410,-12,o),
(295,-12,cs),
(250,-12,o),
(212,-6,o),
(180,7,c),
(116,31,o),
(74,75,o),
(46,122,c),
(155,208,l),
(170,181,o),
(189,158,o),
(210,139,cs),
(231,120,o),
(260,110,o),
(296,110,cs),
(332,110,o),
(359,120,o),
(378,141,cs),
(396,162,o),
(405,189,o),
(405,223,cs),
(405,231,ls),
(405,295,o),
(365,335,o),
(300,335,cs),
(273,335,o),
(251,330,o),
(233,319,cs),
(215,308,o),
(201,297,o),
(192,286,c),
(69,303,l),
(95,698,l)
);
}
);
width = 600;
},
{
layerId = "1513CFE8-5A13-42D2-8271-7D7365DF70DB";
shapes = (
{
closed = 1;
nodes = (
(503,698,l),
(503,613,l),
(194,613,l),
(175,356,l),
(183,356,l),
(194,373,o),
(205,387,o),
(218,400,cs),
(243,424,o),
(276,439,o),
(327,439,cs),
(367,439,o),
(403,430,o),
(435,413,cs),
(498,378,o),
(536,313,o),
(536,222,cs),
(536,176,o),
(527,136,o),
(508,101,cs),
(470,31,o),
(396,-12,o),
(295,-12,cs),
(255,-12,o),
(221,-6,o),
(193,6,cs),
(137,29,o),
(99,69,o),
(71,110,c),
(143,165,l),
(160,138,o),
(180,115,o),
(202,98,cs),
(223,81,o),
(254,72,o),
(295,72,cs),
(340,72,o),
(375,84,o),
(399,109,cs),
(422,133,o),
(434,167,o),
(434,211,cs),
(434,220,ls),
(434,307,o),
(385,358,o),
(296,358,cs),
(265,358,o),
(240,352,o),
(222,341,cs),
(204,329,o),
(188,316,o),
(174,301,c),
(93,312,l),
(118,698,l)
);
}
);
width = 600;
},
{
layerId = "1F8C5CD1-3431-41E3-A60F-01FCBC1C5BC1";
shapes = (
{
closed = 1;
nodes = (
(481,698,l),
(481,678,l),
(158,678,l),
(134,344,l),
(137,343,l),
(150,360,o),
(165,374,o),
(182,385,cs),
(214,405,o),
(255,413,o),
(304,413,cs),
(347,413,o),
(383,405,o),
(413,388,cs),
(472,355,o),
(505,291,o),
(505,203,cs),
(505,159,o),
(497,121,o),
(480,89,cs),
(446,24,o),
(382,-12,o),
(297,-12,cs),
(265,-12,o),
(236,-8,o),
(209,-1,c),
(156,15,o),
(115,47,o),
(84,95,c),
(102,106,l),
(123,72,o),
(150,47,o),
(182,32,cs),
(214,16,o),
(252,8,o),
(297,8,cs),
(356,8,o),
(401,25,o),
(433,59,cs),
(465,92,o),
(481,135,o),
(481,188,cs),
(481,216,ls),
(481,321,o),
(419,393,o),
(304,393,cs),
(261,393,o),
(228,387,o),
(204,376,cs),
(180,365,o),
(158,347,o),
(137,323,c),
(114,326,l),
(140,698,l)
);
}
);
width = 600;
}
);
unicode = 53;
}
{
glyphname = six;
layers = (
{
layerId = "9A8FE613-2BB2-428D-A7DB-46DFB705B86D";
shapes = (
{
closed = 1;
nodes = (
(249,-12,o),
(202,-1,o),
(163,22,cs),
(85,67,o),
(42,153,o),
(42,265,cs),
(42,364,o),
(74,451,o),
(123,525,cs),
(171,599,o),
(232,658,o),
(292,698,c),
(499,698,l),
(442,657,o),
(393,619,o),
(352,583,cs),
(269,510,o),
(218,437,o),
(199,348,c),
(208,345,l),
(216,363,o),
(226,380,o),
(239,396,cs),
(264,428,o),
(303,450,o),
(362,450,cs),
(401,450,o),
(435,441,o),
(466,424,c),
(527,388,o),
(566,321,o),
(566,233,cs),
(566,186,o),
(555,144,o),
(534,107,cs),
(490,33,o),
(411,-12,o),
(304,-12,cs)
);
},
{
closed = 1;
nodes = (
(326,105,o),
(345,109,o),
(361,118,cs),
(392,134,o),
(410,166,o),
(410,211,cs),
(410,229,ls),
(410,252,o),
(406,271,o),
(397,287,cs),
(380,318,o),
(348,335,o),
(304,335,cs),
(282,335,o),
(263,331,o),
(248,323,cs),
(216,306,o),
(198,274,o),
(198,229,cs),
(198,211,ls),
(198,188,o),
(202,169,o),
(211,154,c),
(228,122,o),
(260,105,o),
(304,105,cs)
);
}
);
width = 600;
},
{
layerId = "1513CFE8-5A13-42D2-8271-7D7365DF70DB";
shapes = (
{
closed = 1;
nodes = (
(252,-12,o),
(209,-1,o),
(174,21,cs),
(102,65,o),
(62,147,o),
(62,258,cs),
(62,361,o),
(95,451,o),
(145,527,cs),
(195,602,o),
(255,661,o),
(311,698,c),
(438,698,l),
(387,661,o),
(344,625,o),
(307,590,cs),
(234,519,o),
(187,443,o),
(163,338,c),
(168,336,l),
(179,355,o),
(191,373,o),
(206,388,cs),
(235,418,o),
(277,437,o),
(334,437,cs),
(373,437,o),
(409,428,o),
(440,411,cs),
(502,376,o),
(539,310,o),
(539,222,cs),
(539,176,o),
(529,135,o),
(510,100,cs),
(470,29,o),
(397,-12,o),
(302,-12,cs)
);
},
{
closed = 1;
nodes = (
(330,69,o),
(354,75,o),
(375,86,cs),
(416,108,o),
(439,149,o),
(439,209,cs),
(439,218,ls),
(439,248,o),
(434,273,o),
(423,294,cs),
(401,335,o),
(358,358,o),
(301,358,cs),
(272,358,o),
(247,353,o),
(227,342,cs),
(186,320,o),
(162,278,o),
(162,218,cs),
(162,209,ls),
(162,179,o),
(168,154,o),
(179,133,cs),
(202,92,o),
(242,69,o),
(301,69,cs)
);
}
);
width = 600;
},
{
layerId = "1F8C5CD1-3431-41E3-A60F-01FCBC1C5BC1";
shapes = (
{
closed = 1;
nodes = (
(249,-12,o),
(208,-1,o),
(177,20,cs),
(114,63,o),
(87,138,o),
(87,226,cs),
(87,339,o),
(117,434,o),
(166,511,cs),
(215,588,o),
(283,650,o),
(360,698,c),
(392,698,l),
(338,665,o),
(292,629,o),
(254,590,cs),
(178,513,o),
(132,422,o),
(113,311,c),
(116,310,l),
(128,334,o),
(143,354,o),
(161,370,cs),
(197,402,o),
(244,417,o),
(299,417,cs),
(342,417,o),
(380,409,o),
(412,392,cs),
(475,358,o),
(511,293,o),
(511,205,cs),
(511,162,o),
(502,124,o),
(485,91,cs),
(450,26,o),
(387,-12,o),
(300,-12,cs)
);
},
{
closed = 1;
nodes = (
(338,8,o),
(372,16,o),
(400,32,cs),
(456,63,o),
(487,119,o),
(487,187,cs),
(487,218,ls),
(487,252,o),
(480,283,o),
(465,310,cs),
(435,364,o),
(378,397,o),
(299,397,cs),
(259,397,o),
(225,389,o),
(197,374,c),
(141,342,o),
(111,286,o),
(111,218,cs),
(111,190,ls),
(111,155,o),
(119,124,o),
(134,97,cs),
(165,42,o),
(222,8,o),
(299,8,cs)
);
}
);
width = 600;
}
);
unicode = 54;
}
{
glyphname = seven;
layers = (
{
hints = (
{
horizontal = 1;
place = (0,21);
target = up;
type = BottomGhost;
},
{
horizontal = 1;
place = (576,122);
type = Stem;
},
{
place = (55,127);
type = Stem;
}
);
layerId = "9A8FE613-2BB2-428D-A7DB-46DFB705B86D";
shapes = (
{
closed = 1;
nodes = (
(324,0,l),
(549,568,l),
(549,698,l),
(55,698,l),
(55,576,l),
(400,576,l),
(166,0,l)
);
}
);
width = 600;
},
{
hints = (
{
horizontal = 1;
place = (0,21);
target = up;
type = BottomGhost;
},
{
horizontal = 1;
place = (616,82);
type = Stem;
},
{
place = (66,85);
type = Stem;
}
);
layerId = "1513CFE8-5A13-42D2-8271-7D7365DF70DB";
shapes = (
{
closed = 1;
nodes = (
(276,0,l),
(531,613,l),
(531,698,l),
(66,698,l),
(66,616,l),
(434,616,l),
(173,0,l)
);
}
);
width = 600;
},
{
hints = (
{
horizontal = 1;
place = (0,21);
target = up;
type = BottomGhost;
},
{
horizontal = 1;
place = (678,20);
type = Stem;
},
{
place = (77,22);
type = Stem;
}
);
layerId = "1F8C5CD1-3431-41E3-A60F-01FCBC1C5BC1";
shapes = (
{
closed = 1;
nodes = (
(211,0,l),
(512,678,l),
(512,698,l),
(77,698,l),
(77,678,l),
(489,678,l),
(187,0,l)
);
}
);
width = 600;
}
);
unicode = 55;
}
{
glyphname = eight;
layers = (
{
layerId = "7AA3F0E6-41A7-43FF-9A92-631D90721C2F";
shapes = (
{
closed = 1;
nodes = (
(245,-12,o),
(199,-3,o),
(160,15,cs),
(82,50,o),
(40,114,o),
(40,191,cs),
(40,280,o),
(94,337,o),
(177,360,c),
(177,368,l),
(109,393,o),
(61,445,o),
(61,526,cs),
(61,579,o),
(82,623,o),
(123,658,cs),
(164,693,o),
(223,710,o),
(300,710,cs),
(377,710,o),
(437,693,o),
(478,658,cs),
(519,623,o),
(539,579,o),
(539,526,cs),
(539,445,o),
(491,393,o),
(423,368,c),
(423,360,l),
(506,337,o),
(560,280,o),
(560,191,cs),
(560,152,o),
(550,118,o),
(530,87,cs),
(489,26,o),
(411,-12,o),
(300,-12,cs)
);
},
{
closed = 1;
nodes = (
(333,103,o),
(359,111,o),
(377,127,cs),
(394,143,o),
(403,165,o),
(403,192,cs),
(403,212,ls),
(403,239,o),
(394,261,o),
(377,277,cs),
(359,293,o),
(333,301,o),
(300,301,cs),
(267,301,o),
(242,293,o),
(224,277,cs),
(206,261,o),
(197,239,o),
(197,212,cs),
(197,192,ls),
(197,165,o),
(206,143,o),
(224,127,cs),
(242,111,o),
(267,103,o),
(300,103,cs)
);
},
{
closed = 1;
nodes = (
(363,411,o),
(398,443,o),
(398,495,cs),
(398,511,ls),
(398,563,o),
(363,595,o),
(300,595,cs),
(237,595,o),
(202,563,o),
(202,511,cs),
(202,495,ls),
(202,443,o),
(237,411,o),
(300,411,cs)
);
}
);
width = 600;
},
{
layerId = "8E9CA4E0-9900-4C00-AB62-7898C7C10EDA";
shapes = (
{
closed = 1;
nodes = (
(247,-12,o),
(202,-3,o),
(166,15,cs),
(93,50,o),
(55,114,o),
(55,190,cs),
(55,283,o),
(111,339,o),
(195,362,c),
(195,370,l),
(123,395,o),
(76,453,o),
(76,533,cs),
(76,586,o),
(96,629,o),
(135,662,cs),
(174,694,o),
(229,710,o),
(300,710,cs),
(371,710,o),
(426,694,o),
(465,662,cs),
(504,629,o),
(524,586,o),
(524,533,cs),
(524,453,o),
(477,395,o),
(405,370,c),
(405,362,l),
(489,339,o),
(545,283,o),
(545,190,cs),
(545,152,o),
(536,118,o),
(517,87,cs),
(480,26,o),
(408,-12,o),
(300,-12,cs)
);
},
{
closed = 1;
nodes = (
(346,69,o),
(382,80,o),
(407,101,cs),
(432,122,o),
(444,150,o),
(444,187,cs),
(444,208,ls),
(444,245,o),
(432,274,o),
(407,295,cs),
(382,316,o),
(346,326,o),
(300,326,cs),
(255,326,o),
(220,316,o),
(195,295,cs),
(170,274,o),
(157,245,o),
(157,208,cs),
(157,187,ls),
(157,150,o),
(170,122,o),
(195,101,cs),
(220,80,o),
(255,69,o),
(300,69,cs)
);
},
{
closed = 1;
nodes = (
(383,404,o),
(427,441,o),
(427,509,cs),
(427,524,ls),
(427,591,o),
(383,629,o),
(300,629,cs),
(217,629,o),
(173,591,o),
(173,524,cs),
(173,509,ls),
(173,441,o),
(217,404,o),
(300,404,cs)
);
}
);
width = 600;
},
{
layerId = "43C84C2D-48F1-4CCB-8D92-E3AB8A629B7A";
shapes = (
{
closed = 1;
nodes = (
(253,-12,o),
(213,-4,o),
(179,12,cs),
(111,44,o),
(72,103,o),
(72,180,cs),
(72,279,o),
(131,348,o),
(226,364,c),
(226,368,l),
(146,384,o),
(96,446,o),
(96,535,cs),
(96,588,o),
(114,631,o),
(151,663,cs),
(188,694,o),
(237,710,o),
(300,710,cs),
(363,710,o),
(412,694,o),
(449,663,cs),
(486,631,o),
(504,588,o),
(504,535,cs),
(504,446,o),
(454,384,o),
(374,368,c),
(374,364,l),
(469,348,o),
(528,279,o),
(528,180,cs),
(528,141,o),
(519,108,o),
(500,79,cs),
(463,22,o),
(393,-12,o),
(300,-12,cs)
);
},
{
closed = 1;
nodes = (
(362,8,o),
(412,23,o),
(449,53,cs),
(486,83,o),
(504,122,o),
(504,169,cs),
(504,195,ls),
(504,242,o),
(486,281,o),
(449,311,cs),
(412,341,o),
(362,356,o),
(300,356,cs),
(238,356,o),
(189,341,o),
(152,311,cs),
(115,281,o),
(96,242,o),
(96,195,cs),
(96,169,ls),
(96,122,o),
(115,83,o),
(152,53,cs),
(189,23,o),
(238,8,o),
(300,8,cs)
);
},
{
closed = 1;
nodes = (
(409,376,o),
(480,434,o),
(480,521,cs),
(480,545,ls),
(480,632,o),
(409,690,o),
(300,690,cs),
(191,690,o),
(120,632,o),
(120,545,cs),
(120,521,ls),
(120,434,o),
(191,376,o),
(300,376,cs)
);
}
);
width = 600;
}
);
unicode = 56;
}
{
glyphname = nine;
layers = (
{
layerId = "7AA3F0E6-41A7-43FF-9A92-631D90721C2F";
shapes = (
{
closed = 1;
nodes = (
(558,336,o),
(526,248,o),
(478,174,cs),
(429,100,o),
(368,40,o),
(308,0,c),
(101,0,l),
(158,41,o),
(207,79,o),
(248,116,cs),
(331,188,o),
(382,262,o),
(401,350,c),
(392,353,l),
(384,336,o),
(374,319,o),
(361,303,cs),
(336,270,o),
(298,248,o),
(238,248,cs),
(200,248,o),
(166,257,o),
(135,275,cs),
(73,311,o),
(34,377,o),
(34,465,cs),
(34,513,o),
(45,555,o),
(67,592,cs),
(110,665,o),
(191,710,o),
(296,710,cs),
(351,710,o),
(399,699,o),
(438,676,cs),
(516,631,o),
(558,545,o),
(558,433,cs)
);
},
{
closed = 1;
nodes = (
(318,363,o),
(337,367,o),
(353,376,cs),
(384,392,o),
(402,424,o),
(402,469,cs),
(402,487,ls),
(402,510,o),
(398,529,o),
(389,545,cs),
(372,576,o),
(340,593,o),
(296,593,cs),
(274,593,o),
(255,589,o),
(240,581,cs),
(208,564,o),
(190,532,o),
(190,487,cs),
(190,469,ls),
(190,446,o),
(194,427,o),
(203,412,c),
(220,380,o),
(252,363,o),
(296,363,cs)
);
}
);
width = 600;
},
{
layerId = "8E9CA4E0-9900-4C00-AB62-7898C7C10EDA";
shapes = (
{
closed = 1;
nodes = (
(538,337,o),
(506,247,o),
(456,172,cs),
(406,96,o),
(345,37,o),
(289,0,c),
(162,0,l),
(213,37,o),
(257,74,o),
(294,109,cs),
(366,179,o),
(413,256,o),
(437,360,c),
(432,362,l),
(421,343,o),
(409,326,o),
(394,311,cs),
(365,280,o),
(325,261,o),
(266,261,cs),
(227,261,o),
(192,270,o),
(161,287,cs),
(99,322,o),
(61,388,o),
(61,476,cs),
(61,523,o),
(71,564,o),
(91,599,cs),
(130,669,o),
(203,710,o),
(298,710,cs),
(348,710,o),
(391,699,o),
(427,677,cs),
(498,633,o),
(538,551,o),
(538,440,cs)
);
},
{
closed = 1;
nodes = (
(328,340,o),
(353,346,o),
(374,357,cs),
(414,379,o),
(438,420,o),
(438,480,cs),
(438,489,ls),
(438,519,o),
(432,544,o),
(421,565,cs),
(398,606,o),
(358,629,o),
(299,629,cs),
(270,629,o),
(246,624,o),
(225,613,cs),
(184,591,o),
(161,549,o),
(161,489,cs),
(161,480,ls),
(161,450,o),
(167,425,o),
(178,404,cs),
(200,363,o),
(242,340,o),
(299,340,cs)
);
}
);
width = 600;
},
{
layerId = "43C84C2D-48F1-4CCB-8D92-E3AB8A629B7A";
shapes = (
{
closed = 1;
nodes = (
(516,359,o),
(486,264,o),
(437,187,cs),
(388,110,o),
(320,48,o),
(243,0,c),
(211,0,l),
(265,34,o),
(311,70,o),
(349,109,cs),
(425,185,o),
(471,276,o),
(490,387,c),
(487,388,l),
(476,364,o),
(461,344,o),
(443,329,cs),
(406,297,o),
(359,281,o),
(304,281,cs),
(261,281,o),
(224,290,o),
(192,307,cs),
(128,341,o),
(92,406,o),
(92,493,cs),
(92,537,o),
(101,575,o),
(118,608,cs),
(153,672,o),
(218,710,o),
(303,710,cs),
(354,710,o),
(395,699,o),
(426,678,cs),
(489,635,o),
(516,561,o),
(516,472,cs)
);
},
{
closed = 1;
nodes = (
(344,301,o),
(378,309,o),
(406,325,cs),
(462,356,o),
(492,413,o),
(492,480,cs),
(492,508,ls),
(492,543,o),
(484,574,o),
(469,601,cs),
(438,656,o),
(381,690,o),
(304,690,cs),
(265,690,o),
(232,682,o),
(204,667,cs),
(147,635,o),
(116,579,o),
(116,511,cs),
(116,480,ls),
(116,447,o),
(124,416,o),
(139,389,cs),
(169,334,o),
(225,301,o),
(304,301,cs)
);
}
);
width = 600;
}
);
unicode = 57;
}
{
glyphname = colon;
layers = (
{
layerId = "9A8FE613-2BB2-428D-A7DB-46DFB705B86D";
shapes = (
{
alignment = -1;
pos = (10,0);
ref = period;
},
{
alignment = -1;
pos = (10,367);
ref = period;
}
);
width = 299;
},
{
layerId = "1513CFE8-5A13-42D2-8271-7D7365DF70DB";
shapes = (
{
closed = 1;
nodes = (
(105,-12,o),
(83,15,o),
(83,50,cs),
(83,65,ls),
(83,101,o),
(105,127,o),
(150,127,cs),
(195,127,o),
(216,101,o),
(216,65,cs),
(216,50,ls),
(216,15,o),
(195,-12,o),
(150,-12,cs)
);
},
{
closed = 1;
nodes = (
(105,391,o),
(83,418,o),
(83,453,cs),
(83,468,ls),
(83,504,o),
(105,530,o),
(150,530,cs),
(195,530,o),
(216,504,o),
(216,468,cs),
(216,453,ls),
(216,418,o),
(195,391,o),
(150,391,cs)
);
}
);
width = 299;
},
{
layerId = "1F8C5CD1-3431-41E3-A60F-01FCBC1C5BC1";
shapes = (
{
alignment = -1;
pos = (9,0);
ref = period;
},
{
alignment = -1;
pos = (9,458);
ref = period;
}
);
width = 299;
}
);
leftKerningGroup = colon2;
rightKerningGroup = colon;
unicode = 58;
}
{
glyphname = less;
layers = (
{
layerId = "7AA3F0E6-41A7-43FF-9A92-631D90721C2F";
shapes = (
{
closed = 1;
nodes = (
(497,-2,l),
(103,258,l),
(103,345,l),
(497,604,l),
(497,455,l),
(259,305,l),
(259,298,l),
(497,148,l)
);
}
);
width = 600;
},
{
layerId = "8E9CA4E0-9900-4C00-AB62-7898C7C10EDA";
shapes = (
{
closed = 1;
nodes = (
(508,-10,l),
(92,241,l),
(92,322,l),
(508,573,l),
(508,477,l),
(183,286,l),
(183,278,l),
(508,86,l)
);
}
);
width = 600;
},
{
layerId = "43C84C2D-48F1-4CCB-8D92-E3AB8A629B7A";
shapes = (
{
closed = 1;
nodes = (
(515,38,l),
(85,296,l),
(85,314,l),
(515,572,l),
(515,549,l),
(108,306,l),
(108,304,l),
(515,61,l)
);
}
);
width = 600;
}
);
unicode = 60;
}
{
glyphname = equal;
layers = (
{
layerId = "9A8FE613-2BB2-428D-A7DB-46DFB705B86D";
shapes = (
{
closed = 1;
nodes = (
(533,362,l),
(67,362,l),
(67,480,l),
(533,480,l)
);
},
{
closed = 1;
nodes = (
(533,130,l),
(67,130,l),
(67,248,l),
(533,248,l)
);
}
);
width = 600;
},
{
layerId = "1513CFE8-5A13-42D2-8271-7D7365DF70DB";
shapes = (
{
closed = 1;
nodes = (
(533,370,l),
(67,370,l),
(67,448,l),
(533,448,l)
);
},
{
closed = 1;
nodes = (
(533,164,l),
(67,164,l),
(67,242,l),
(533,242,l)
);
}
);
width = 600;
},
{
layerId = "1F8C5CD1-3431-41E3-A60F-01FCBC1C5BC1";
shapes = (
{
closed = 1;
nodes = (
(538,385,l),
(62,385,l),
(62,404,l),
(538,404,l)
);
},
{
closed = 1;
nodes = (
(538,207,l),
(62,207,l),
(62,226,l),
(538,226,l)
);
}
);
width = 600;
}
);
unicode = 61;
}
{
glyphname = greater;
layers = (
{
layerId = "7AA3F0E6-41A7-43FF-9A92-631D90721C2F";
shapes = (
{
closed = 1;
nodes = (
(103,-2,l),
(103,148,l),
(341,298,l),
(341,305,l),
(103,455,l),
(103,604,l),
(497,346,l),
(497,259,l)
);
}
);
width = 600;
},
{
layerId = "8E9CA4E0-9900-4C00-AB62-7898C7C10EDA";
shapes = (
{
closed = 1;
nodes = (
(92,-10,l),
(92,86,l),
(417,278,l),
(417,286,l),
(92,477,l),
(92,573,l),
(508,323,l),
(508,241,l)
);
}
);
width = 600;
},
{
layerId = "43C84C2D-48F1-4CCB-8D92-E3AB8A629B7A";
shapes = (
{
closed = 1;
nodes = (
(85,38,l),
(85,61,l),
(492,304,l),
(492,306,l),
(85,549,l),
(85,572,l),
(515,314,l),
(515,296,l)
);
}
);
width = 600;
}
);
unicode = 62;
}
{
glyphname = question;
layers = (
{
layerId = "7AA3F0E6-41A7-43FF-9A92-631D90721C2F";
shapes = (
{
closed = 1;
nodes = (
(288,233,l),
(148,233,l),
(148,386,l),
(253,390,o),
(306,419,o),
(306,492,cs),
(306,506,ls),
(306,557,o),
(273,584,o),
(225,584,cs),
(173,584,o),
(138,548,o),
(126,499,c),
(4,550,l),
(12,577,o),
(25,602,o),
(43,627,cs),
(79,675,o),
(139,710,o),
(230,710,cs),
(277,710,o),
(318,701,o),
(353,684,cs),
(423,649,o),
(463,585,o),
(463,504,cs),
(463,467,o),
(455,434,o),
(439,406,cs),
(407,350,o),
(351,316,o),
(288,305,c)
);
},
{
closed = 1;
nodes = (
(157,-12,o),
(131,21,o),
(131,64,cs),
(131,88,ls),
(131,131,o),
(157,164,o),
(220,164,cs),
(283,164,o),
(309,131,o),
(309,88,cs),
(309,64,ls),
(309,21,o),
(283,-12,o),
(220,-12,cs)
);
}
);
width = 481;
},
{
layerId = "8E9CA4E0-9900-4C00-AB62-7898C7C10EDA";
shapes = (
{
closed = 1;
nodes = (
(264,213,l),
(175,213,l),
(175,375,l),
(283,379,o),
(347,426,o),
(347,507,cs),
(347,521,ls),
(347,586,o),
(303,627,o),
(236,627,cs),
(163,627,o),
(120,580,o),
(104,516,c),
(21,548,l),
(30,577,o),
(43,603,o),
(61,628,cs),
(96,677,o),
(155,710,o),
(239,710,cs),
(282,710,o),
(319,702,o),
(350,686,cs),
(412,654,o),
(446,595,o),
(446,518,cs),
(446,476,o),
(437,441,o),
(420,413,cs),
(384,356,o),
(324,326,o),
(264,314,c)
);
},
{
closed = 1;
nodes = (
(175,-12,o),
(154,13,o),
(154,49,cs),
(154,65,ls),
(154,101,o),
(175,126,o),
(220,126,cs),
(267,126,o),
(287,101,o),
(287,65,cs),
(287,49,ls),
(287,13,o),
(267,-12,o),
(220,-12,cs)
);
}
);
width = 481;
},
{
layerId = "43C84C2D-48F1-4CCB-8D92-E3AB8A629B7A";
shapes = (
{
closed = 1;
nodes = (
(232,176,l),
(210,176,l),
(210,349,l),
(337,352,o),
(410,419,o),
(410,516,cs),
(410,542,ls),
(410,630,o),
(351,691,o),
(248,691,cs),
(149,691,o),
(94,641,o),
(69,554,c),
(49,559,l),
(58,591,o),
(72,618,o),
(89,641,c),
(124,685,o),
(177,710,o),
(248,710,cs),
(287,710,o),
(320,703,o),
(347,688,cs),
(402,658,o),
(433,603,o),
(433,531,cs),
(433,492,o),
(425,459,o),
(410,430,c),
(378,373,o),
(319,338,o),
(232,330,c)
);
},
{
closed = 1;
nodes = (
(204,-5,o),
(194,4,o),
(194,20,cs),
(194,28,ls),
(194,44,o),
(204,53,o),
(221,53,cs),
(240,53,o),
(248,44,o),
(248,28,cs),
(248,20,ls),
(248,4,o),
(238,-5,o),
(221,-5,cs)
);
}
);
width = 481;
}
);
unicode = 63;
}
{
glyphname = at;
layers = (
{
layerId = "7AA3F0E6-41A7-43FF-9A92-631D90721C2F";
shapes = (
{
closed = 1;
nodes = (
(667,-33,l),
(667,-121,l),
(457,-121,ls),
(373,-121,o),
(301,-104,o),
(241,-69,cs),
(121,0,o),
(56,128,o),
(56,291,cs),
(56,372,o),
(72,445,o),
(105,508,cs),
(170,634,o),
(293,709,o),
(457,709,cs),
(572,709,o),
(667,674,o),
(735,608,cs),
(803,542,o),
(841,450,o),
(841,335,cs),
(841,282,o),
(833,237,o),
(818,199,cs),
(787,123,o),
(730,82,o),
(654,82,cs),
(582,82,o),
(533,120,o),
(529,176,c),
(524,176,l),
(517,149,o),
(505,127,o),
(487,110,cs),
(468,93,o),
(442,84,o),
(409,84,cs),
(380,84,o),
(353,92,o),
(330,108,cs),
(283,139,o),
(255,200,o),
(255,291,cs),
(255,336,o),
(262,374,o),
(275,405,cs),
(302,466,o),
(350,498,o),
(409,498,cs),
(464,498,o),
(500,464,o),
(512,420,c),
(517,420,l),
(517,489,l),
(628,489,l),
(628,220,ls),
(628,187,o),
(644,170,o),
(672,170,cs),
(717,170,o),
(748,219,o),
(748,320,cs),
(748,348,ls),
(748,405,o),
(736,454,o),
(711,495,cs),
(661,576,o),
(570,622,o),
(457,622,cs),
(364,622,o),
(287,590,o),
(233,534,cs),
(179,478,o),
(149,401,o),
(149,310,cs),
(149,272,ls),
(149,181,o),
(179,106,o),
(233,52,cs),
(287,-3,o),
(364,-33,o),
(457,-33,cs)
);
},
{
closed = 1;
nodes = (
(461,175,o),
(472,178,o),
(483,184,cs),
(503,196,o),
(517,217,o),
(517,237,cs),
(517,353,ls),
(517,364,o),
(514,373,o),
(508,381,cs),
(495,397,o),
(474,407,o),
(450,407,cs),
(402,407,o),
(371,373,o),
(371,325,cs),
(371,257,ls),
(371,209,o),
(402,175,o),
(450,175,cs)
);
}
);
width = 893;
},
{
layerId = "8E9CA4E0-9900-4C00-AB62-7898C7C10EDA";
shapes = (
{
closed = 1;
nodes = (
(678,-55,l),
(678,-121,l),
(450,-121,ls),
(372,-121,o),
(304,-104,o),
(246,-70,cs),
(130,-2,o),
(64,125,o),
(64,289,cs),
(64,371,o),
(80,444,o),
(113,507,cs),
(177,633,o),
(298,708,o),
(457,708,cs),
(556,708,o),
(648,679,o),
(717,617,cs),
(786,555,o),
(830,460,o),
(830,325,cs),
(830,278,o),
(824,235,o),
(812,197,cs),
(788,121,o),
(736,71,o),
(653,71,cs),
(589,71,o),
(553,107,o),
(548,159,c),
(544,159,l),
(532,132,o),
(516,111,o),
(497,96,cs),
(478,80,o),
(452,72,o),
(421,72,cs),
(391,72,o),
(363,80,o),
(337,96,cs),
(285,128,o),
(251,193,o),
(251,289,cs),
(251,338,o),
(259,379,o),
(275,411,cs),
(306,475,o),
(361,507,o),
(421,507,cs),
(481,507,o),
(517,473,o),
(533,430,c),
(537,430,l),
(537,498,l),
(614,498,l),
(614,201,ls),
(614,152,o),
(632,138,o),
(667,138,cs),
(727,138,o),
(759,203,o),
(759,312,cs),
(759,354,ls),
(759,413,o),
(746,464,o),
(719,507,cs),
(666,593,o),
(571,643,o),
(456,643,cs),
(361,643,o),
(281,609,o),
(225,550,cs),
(168,491,o),
(136,411,o),
(136,319,cs),
(136,264,ls),
(136,169,o),
(167,91,o),
(223,35,cs),
(278,-22,o),
(356,-55,o),
(451,-55,cs)
);
},
{
closed = 1;
nodes = (
(461,143,o),
(479,147,o),
(494,154,c),
(522,169,o),
(537,196,o),
(537,232,cs),
(537,353,ls),
(537,369,o),
(534,383,o),
(527,396,cs),
(513,420,o),
(484,436,o),
(440,436,cs),
(375,436,o),
(341,393,o),
(341,328,cs),
(341,251,ls),
(341,186,o),
(375,143,o),
(440,143,cs)
);
}
);
width = 893;
},
{
layerId = "43C84C2D-48F1-4CCB-8D92-E3AB8A629B7A";
shapes = (
{
closed = 1;
nodes = (
(682,-103,l),
(682,-121,l),
(446,-121,ls),
(377,-121,o),
(315,-105,o),
(259,-72,cs),
(147,-7,o),
(76,120,o),
(76,300,cs),
(76,385,o),
(92,458,o),
(125,519,cs),
(190,642,o),
(308,710,o),
(448,710,cs),
(548,710,o),
(640,677,o),
(708,613,cs),
(775,548,o),
(816,453,o),
(816,330,cs),
(816,282,o),
(811,238,o),
(802,199,cs),
(782,119,o),
(742,69,o),
(674,69,cs),
(622,69,o),
(586,101,o),
(581,148,c),
(578,148,l),
(569,129,o),
(553,112,o),
(531,95,cs),
(508,78,o),
(479,69,o),
(442,69,cs),
(406,69,o),
(375,77,o),
(350,94,c),
(298,126,o),
(270,191,o),
(270,287,cs),
(270,336,o),
(277,377,o),
(291,410,cs),
(318,475,o),
(370,508,o),
(442,508,cs),
(515,508,o),
(560,470,o),
(577,433,c),
(580,433,l),
(580,496,l),
(600,496,l),
(600,163,ls),
(600,119,o),
(629,87,o),
(674,87,cs),
(746,87,o),
(794,168,o),
(794,305,cs),
(794,352,ls),
(794,421,o),
(779,480,o),
(748,531,cs),
(687,632,o),
(579,692,o),
(448,692,cs),
(348,692,o),
(261,654,o),
(198,589,cs),
(135,524,o),
(98,433,o),
(98,326,cs),
(98,274,ls),
(98,162,o),
(134,69,o),
(197,2,cs),
(260,-65,o),
(346,-103,o),
(446,-103,cs)
);
},
{
closed = 1;
nodes = (
(467,87,o),
(489,92,o),
(510,103,cs),
(551,123,o),
(580,163,o),
(580,212,cs),
(580,362,ls),
(580,388,o),
(574,411,o),
(561,430,cs),
(535,468,o),
(491,490,o),
(442,490,cs),
(345,490,o),
(292,421,o),
(292,306,cs),
(292,268,ls),
(292,157,o),
(345,87,o),
(442,87,cs)
);
}
);
width = 893;
}
);
unicode = 64;
}
{
glyphname = A;
layers = (
{
anchors = (
{
name = t.ring;
position = "{321, 698}";
},
{
name = b.cedilla_2;
position = "{321, 0}";
},
{
name = b.ogonek_3;
position = "{647, 0}";
}
);
layerId = "60C5F73C-DCC8-4257-9908-C46676B4F2D6";
name = "#instance";
shapes = (
{
closed = 1;
nodes = (
(647,0,l),
(489,0,l),
(439,166,l),
(206,166,l),
(156,0,l),
(2,0,l),
(232,698,l),
(420,698,l)
);
},
{
closed = 1;
nodes = (
(402,295,l),
(359,440,l),
(324,560,l),
(319,560,l),
(285,440,l),
(242,295,l)
);
}
);
width = 649;
},
{
anchors = (
{
name = t.ring;
position = "{321, 698}";
},
{
name = b.cedilla_2;
position = "{321, 0}";
},
{
name = b.ogonek_3;
position = "{647, 0}";
}
);
layerId = "7AA3F0E6-41A7-43FF-9A92-631D90721C2F";
shapes = (
{
closed = 1;
nodes = (
(647,0,l),
(489,0,l),
(439,166,l),
(206,166,l),
(156,0,l),
(2,0,l),
(232,698,l),
(420,698,l)
);
},
{
closed = 1;
nodes = (
(402,295,l),
(359,440,l),
(324,560,l),
(319,560,l),
(285,440,l),
(242,295,l)
);
}
);
width = 649;
},
{
anchors = (
{
name = t.ring;
position = "{339, 698}";
},
{
name = b.cedilla_2;
position = "{339, 0}";
},
{
name = b.ogonek_3;
position = "{665, 0}";
}
);
layerId = "8E9CA4E0-9900-4C00-AB62-7898C7C10EDA";
shapes = (
{
closed = 1;
nodes = (
(627,0,l),
(526,0,l),
(459,198,l),
(187,198,l),
(121,0,l),
(22,0,l),
(264,698,l),
(386,698,l)
);
},
{
closed = 1;
nodes = (
(435,283,l),
(356,515,l),
(325,609,l),
(320,609,l),
(289,515,l),
(210,283,l)
);
}
);
width = 649;
},
{
anchors = (
{
name = t.ring;
position = "{340, 698}";
},
{
name = b.cedilla_2;
position = "{347, 0}";
},
{
name = b.ogonek_3;
position = "{627, 0}";
}
);
layerId = "43C84C2D-48F1-4CCB-8D92-E3AB8A629B7A";
shapes = (
{
closed = 1;
nodes = (
(592,0,l),
(569,0,l),
(484,234,l),
(164,234,l),
(79,0,l),
(56,0,l),
(309,698,l),
(339,698,l)
);
},
{
closed = 1;
nodes = (
(477,253,l),
(380,524,l),
(325,675,l),
(322,675,l),
(268,524,l),
(171,253,l)
);
}
);
width = 649;
}
);
leftKerningGroup = A2;
rightKerningGroup = A;
unicode = 65;
}
{
glyphname = B;
layers = (
{
anchors = (
{
name = t.ring;
position = "{347, 698}";
},
{
name = b.cedilla_2;
position = "{347, 0}";
}
);
layerId = "7AA3F0E6-41A7-43FF-9A92-631D90721C2F";
shapes = (
{
closed = 1;
nodes = (
(71,0,l),
(71,698,l),
(410,698,ls),
(525,698,o),
(594,627,o),
(594,519,cs),
(594,484,o),
(588,455,o),
(577,434,cs),
(553,390,o),
(512,372,o),
(464,369,c),
(464,363,l),
(497,363,o),
(535,351,o),
(567,326,cs),
(599,301,o),
(621,259,o),
(621,199,cs),
(621,162,o),
(613,129,o),
(598,99,c),
(566,39,o),
(510,0,o),
(441,0,cs)
);
},
{
closed = 1;
nodes = (
(223,288,l),
(223,128,l),
(398,128,ls),
(411,128,o),
(423,131,o),
(433,136,cs),
(452,146,o),
(463,164,o),
(463,191,cs),
(463,225,ls),
(463,238,o),
(460,250,o),
(455,259,cs),
(444,278,o),
(425,288,o),
(398,288,cs)
);
},
{
closed = 1;
nodes = (
(223,570,l),
(223,412,l),
(374,412,ls),
(387,412,o),
(399,415,o),
(409,420,cs),
(428,430,o),
(438,449,o),
(438,476,cs),
(438,506,ls),
(438,519,o),
(436,531,o),
(431,541,cs),
(421,560,o),
(401,570,o),
(374,570,cs)
);
}
);
width = 656;
},
{
anchors = (
{
name = t.ring;
position = "{353, 698}";
},
{
name = b.cedilla_2;
position = "{353, 0}";
}
);
layerId = "8E9CA4E0-9900-4C00-AB62-7898C7C10EDA";
shapes = (
{
closed = 1;
nodes = (
(90,0,l),
(90,698,l),
(387,698,ls),
(502,698,o),
(572,627,o),
(572,518,cs),
(572,483,o),
(566,456,o),
(554,435,cs),
(530,393,o),
(491,374,o),
(456,370,c),
(456,364,l),
(483,363,o),
(518,350,o),
(547,325,cs),
(576,300,o),
(597,261,o),
(597,201,cs),
(597,164,o),
(589,130,o),
(574,99,c),
(542,38,o),
(486,0,o),
(417,0,cs)
);
},
{
closed = 1;
nodes = (
(187,317,l),
(187,84,l),
(388,84,ls),
(410,84,o),
(429,88,o),
(445,96,cs),
(476,111,o),
(494,141,o),
(494,184,cs),
(494,218,ls),
(494,239,o),
(490,257,o),
(481,272,cs),
(464,301,o),
(432,317,o),
(388,317,cs)
);
},
{
closed = 1;
nodes = (
(187,614,l),
(187,399,l),
(372,399,ls),
(392,399,o),
(409,403,o),
(424,410,cs),
(453,425,o),
(470,451,o),
(470,490,cs),
(470,523,ls),
(470,542,o),
(466,559,o),
(458,572,cs),
(442,599,o),
(412,614,o),
(372,614,cs)
);
}
);
width = 656;
},
{
anchors = (
{
name = t.ring;
position = "{365, 698}";
},
{
name = b.cedilla_2;
position = "{365, 0}";
}
);
layerId = "43C84C2D-48F1-4CCB-8D92-E3AB8A629B7A";
shapes = (
{
closed = 1;
nodes = (
(128,0,l),
(128,698,l),
(380,698,ls),
(479,698,o),
(538,639,o),
(538,528,cs),
(538,499,o),
(534,475,o),
(527,454,c),
(511,412,o),
(481,384,o),
(440,371,c),
(440,369,l),
(484,361,o),
(516,341,o),
(538,310,cs),
(560,279,o),
(570,238,o),
(570,189,cs),
(570,151,o),
(564,118,o),
(551,90,cs),
(525,33,o),
(472,0,o),
(396,0,cs)
);
},
{
closed = 1;
nodes = (
(150,358,l),
(150,20,l),
(396,20,ls),
(431,20,o),
(459,27,o),
(481,41,cs),
(525,69,o),
(546,117,o),
(546,168,cs),
(546,210,ls),
(546,235,o),
(541,259,o),
(530,282,cs),
(509,327,o),
(465,358,o),
(396,358,cs)
);
},
{
closed = 1;
nodes = (
(150,678,l),
(150,378,l),
(380,378,ls),
(411,378,o),
(436,384,o),
(456,397,cs),
(495,421,o),
(514,463,o),
(514,507,cs),
(514,549,ls),
(514,572,o),
(509,593,o),
(500,612,cs),
(480,651,o),
(441,678,o),
(380,678,cs)
);
}
);
width = 656;
}
);
unicode = 66;
}
{
glyphname = C;
layers = (
{
anchors = (
{
name = t.ring;
position = "{343, 698}";
},
{
name = b.cedilla_2;
position = "{323, 0}";
}
);
layerId = "60C5F73C-DCC8-4257-9908-C46676B4F2D6";
name = "#instance";
shapes = (
{
closed = 1;
nodes = (
(284,-12,o),
(230,1,o),
(184,28,cs),
(91,81,o),
(38,187,o),
(38,344,cs),
(38,423,o),
(51,489,o),
(76,544,cs),
(127,652,o),
(222,710,o),
(347,710,cs),
(475,710,o),
(557,658,o),
(608,546,c),
(477,478,l),
(460,537,o),
(422,575,o),
(347,575,cs),
(302,575,o),
(267,561,o),
(240,532,cs),
(213,503,o),
(199,460,o),
(199,405,cs),
(199,293,ls),
(199,184,o),
(258,123,o),
(347,123,cs),
(422,123,o),
(465,170,o),
(486,227,c),
(610,155,l),
(558,50,o),
(475,-12,o),
(347,-12,cs)
);
}
);
width = 627;
},
{
anchors = (
{
name = t.ring;
position = "{343, 698}";
},
{
name = b.cedilla_2;
position = "{323, 0}";
}
);
layerId = "7AA3F0E6-41A7-43FF-9A92-631D90721C2F";
shapes = (
{
closed = 1;
nodes = (
(284,-12,o),
(230,1,o),
(184,28,cs),
(91,81,o),
(38,187,o),
(38,344,cs),
(38,423,o),
(51,489,o),
(76,544,cs),
(127,652,o),
(222,710,o),
(347,710,cs),
(475,710,o),
(557,658,o),
(608,546,c),
(477,478,l),
(460,537,o),
(422,575,o),
(347,575,cs),
(302,575,o),
(267,561,o),
(240,532,cs),
(213,503,o),
(199,460,o),
(199,405,cs),
(199,293,ls),
(199,184,o),
(258,123,o),
(347,123,cs),
(422,123,o),
(465,170,o),
(486,227,c),
(610,155,l),
(558,50,o),
(475,-12,o),
(347,-12,cs)
);
}
);
width = 627;
},
{
anchors = (
{
name = t.ring;
position = "{355, 698}";
},
{
name = b.cedilla_2;
position = "{335, 0}";
}
);
layerId = "8E9CA4E0-9900-4C00-AB62-7898C7C10EDA";
shapes = (
{
closed = 1;
nodes = (
(284,-12,o),
(233,2,o),
(190,29,cs),
(104,83,o),
(56,189,o),
(56,345,cs),
(56,423,o),
(68,489,o),
(91,544,cs),
(137,652,o),
(224,710,o),
(343,710,cs),
(462,710,o),
(542,655,o),
(587,555,c),
(507,509,l),
(480,578,o),
(427,624,o),
(343,624,cs),
(286,624,o),
(241,604,o),
(209,563,cs),
(176,522,o),
(160,467,o),
(160,399,cs),
(160,293,ls),
(160,157,o),
(228,74,o),
(343,74,cs),
(430,74,o),
(486,124,o),
(513,196,c),
(591,149,l),
(546,49,o),
(462,-12,o),
(343,-12,cs)
);
}
);
width = 627;
},
{
anchors = (
{
name = t.ring;
position = "{354, 698}";
},
{
name = b.cedilla_2;
position = "{334, 0}";
}
);
layerId = "43C84C2D-48F1-4CCB-8D92-E3AB8A629B7A";
shapes = (
{
closed = 1;
nodes = (
(282,-12,o),
(236,2,o),
(197,29,cs),
(120,83,o),
(78,189,o),
(78,349,cs),
(78,429,o),
(88,496,o),
(109,550,cs),
(149,657,o),
(228,710,o),
(337,710,cs),
(440,710,o),
(516,652,o),
(553,567,c),
(534,558,l),
(498,641,o),
(428,690,o),
(337,690,cs),
(264,690,o),
(207,664,o),
(165,611,cs),
(123,558,o),
(102,477,o),
(102,370,cs),
(102,328,ls),
(102,113,o),
(192,8,o),
(337,8,cs),
(436,8,o),
(506,61,o),
(539,148,c),
(558,140,l),
(522,49,o),
(444,-12,o),
(337,-12,cs)
);
}
);
width = 627;
}
);
leftKerningGroup = C2;
rightKerningGroup = C;
unicode = 67;
}
{
glyphname = D;
layers = (
{
anchors = (
{
name = t.ring;
position = "{312, 698}";
},
{
name = b.cedilla_2;
position = "{312, 0}";
}
);
layerId = "7AA3F0E6-41A7-43FF-9A92-631D90721C2F";
shapes = (
{
closed = 1;
nodes = (
(66,0,l),
(66,698,l),
(329,698,ls),
(391,698,o),
(445,685,o),
(491,659,cs),
(583,607,o),
(636,504,o),
(636,349,cs),
(636,272,o),
(623,207,o),
(598,156,cs),
(547,52,o),
(453,0,o),
(329,0,cs)
);
},
{
closed = 1;
nodes = (
(218,135,l),
(329,135,ls),
(359,135,o),
(385,141,o),
(407,152,cs),
(451,175,o),
(475,222,o),
(475,295,cs),
(475,403,ls),
(475,440,o),
(469,471,o),
(458,494,cs),
(434,541,o),
(389,563,o),
(329,563,cs),
(218,563,l)
);
}
);
width = 676;
},
{
anchors = (
{
name = t.ring;
position = "{323, 698}";
},
{
name = b.cedilla_2;
position = "{323, 0}";
}
);
layerId = "8E9CA4E0-9900-4C00-AB62-7898C7C10EDA";
shapes = (
{
closed = 1;
nodes = (
(90,0,l),
(90,698,l),
(329,698,ls),
(388,698,o),
(440,685,o),
(483,660,cs),
(570,608,o),
(619,505,o),
(619,349,cs),
(619,271,o),
(607,206,o),
(584,155,cs),
(536,51,o),
(448,0,o),
(329,0,cs)
);
},
{
closed = 1;
nodes = (
(187,86,l),
(329,86,ls),
(366,86,o),
(399,94,o),
(427,110,cs),
(483,142,o),
(516,204,o),
(516,293,cs),
(516,405,ls),
(516,450,o),
(508,488,o),
(493,519,cs),
(461,581,o),
(404,612,o),
(329,612,cs),
(187,612,l)
);
}
);
width = 676;
},
{
anchors = (
{
name = t.ring;
position = "{324, 698}";
},
{
name = b.cedilla_2;
position = "{324, 0}";
}
);
layerId = "43C84C2D-48F1-4CCB-8D92-E3AB8A629B7A";
shapes = (
{
closed = 1;
nodes = (
(117,0,l),
(117,698,l),
(321,698,ls),
(383,698,o),
(435,685,o),
(476,659,cs),
(558,607,o),
(597,504,o),
(597,349,cs),
(597,272,o),
(587,208,o),
(567,156,cs),
(527,52,o),
(445,0,o),
(321,0,cs)
);
},
{
closed = 1;
nodes = (
(139,20,l),
(322,20,ls),
(380,20,o),
(428,32,o),
(465,57,cs),
(539,106,o),
(573,199,o),
(573,319,cs),
(573,379,ls),
(573,440,o),
(564,492,o),
(547,537,cs),
(511,626,o),
(438,678,o),
(322,678,cs),
(139,678,l)
);
}
);
width = 676;
}
);
rightKerningGroup = D;
unicode = 68;
}
{
glyphname = E;
layers = (
{
anchors = (
{
name = t.ring;
position = "{305, 698}";
},
{
name = b.cedilla_2;
position = "{305, 0}";
},
{
name = b.ogonek_3;
position = "{542, 0}";
}
);
layerId = "7AA3F0E6-41A7-43FF-9A92-631D90721C2F";
shapes = (
{
closed = 1;
nodes = (
(542,0,l),
(67,0,l),
(67,698,l),
(542,698,l),
(542,563,l),
(219,563,l),
(219,420,l),
(496,420,l),
(496,286,l),
(219,286,l),
(219,135,l),
(542,135,l)
);
}
);
width = 588;
},
{
anchors = (
{
name = t.ring;
position = "{315, 698}";
},
{
name = b.cedilla_2;
position = "{315, 0}";
},
{
name = b.ogonek_3;
position = "{552, 0}";
}
);
layerId = "8E9CA4E0-9900-4C00-AB62-7898C7C10EDA";
shapes = (
{
closed = 1;
nodes = (
(525,0,l),
(90,0,l),
(90,698,l),
(525,698,l),
(525,612,l),
(187,612,l),
(187,396,l),
(500,396,l),
(500,310,l),
(187,310,l),
(187,86,l),
(525,86,l)
);
}
);
width = 588;
},
{
anchors = (
{
name = t.ring;
position = "{323, 698}";
},
{
name = b.cedilla_2;
position = "{323, 0}";
},
{
name = b.ogonek_3;
position = "{533, 0}";
}
);
layerId = "43C84C2D-48F1-4CCB-8D92-E3AB8A629B7A";
shapes = (
{
closed = 1;
nodes = (
(502,0,l),
(121,0,l),
(121,698,l),
(502,698,l),
(502,678,l),
(143,678,l),
(143,364,l),
(490,364,l),
(490,344,l),
(143,344,l),
(143,20,l),
(502,20,l)
);
}
);
width = 588;
}
);
rightKerningGroup = E;
unicode = 69;
}
{
glyphname = F;
layers = (
{
anchors = (
{
name = t.ring;
position = "{298, 698}";
},
{
name = b.cedilla_2;
position = "{305, 0}";
}
);
layerId = "9A8FE613-2BB2-428D-A7DB-46DFB705B86D";
shapes = (
{
closed = 1;
nodes = (
(218,0,l),
(66,0,l),
(66,698,l),
(529,698,l),
(529,563,l),
(218,563,l),
(218,420,l),
(483,420,l),
(483,286,l),
(218,286,l)
);
}
);
width = 564;
},
{
anchors = (
{
name = t.ring;
position = "{309, 698}";
},
{
name = b.cedilla_2;
position = "{316, 0}";
}
);
layerId = "1513CFE8-5A13-42D2-8271-7D7365DF70DB";
shapes = (
{
closed = 1;
nodes = (
(187,0,l),
(90,0,l),
(90,698,l),
(515,698,l),
(515,612,l),
(187,612,l),
(187,396,l),
(483,396,l),
(483,310,l),
(187,310,l)
);
}
);
width = 564;
},
{
anchors = (
{
name = t.ring;
position = "{316, 698}";
},
{
name = b.cedilla_2;
position = "{330, 0}";
}
);
layerId = "1F8C5CD1-3431-41E3-A60F-01FCBC1C5BC1";
shapes = (
{
closed = 1;
nodes = (
(144,0,l),
(122,0,l),
(122,698,l),
(495,698,l),
(495,678,l),
(144,678,l),
(144,364,l),
(481,364,l),
(481,344,l),
(144,344,l)
);
}
);
width = 564;
}
);
unicode = 70;
}
{
glyphname = G;
layers = (
{
anchors = (
{
name = t.ring;
position = "{348, 698}";
},
{
name = b.cedilla_2;
position = "{339, 0}";
}
);
layerId = "9A8FE613-2BB2-428D-A7DB-46DFB705B86D";
shapes = (
{
closed = 1;
nodes = (
(39,589,o),
(176,710,o),
(356,710,cs),
(523,710,o),
(588,618,o),
(630,541,c),
(495,479,l),
(478,532,o),
(436,577,o),
(360,577,cs),
(262,577,o),
(211,502,o),
(211,409,cs),
(211,290,ls),
(211,156,o),
(287,121,o),
(353,121,cs),
(423,121,o),
(484,158,o),
(484,241,cs),
(484,262,l),
(319,262,l),
(319,395,l),
(640,395,l),
(640,246,ls),
(640,58,o),
(463,-12,o),
(340,-12,cs),
(148,-12,o),
(39,143,o),
(39,349,cs)
);
}
);
width = 700;
},
{
anchors = (
{
name = t.ring;
position = "{358, 698}";
},
{
name = b.cedilla_2;
position = "{350, 0}";
}
);
layerId = "1513CFE8-5A13-42D2-8271-7D7365DF70DB";
shapes = (
{
closed = 1;
nodes = (
(59,587,o),
(171,710,o),
(356,710,cs),
(486,710,o),
(570,643,o),
(613,552,c),
(530,507,l),
(505,575,o),
(449,624,o),
(357,624,cs),
(236,624,o),
(167,536,o),
(167,404,cs),
(167,301,ls),
(167,164,o),
(226,74,o),
(359,74,cs),
(457,74,o),
(529,130,o),
(529,234,cs),
(529,279,l),
(342,279,l),
(342,366,l),
(627,366,l),
(627,255,ls),
(627,61,o),
(484,-12,o),
(348,-12,cs),
(184,-12,o),
(59,99,o),
(59,349,cs)
);
}
);
width = 700;
},
{
anchors = (
{
name = t.ring;
position = "{360, 698}";
},
{
name = b.cedilla_2;
position = "{358, 0}";
}
);
layerId = "1F8C5CD1-3431-41E3-A60F-01FCBC1C5BC1";
shapes = (
{
closed = 1;
nodes = (
(93,596,o),
(196,710,o),
(359,710,cs),
(471,710,o),
(549,650,o),
(586,571,c),
(566,562,l),
(524,656,o),
(440,689,o),
(359,689,cs),
(218,689,o),
(118,594,o),
(118,371,cs),
(118,327,ls),
(118,96,o),
(228,9,o),
(360,9,cs),
(480,9,o),
(580,74,o),
(580,202,cs),
(580,312,l),
(358,312,l),
(358,332,l),
(603,332,l),
(603,202,ls),
(603,72,o),
(508,-12,o),
(360,-12,cs),
(193,-12,o),
(93,105,o),
(93,349,cs)
);
}
);
width = 700;
}
);
leftKerningGroup = C2;
rightKerningGroup = G;
unicode = 71;
}
{
glyphname = H;
layers = (
{
anchors = (
{
name = t.ring;
position = "{355, 698}";
},
{
name = b.cedilla_2;
position = "{355, 0}";
}
);
layerId = "7AA3F0E6-41A7-43FF-9A92-631D90721C2F";
shapes = (
{
closed = 1;
nodes = (
(488,0,l),
(488,286,l),
(222,286,l),
(222,0,l),
(70,0,l),
(70,698,l),
(222,698,l),
(222,420,l),
(488,420,l),
(488,698,l),
(640,698,l),
(640,0,l)
);
}
);
width = 710;
},
{
anchors = (
{
name = t.ring;
position = "{362, 698}";
},
{
name = b.cedilla_2;
position = "{362, 0}";
}
);
layerId = "8E9CA4E0-9900-4C00-AB62-7898C7C10EDA";
shapes = (
{
closed = 1;
nodes = (
(523,0,l),
(523,310,l),
(187,310,l),
(187,0,l),
(90,0,l),
(90,698,l),
(187,698,l),
(187,396,l),
(523,396,l),
(523,698,l),
(620,698,l),
(620,0,l)
);
}
);
width = 710;
},
{
anchors = (
{
name = t.ring;
position = "{363, 698}";
},
{
name = b.cedilla_2;
position = "{363, 0}";
}
);
layerId = "43C84C2D-48F1-4CCB-8D92-E3AB8A629B7A";
shapes = (
{
closed = 1;
nodes = (
(571,0,l),
(571,344,l),
(139,344,l),
(139,0,l),
(117,0,l),
(117,698,l),
(139,698,l),
(139,364,l),
(571,364,l),
(571,698,l),
(593,698,l),
(593,0,l)
);
}
);
width = 710;
}
);
unicode = 72;
}
{
glyphname = I;
layers = (
{
anchors = (
{
name = b.uni0327;
position = "{137, 0}";
},
{
name = b.uni0328;
position = "{213, 0}";
},
{
name = t.uni0303;
position = "{137, 698}";
}
);
hints = (
{
horizontal = 1;
place = (0,121);
type = Stem;
},
{
horizontal = 1;
place = (577,121);
type = Stem;
},
{
place = (61,152);
type = Stem;
}
);
layerId = "9A8FE613-2BB2-428D-A7DB-46DFB705B86D";
shapes = (
{
closed = 1;
nodes = (
(213,0,l),
(213,698,l),
(61,698,l),
(61,0,l)
);
}
);
width = 274;
},
{
anchors = (
{
name = b.uni0327;
position = "{136, 0}";
},
{
name = b.uni0328;
position = "{185, 0}";
},
{
name = t.uni0303;
position = "{136, 698}";
}
);
hints = (
{
horizontal = 1;
place = (0,82);
type = Stem;
},
{
horizontal = 1;
place = (616,82);
type = Stem;
},
{
place = (88,97);
type = Stem;
}
);
layerId = "1513CFE8-5A13-42D2-8271-7D7365DF70DB";
shapes = (
{
closed = 1;
nodes = (
(185,0,l),
(185,698,l),
(88,698,l),
(88,0,l)
);
}
);
width = 274;
},
{
anchors = (
{
name = b.uni0327;
position = "{136, 0}";
},
{
name = b.uni0328;
position = "{148, 0}";
},
{
name = t.uni0303;
position = "{136, 698}";
}
);
hints = (
{
horizontal = 1;
place = (0,19);
type = Stem;
},
{
horizontal = 1;
place = (679,19);
type = Stem;
},
{
place = (126,22);
type = Stem;
}
);
layerId = "1F8C5CD1-3431-41E3-A60F-01FCBC1C5BC1";
shapes = (
{
closed = 1;
nodes = (
(148,0,l),
(148,698,l),
(126,698,l),
(126,0,l)
);
}
);
width = 274;
}
);
leftKerningGroup = I2;
rightKerningGroup = I;
unicode = 73;
}
{
glyphname = J;
layers = (
{
anchors = (
{
name = b.uni0327;
position = "{236, 0}";
},
{
name = t.uni0303;
position = "{385, 698}";
}
);
hints = (
{
horizontal = 1;
place = (-11,133);
type = Stem;
},
{
horizontal = 1;
place = (576,122);
type = Stem;
},
{
place = (314,152);
type = Stem;
}
);
layerId = "7AA3F0E6-41A7-43FF-9A92-631D90721C2F";
shapes = (
{
closed = 1;
nodes = (
(314,698,l),
(314,209,ls),
(314,149,o),
(278,122,o),
(234,122,cs),
(187,122,o),
(158,154,o),
(147,213,c),
(5,185,l),
(25,68,o),
(98,-11,o),
(236,-11,cs),
(380,-11,o),
(466,74,o),
(466,202,cs),
(466,698,l)
);
}
);
width = 519;
},
{
anchors = (
{
name = b.uni0327;
position = "{231, 0}";
},
{
name = t.uni0303;
position = "{387, 698}";
}
);
hints = (
{
horizontal = 1;
place = (-12,87);
type = Stem;
},
{
horizontal = 1;
place = (612,86);
type = Stem;
},
{
place = (337,97);
type = Stem;
}
);
layerId = "8E9CA4E0-9900-4C00-AB62-7898C7C10EDA";
shapes = (
{
closed = 1;
nodes = (
(337,698,l),
(337,198,ls),
(337,115,o),
(296,75,o),
(230,75,cs),
(163,75,o),
(129,114,o),
(116,174,c),
(27,154,l),
(47,55,o),
(115,-12,o),
(229,-12,cs),
(351,-12,o),
(434,65,o),
(434,185,cs),
(434,698,l)
);
}
);
width = 519;
},
{
anchors = (
{
name = b.uni0327;
position = "{219, 0}";
},
{
name = t.uni0303;
position = "{382, 698}";
}
);
hints = (
{
horizontal = 1;
place = (-12,20);
type = Stem;
},
{
horizontal = 1;
place = (678,20);
type = Stem;
},
{
place = (369,22);
type = Stem;
}
);
layerId = "43C84C2D-48F1-4CCB-8D92-E3AB8A629B7A";
shapes = (
{
closed = 1;
nodes = (
(369,698,l),
(369,183,ls),
(369,71,o),
(319,8,o),
(219,8,cs),
(142,8,o),
(87,56,o),
(68,119,c),
(49,113,l),
(67,39,o),
(136,-12,o),
(219,-12,cs),
(326,-12,o),
(391,55,o),
(391,183,cs),
(391,698,l)
);
}
);
width = 519;
}
);
leftKerningGroup = J2;
rightKerningGroup = J;
unicode = 74;
}
{
glyphname = K;
layers = (
{
anchors = (
{
name = t.ring;
position = "{333, 698}";
},
{
name = b.cedilla_2;
position = "{333, 0}";
}
);
layerId = "7AA3F0E6-41A7-43FF-9A92-631D90721C2F";
shapes = (
{
closed = 1;
nodes = (
(480,0,l),
(295,304,l),
(204,194,l),
(204,0,l),
(52,0,l),
(52,698,l),
(204,698,l),
(204,501,l),
(204,366,l),
(210,366,l),
(309,501,l),
(466,698,l),
(638,698,l),
(403,411,l),
(659,0,l)
);
}
);
width = 646;
},
{
anchors = (
{
name = t.ring;
position = "{358, 698}";
},
{
name = b.cedilla_2;
position = "{358, 0}";
}
);
layerId = "8E9CA4E0-9900-4C00-AB62-7898C7C10EDA";
shapes = (
{
closed = 1;
nodes = (
(507,0,l),
(284,336,l),
(187,226,l),
(187,0,l),
(90,0,l),
(90,698,l),
(187,698,l),
(187,458,l),
(187,334,l),
(190,334,l),
(290,458,l),
(491,698,l),
(607,698,l),
(352,401,l),
(626,0,l)
);
}
);
width = 646;
},
{
anchors = (
{
name = t.ring;
position = "{387, 698}";
},
{
name = b.cedilla_2;
position = "{373, 0}";
}
);
layerId = "43C84C2D-48F1-4CCB-8D92-E3AB8A629B7A";
shapes = (
{
closed = 1;
nodes = (
(563,0,l),
(302,387,l),
(167,239,l),
(167,0,l),
(145,0,l),
(145,698,l),
(167,698,l),
(167,413,l),
(167,271,l),
(169,271,l),
(299,413,l),
(558,698,l),
(586,698,l),
(317,403,l),
(589,0,l)
);
}
);
width = 646;
}
);
rightKerningGroup = K;
unicode = 75;
}
{
glyphname = L;
layers = (
{
anchors = (
{
name = t.ring;
position = "{141, 698}";
},
{
name = t.uni02BC_1;
position = "{289, 740}";
},
{
name = b.cedilla_2;
position = "{274, 0}";
}
);
layerId = "9A8FE613-2BB2-428D-A7DB-46DFB705B86D";
shapes = (
{
closed = 1;
nodes = (
(483,0,l),
(65,0,l),
(65,698,l),
(217,698,l),
(217,135,l),
(483,135,l)
);
}
);
width = 507;
},
{
anchors = (
{
name = t.ring;
position = "{153, 698}";
},
{
name = t.uni02BC_1;
position = "{301, 740}";
},
{
name = b.cedilla_2;
position = "{286, 0}";
}
);
layerId = "1513CFE8-5A13-42D2-8271-7D7365DF70DB";
shapes = (
{
closed = 1;
nodes = (
(478,0,l),
(90,0,l),
(90,698,l),
(187,698,l),
(187,86,l),
(478,86,l)
);
}
);
width = 507;
},
{
anchors = (
{
name = t.ring;
position = "{153, 698}";
},
{
name = t.uni02BC_1;
position = "{292, 740}";
},
{
name = b.cedilla_2;
position = "{296, 0}";
}
);
layerId = "1F8C5CD1-3431-41E3-A60F-01FCBC1C5BC1";
shapes = (
{
closed = 1;
nodes = (
(471,0,l),
(124,0,l),
(124,698,l),
(146,698,l),
(146,20,l),
(471,20,l)
);
}
);
width = 507;
}
);
rightKerningGroup = L;
unicode = 76;
}
{
glyphname = M;
layers = (
{
anchors = (
{
name = t.ring;
position = "{406, 698}";
},
{
name = b.cedilla_2;
position = "{406, 0}";
}
);
layerId = "9A8FE613-2BB2-428D-A7DB-46DFB705B86D";
shapes = (
{
closed = 1;
nodes = (
(74,0,l),
(74,698,l),
(235,698,l),
(328,520,l),
(406,371,l),
(408,371,l),
(485,520,l),
(577,698,l),
(739,698,l),
(739,0,l),
(596,0,l),
(596,350,l),
(596,458,l),
(593,458,l),
(542,356,l),
(406,109,l),
(273,355,l),
(220,465,l),
(217,465,l),
(217,350,l),
(217,0,l)
);
}
);
width = 813;
},
{
anchors = (
{
name = t.ring;
position = "{409, 698}";
},
{
name = b.cedilla_2;
position = "{409, 0}";
}
);
layerId = "1513CFE8-5A13-42D2-8271-7D7365DF70DB";
shapes = (
{
closed = 1;
nodes = (
(90,0,l),
(90,698,l),
(211,698,l),
(336,464,l),
(406,331,l),
(410,331,l),
(481,464,l),
(605,698,l),
(723,698,l),
(723,0,l),
(630,0,l),
(630,448,l),
(630,563,l),
(625,563,l),
(568,449,l),
(407,156,l),
(246,449,l),
(188,565,l),
(184,565,l),
(184,448,l),
(184,0,l)
);
}
);
width = 813;
},
{
anchors = (
{
name = t.ring;
position = "{409, 698}";
},
{
name = b.cedilla_2;
position = "{409, 0}";
}
);
layerId = "1F8C5CD1-3431-41E3-A60F-01FCBC1C5BC1";
shapes = (
{
closed = 1;
nodes = (
(116,0,l),
(116,698,l),
(149,698,l),
(307,438,l),
(405,278,l),
(408,278,l),
(505,438,l),
(663,698,l),
(696,698,l),
(696,0,l),
(675,0,l),
(675,504,l),
(675,673,l),
(672,673,l),
(569,504,l),
(406,236,l),
(243,504,l),
(140,673,l),
(137,673,l),
(137,504,l),
(137,0,l)
);
}
);
width = 813;
}
);
unicode = 77;
}
{
glyphname = N;
layers = (
{
anchors = (
{
name = t.ring;
position = "{354, 698}";
},
{
name = b.cedilla_2;
position = "{354, 0}";
}
);
layerId = "7AA3F0E6-41A7-43FF-9A92-631D90721C2F";
shapes = (
{
closed = 1;
nodes = (
(474,0,l),
(283,330,l),
(216,470,l),
(213,470,l),
(213,324,l),
(213,0,l),
(70,0,l),
(70,698,l),
(236,698,l),
(427,368,l),
(494,228,l),
(497,228,l),
(497,374,l),
(497,698,l),
(640,698,l),
(640,0,l)
);
}
);
width = 710;
},
{
anchors = (
{
name = t.ring;
position = "{361, 698}";
},
{
name = b.cedilla_2;
position = "{361, 0}";
}
);
layerId = "8E9CA4E0-9900-4C00-AB62-7898C7C10EDA";
shapes = (
{
closed = 1;
nodes = (
(510,0,l),
(267,408,l),
(187,560,l),
(184,560,l),
(184,407,l),
(184,0,l),
(90,0,l),
(90,698,l),
(200,698,l),
(443,290,l),
(524,138,l),
(527,138,l),
(527,291,l),
(527,698,l),
(620,698,l),
(620,0,l)
);
}
);
width = 710;
},
{
anchors = (
{
name = t.ring;
position = "{363, 698}";
},
{
name = b.cedilla_2;
position = "{363, 0}";
}
);
layerId = "43C84C2D-48F1-4CCB-8D92-E3AB8A629B7A";
shapes = (
{
closed = 1;
nodes = (
(561,0,l),
(248,501,l),
(141,671,l),
(138,671,l),
(138,501,l),
(138,0,l),
(117,0,l),
(117,698,l),
(149,698,l),
(463,197,l),
(569,27,l),
(572,27,l),
(572,197,l),
(572,698,l),
(593,698,l),
(593,0,l)
);
}
);
width = 710;
}
);
unicode = 78;
}
{
glyphname = O;
layers = (
{
anchors = (
{
name = t.ring;
position = "{354, 698}";
},
{
name = b.cedilla_2;
position = "{354, 0}";
}
);
layerId = "9A8FE613-2BB2-428D-A7DB-46DFB705B86D";
shapes = (
{
closed = 1;
nodes = (
(293,-12,o),
(239,2,o),
(193,29,cs),
(100,84,o),
(47,192,o),
(47,349,cs),
(47,428,o),
(60,495,o),
(85,548,cs),
(136,655,o),
(231,710,o),
(354,710,cs),
(416,710,o),
(470,696,o),
(516,669,cs),
(608,614,o),
(661,508,o),
(661,349,cs),
(661,270,o),
(648,204,o),
(623,151,cs),
(572,43,o),
(478,-12,o),
(354,-12,cs)
);
},
{
closed = 1;
nodes = (
(385,123,o),
(411,130,o),
(433,144,cs),
(476,171,o),
(500,224,o),
(500,297,cs),
(500,401,ls),
(500,438,o),
(494,470,o),
(483,496,c),
(459,547,o),
(415,575,o),
(354,575,cs),
(324,575,o),
(298,568,o),
(276,555,cs),
(232,527,o),
(208,476,o),
(208,401,cs),
(208,297,ls),
(208,260,o),
(214,229,o),
(226,203,cs),
(249,151,o),
(294,123,o),
(354,123,cs)
);
}
);
width = 709;
},
{
anchors = (
{
name = t.ring;
position = "{357, 698}";
},
{
name = b.cedilla_2;
position = "{357, 0}";
}
);
layerId = "1513CFE8-5A13-42D2-8271-7D7365DF70DB";
shapes = (
{
closed = 1;
nodes = (
(294,-12,o),
(242,2,o),
(197,30,cs),
(108,85,o),
(56,193,o),
(56,349,cs),
(56,427,o),
(68,493,o),
(93,547,cs),
(142,654,o),
(234,710,o),
(355,710,cs),
(415,710,o),
(467,696,o),
(512,669,cs),
(601,613,o),
(653,505,o),
(653,349,cs),
(653,271,o),
(641,205,o),
(616,152,cs),
(567,44,o),
(475,-12,o),
(355,-12,cs)
);
},
{
closed = 1;
nodes = (
(394,74,o),
(428,83,o),
(457,101,cs),
(515,137,o),
(549,204,o),
(549,292,cs),
(549,406,ls),
(549,450,o),
(541,488,o),
(525,521,cs),
(492,586,o),
(432,624,o),
(355,624,cs),
(316,624,o),
(283,615,o),
(254,597,cs),
(196,561,o),
(160,494,o),
(160,406,cs),
(160,292,ls),
(160,248,o),
(168,210,o),
(185,177,cs),
(218,112,o),
(278,74,o),
(355,74,cs)
);
}
);
width = 709;
},
{
anchors = (
{
name = t.ring;
position = "{357, 698}";
},
{
name = b.cedilla_2;
position = "{357, 0}";
}
);
layerId = "1F8C5CD1-3431-41E3-A60F-01FCBC1C5BC1";
shapes = (
{
closed = 1;
nodes = (
(296,-12,o),
(247,2,o),
(207,29,cs),
(127,83,o),
(84,189,o),
(84,349,cs),
(84,429,o),
(95,496,o),
(116,550,cs),
(158,657,o),
(238,710,o),
(354,710,cs),
(412,710,o),
(461,697,o),
(501,670,cs),
(581,617,o),
(624,509,o),
(624,349,cs),
(624,269,o),
(614,202,o),
(593,149,cs),
(551,42,o),
(470,-12,o),
(354,-12,cs)
);
},
{
closed = 1;
nodes = (
(405,8,o),
(449,20,o),
(486,44,cs),
(559,92,o),
(600,188,o),
(600,328,cs),
(600,370,ls),
(600,441,o),
(590,500,o),
(571,547,cs),
(531,642,o),
(457,690,o),
(354,690,cs),
(303,690,o),
(260,678,o),
(223,654,cs),
(149,606,o),
(108,511,o),
(108,370,cs),
(108,328,ls),
(108,258,o),
(118,199,o),
(138,152,cs),
(177,56,o),
(253,8,o),
(354,8,cs)
);
}
);
width = 709;
}
);
leftKerningGroup = C2;
rightKerningGroup = O;
unicode = 79;
}
{
glyphname = P;
layers = (
{
anchors = (
{
name = t.ring;
position = "{304, 698}";
},
{
name = b.cedilla_2;
position = "{304, 0}";
}
);
layerId = "7AA3F0E6-41A7-43FF-9A92-631D90721C2F";
shapes = (
{
closed = 1;
nodes = (
(209,0,l),
(57,0,l),
(57,698,l),
(387,698,ls),
(430,698,o),
(468,689,o),
(500,670,cs),
(563,633,o),
(599,563,o),
(599,475,cs),
(599,431,o),
(590,392,o),
(573,359,cs),
(538,292,o),
(474,252,o),
(387,252,cs),
(209,252,l)
);
},
{
closed = 1;
nodes = (
(209,566,l),
(209,384,l),
(369,384,ls),
(384,384,o),
(397,387,o),
(408,392,cs),
(429,403,o),
(442,424,o),
(442,453,cs),
(442,497,ls),
(442,512,o),
(439,525,o),
(433,535,cs),
(421,555,o),
(400,566,o),
(369,566,cs)
);
}
);
width = 616;
},
{
anchors = (
{
name = t.ring;
position = "{324, 698}";
},
{
name = b.cedilla_2;
position = "{324, 0}";
}
);
layerId = "8E9CA4E0-9900-4C00-AB62-7898C7C10EDA";
shapes = (
{
closed = 1;
nodes = (
(187,0,l),
(90,0,l),
(90,698,l),
(378,698,ls),
(420,698,o),
(456,690,o),
(486,673,cs),
(545,640,o),
(576,577,o),
(576,494,cs),
(576,453,o),
(568,417,o),
(553,386,cs),
(522,325,o),
(462,289,o),
(378,289,cs),
(187,289,l)
);
},
{
closed = 1;
nodes = (
(187,613,l),
(187,374,l),
(374,374,ls),
(395,374,o),
(413,378,o),
(428,385,cs),
(457,400,o),
(473,428,o),
(473,468,cs),
(473,519,ls),
(473,539,o),
(469,556,o),
(462,570,c),
(446,598,o),
(417,613,o),
(374,613,cs)
);
}
);
width = 616;
},
{
anchors = (
{
name = t.ring;
position = "{345, 698}";
},
{
name = b.cedilla_2;
position = "{325, 0}";
}
);
layerId = "43C84C2D-48F1-4CCB-8D92-E3AB8A629B7A";
shapes = (
{
closed = 1;
nodes = (
(141,0,l),
(119,0,l),
(119,698,l),
(387,698,ls),
(425,698,o),
(457,690,o),
(483,675,cs),
(535,644,o),
(561,586,o),
(561,510,cs),
(561,472,o),
(555,439,o),
(542,411,cs),
(516,354,o),
(463,322,o),
(387,322,cs),
(141,322,l)
);
},
{
closed = 1;
nodes = (
(141,678,l),
(141,342,l),
(387,342,ls),
(422,342,o),
(450,349,o),
(472,363,cs),
(516,391,o),
(537,438,o),
(537,489,cs),
(537,531,ls),
(537,556,o),
(532,580,o),
(521,603,cs),
(500,647,o),
(456,678,o),
(387,678,cs)
);
}
);
width = 616;
}
);
unicode = 80;
}
{
glyphname = Q;
layers = (
{
anchors = (
{
name = t.ring;
position = "{354, 698}";
},
{
name = b.cedilla_2;
position = "{326, 0}";
}
);
layerId = "9A8FE613-2BB2-428D-A7DB-46DFB705B86D";
shapes = (
{
closed = 1;
nodes = (
(296,226,l),
(446,227,l),
(590,-60,l),
(433,-60,l)
);
},
{
alignment = -1;
ref = O;
}
);
width = 709;
},
{
anchors = (
{
name = t.ring;
position = "{357, 698}";
},
{
name = b.cedilla_2;
position = "{340, 0}";
}
);
layerId = "1513CFE8-5A13-42D2-8271-7D7365DF70DB";
shapes = (
{
closed = 1;
nodes = (
(321,231,l),
(415,231,l),
(573,-80,l),
(474,-80,l)
);
},
{
alignment = -1;
ref = O;
}
);
width = 709;
},
{
anchors = (
{
name = t.ring;
position = "{357, 698}";
},
{
name = b.cedilla_2;
position = "{379, -70}";
}
);
layerId = "1F8C5CD1-3431-41E3-A60F-01FCBC1C5BC1";
shapes = (
{
closed = 1;
nodes = (
(339,235,l),
(364,235,l),
(564,-100,l),
(539,-100,l)
);
},
{
alignment = -1;
ref = O;
}
);
width = 709;
}
);
leftKerningGroup = C2;
rightKerningGroup = O;
unicode = 81;
}
{
glyphname = R;
layers = (
{
anchors = (
{
name = t.ring;
position = "{310, 698}";
},
{
name = b.cedilla_2;
position = "{326, 0}";
}
);
layerId = "9A8FE613-2BB2-428D-A7DB-46DFB705B86D";
shapes = (
{
closed = 1;
nodes = (
(215,256,l),
(215,0,l),
(63,0,l),
(63,698,l),
(394,698,ls),
(437,698,o),
(475,689,o),
(506,670,cs),
(569,633,o),
(605,564,o),
(605,475,cs),
(605,382,o),
(563,306,o),
(478,274,c),
(615,0,l),
(446,0,l),
(324,256,l)
);
},
{
closed = 1;
nodes = (
(215,384,l),
(375,384,ls),
(390,384,o),
(403,387,o),
(414,392,cs),
(435,403,o),
(448,424,o),
(448,453,cs),
(448,497,ls),
(448,512,o),
(445,525,o),
(439,535,cs),
(427,555,o),
(406,566,o),
(375,566,cs),
(215,566,l)
);
}
);
width = 646;
},
{
anchors = (
{
name = t.ring;
position = "{324, 698}";
},
{
name = b.cedilla_2;
position = "{340, 0}";
}
);
layerId = "1513CFE8-5A13-42D2-8271-7D7365DF70DB";
shapes = (
{
closed = 1;
nodes = (
(187,292,l),
(187,0,l),
(90,0,l),
(90,698,l),
(378,698,ls),
(419,698,o),
(455,690,o),
(484,674,cs),
(543,642,o),
(576,582,o),
(576,495,cs),
(576,395,o),
(528,325,o),
(439,302,c),
(594,0,l),
(485,0,l),
(340,292,l)
);
},
{
closed = 1;
nodes = (
(187,374,l),
(374,374,ls),
(395,374,o),
(413,378,o),
(428,385,cs),
(457,400,o),
(473,428,o),
(473,468,cs),
(473,519,ls),
(473,539,o),
(469,556,o),
(462,570,c),
(446,598,o),
(417,613,o),
(374,613,cs),
(187,613,l)
);
}
);
width = 646;
},
{
anchors = (
{
name = t.ring;
position = "{329, 698}";
},
{
name = b.cedilla_2;
position = "{329, 0}";
}
);
layerId = "1F8C5CD1-3431-41E3-A60F-01FCBC1C5BC1";
shapes = (
{
closed = 1;
nodes = (
(138,322,l),
(138,0,l),
(116,0,l),
(116,698,l),
(384,698,ls),
(422,698,o),
(454,690,o),
(480,675,cs),
(532,644,o),
(558,586,o),
(558,510,cs),
(558,397,o),
(498,322,o),
(382,322,c),
(574,0,l),
(549,0,l),
(357,322,l)
);
},
{
closed = 1;
nodes = (
(138,342,l),
(384,342,ls),
(419,342,o),
(447,349,o),
(469,363,cs),
(513,391,o),
(534,438,o),
(534,489,cs),
(534,531,ls),
(534,556,o),
(529,580,o),
(518,603,cs),
(497,647,o),
(453,678,o),
(384,678,cs),
(138,678,l)
);
}
);
width = 646;
}
);
rightKerningGroup = R;
unicode = 82;
}
{
glyphname = S;
layers = (
{
anchors = (
{
name = t.ring;
position = "{292, 698}";
},
{
name = b.cedilla_2;
position = "{292, 0}";
}
);
layerId = "7AA3F0E6-41A7-43FF-9A92-631D90721C2F";
shapes = (
{
closed = 1;
nodes = (
(224,-12,o),
(173,-1,o),
(130,20,cs),
(87,41,o),
(50,68,o),
(20,101,c),
(120,202,l),
(167,149,o),
(227,122,o),
(295,122,cs),
(370,122,o),
(405,155,o),
(405,206,cs),
(405,219,o),
(403,230,o),
(399,241,c),
(390,261,o),
(368,276,o),
(324,281,cs),
(255,290,ls),
(206,297,o),
(166,309,o),
(135,327,cs),
(71,362,o),
(41,421,o),
(41,498,cs),
(41,540,o),
(52,577,o),
(73,609,cs),
(115,672,o),
(194,710,o),
(303,710,cs),
(408,710,o),
(488,675,o),
(545,612,c),
(444,510,l),
(411,549,o),
(366,576,o),
(294,576,cs),
(226,576,o),
(193,551,o),
(193,508,cs),
(193,492,o),
(196,479,o),
(202,469,cs),
(213,449,o),
(237,440,o),
(276,433,cs),
(345,422,ls),
(393,415,o),
(433,402,o),
(464,385,cs),
(527,350,o),
(557,295,o),
(557,215,cs),
(557,170,o),
(547,131,o),
(526,97,cs),
(484,29,o),
(401,-12,o),
(285,-12,cs)
);
}
);
width = 589;
},
{
anchors = (
{
name = t.ring;
position = "{310, 698}";
},
{
name = b.cedilla_2;
position = "{310, 0}";
}
);
layerId = "8E9CA4E0-9900-4C00-AB62-7898C7C10EDA";
shapes = (
{
closed = 1;
nodes = (
(235,-12,o),
(186,-1,o),
(145,21,cs),
(104,42,o),
(70,71,o),
(41,108,c),
(110,170,l),
(159,106,o),
(217,73,o),
(296,73,cs),
(391,73,o),
(442,121,o),
(442,196,cs),
(442,217,o),
(438,234,o),
(430,249,cs),
(414,277,o),
(379,296,o),
(322,308,cs),
(262,320,ls),
(219,329,o),
(183,342,o),
(153,359,cs),
(93,391,o),
(62,443,o),
(62,515,cs),
(62,556,o),
(72,592,o),
(92,621,cs),
(131,679,o),
(204,710,o),
(299,710,cs),
(404,710,o),
(479,671,o),
(532,599,c),
(462,542,l),
(426,593,o),
(374,625,o),
(294,625,cs),
(209,625,o),
(158,588,o),
(158,519,cs),
(158,498,o),
(163,481,o),
(172,468,cs),
(190,440,o),
(225,423,o),
(280,411,cs),
(340,399,ls),
(385,389,o),
(423,375,o),
(452,358,cs),
(511,323,o),
(538,273,o),
(538,201,cs),
(538,158,o),
(528,121,o),
(509,89,cs),
(469,25,o),
(395,-12,o),
(292,-12,cs)
);
}
);
width = 589;
},
{
anchors = (
{
name = t.ring;
position = "{311, 698}";
},
{
name = b.cedilla_2;
position = "{318, 0}";
}
);
layerId = "43C84C2D-48F1-4CCB-8D92-E3AB8A629B7A";
shapes = (
{
closed = 1;
nodes = (
(239,-12,o),
(192,-1,o),
(156,21,c),
(119,42,o),
(88,69,o),
(63,102,c),
(81,115,l),
(130,51,o),
(190,8,o),
(297,8,cs),
(418,8,o),
(488,67,o),
(488,176,cs),
(488,215,o),
(481,246,o),
(466,268,cs),
(436,312,o),
(383,330,o),
(327,341,cs),
(257,354,ls),
(210,363,o),
(174,376,o),
(149,394,cs),
(97,430,o),
(79,479,o),
(79,534,cs),
(79,574,o),
(88,607,o),
(106,633,cs),
(141,685,o),
(207,710,o),
(292,710,cs),
(395,710,o),
(461,671,o),
(498,615,c),
(480,602,l),
(440,661,o),
(381,690,o),
(290,690,cs),
(173,690,o),
(101,639,o),
(101,534,cs),
(101,498,o),
(109,469,o),
(124,448,cs),
(154,405,o),
(206,386,o),
(263,375,cs),
(333,362,ls),
(381,353,o),
(418,340,o),
(443,321,cs),
(494,284,o),
(510,233,o),
(510,178,cs),
(510,136,o),
(501,101,o),
(484,73,cs),
(449,17,o),
(384,-12,o),
(297,-12,cs)
);
}
);
width = 589;
}
);
leftKerningGroup = S2;
rightKerningGroup = S;
unicode = 83;
}
{
glyphname = T;
layers = (
{
anchors = (
{
name = t.ring;
position = "{287, 698}";
},
{
name = b.cedilla_2;
position = "{287, 0}";
}
);
layerId = "9A8FE613-2BB2-428D-A7DB-46DFB705B86D";
shapes = (
{
closed = 1;
nodes = (
(552,563,l),
(363,563,l),
(363,0,l),
(211,0,l),
(211,563,l),
(22,563,l),
(22,698,l),
(552,698,l)
);
}
);
width = 574;
},
{
anchors = (
{
name = t.ring;
position = "{292, 698}";
},
{
name = b.cedilla_2;
position = "{292, 0}";
}
);
layerId = "1513CFE8-5A13-42D2-8271-7D7365DF70DB";
shapes = (
{
closed = 1;
nodes = (
(551,612,l),
(336,612,l),
(336,0,l),
(239,0,l),
(239,612,l),
(23,612,l),
(23,698,l),
(551,698,l)
);
}
);
width = 574;
},
{
anchors = (
{
name = t.ring;
position = "{293, 698}";
},
{
name = b.cedilla_2;
position = "{293, 0}";
}
);
layerId = "1F8C5CD1-3431-41E3-A60F-01FCBC1C5BC1";
shapes = (
{
closed = 1;
nodes = (
(550,678,l),
(298,678,l),
(298,0,l),
(276,0,l),
(276,678,l),
(24,678,l),
(24,698,l),
(550,698,l)
);
}
);
width = 574;
}
);
leftKerningGroup = T2;
rightKerningGroup = T;
unicode = 84;
}
{
glyphname = U;
layers = (
{
anchors = (
{
name = t.ring;
position = "{340, 698}";
},
{
name = b.cedilla_2;
position = "{340, 0}";
},
{
name = b.ogonek_3;
position = "{448, 0}";
}
);
layerId = "9A8FE613-2BB2-428D-A7DB-46DFB705B86D";
shapes = (
{
closed = 1;
nodes = (
(66,698,l),
(214,698,l),
(214,270,ls),
(214,237,o),
(218,210,o),
(227,189,c),
(243,145,o),
(280,123,o),
(340,123,cs),
(370,123,o),
(394,129,o),
(413,140,cs),
(449,162,o),
(466,205,o),
(466,270,cs),
(466,698,l),
(614,698,l),
(614,286,ls),
(614,217,o),
(605,161,o),
(587,117,cs),
(551,29,o),
(473,-12,o),
(340,-12,cs),
(273,-12,o),
(220,-2,o),
(180,20,cs),
(100,62,o),
(66,149,o),
(66,286,cs)
);
}
);
width = 681;
},
{
anchors = (
{
name = t.ring;
position = "{347, 698}";
},
{
name = b.cedilla_2;
position = "{347, 0}";
},
{
name = b.ogonek_3;
position = "{455, 0}";
}
);
layerId = "1513CFE8-5A13-42D2-8271-7D7365DF70DB";
shapes = (
{
closed = 1;
nodes = (
(85,698,l),
(181,698,l),
(181,267,ls),
(181,225,o),
(186,190,o),
(197,161,cs),
(217,104,o),
(262,74,o),
(341,74,cs),
(380,74,o),
(411,81,o),
(434,96,cs),
(481,125,o),
(500,183,o),
(500,267,cs),
(500,698,l),
(596,698,l),
(596,286,ls),
(596,219,o),
(588,163,o),
(571,119,cs),
(538,30,o),
(463,-12,o),
(338,-12,cs),
(275,-12,o),
(226,-1,o),
(189,20,cs),
(115,63,o),
(85,151,o),
(85,286,cs)
);
}
);
width = 681;
},
{
anchors = (
{
name = t.ring;
position = "{349, 698}";
},
{
name = b.cedilla_2;
position = "{350, 0}";
},
{
name = b.ogonek_3;
position = "{457, 0}";
}
);
layerId = "1F8C5CD1-3431-41E3-A60F-01FCBC1C5BC1";
shapes = (
{
closed = 1;
nodes = (
(114,698,l),
(136,698,l),
(136,268,ls),
(136,205,o),
(142,154,o),
(155,116,cs),
(179,40,o),
(236,8,o),
(340,8,cs),
(392,8,o),
(433,17,o),
(463,34,cs),
(522,68,o),
(544,141,o),
(544,268,cs),
(544,698,l),
(566,698,l),
(566,270,ls),
(566,201,o),
(559,146,o),
(545,105,cs),
(516,22,o),
(452,-12,o),
(340,-12,cs),
(284,-12,o),
(240,-3,o),
(207,16,cs),
(141,52,o),
(114,133,o),
(114,270,cs)
);
}
);
width = 681;
}
);
leftKerningGroup = U2;
rightKerningGroup = U;
unicode = 85;
}
{
glyphname = V;
layers = (
{
anchors = (
{
name = t.ring;
position = "{308, 698}";
},
{
name = b.cedilla_2;
position = "{308, 0}";
}
);
layerId = "9A8FE613-2BB2-428D-A7DB-46DFB705B86D";
shapes = (
{
closed = 1;
nodes = (
(392,0,l),
(222,0,l),
(-3,698,l),
(151,698,l),
(255,363,l),
(310,144,l),
(313,144,l),
(366,363,l),
(470,698,l),
(619,698,l)
);
}
);
width = 617;
},
{
anchors = (
{
name = t.ring;
position = "{325, 698}";
},
{
name = b.cedilla_2;
position = "{325, 0}";
}
);
layerId = "1513CFE8-5A13-42D2-8271-7D7365DF70DB";
shapes = (
{
closed = 1;
nodes = (
(364,0,l),
(250,0,l),
(19,698,l),
(121,698,l),
(234,349,l),
(307,95,l),
(311,95,l),
(385,349,l),
(499,698,l),
(598,698,l)
);
}
);
width = 617;
},
{
anchors = (
{
name = t.ring;
position = "{328, 698}";
},
{
name = b.cedilla_2;
position = "{328, 0}";
}
);
layerId = "1F8C5CD1-3431-41E3-A60F-01FCBC1C5BC1";
shapes = (
{
closed = 1;
nodes = (
(323,0,l),
(293,0,l),
(53,698,l),
(77,698,l),
(233,242,l),
(307,25,l),
(310,25,l),
(384,242,l),
(540,698,l),
(563,698,l)
);
}
);
width = 617;
}
);
unicode = 86;
}
{
glyphname = W;
layers = (
{
anchors = (
{
name = t.ring;
position = "{454, 698}";
},
{
name = b.cedilla_2;
position = "{454, 0}";
}
);
layerId = "7AA3F0E6-41A7-43FF-9A92-631D90721C2F";
shapes = (
{
closed = 1;
nodes = (
(328,0,l),
(154,0,l),
(-4,698,l),
(146,698,l),
(212,363,l),
(249,169,l),
(252,169,l),
(296,363,l),
(373,698,l),
(539,698,l),
(617,363,l),
(660,169,l),
(663,169,l),
(700,363,l),
(767,698,l),
(911,698,l),
(749,0,l),
(576,0,l),
(488,378,l),
(454,531,l),
(451,531,l),
(416,378,l)
);
}
);
width = 907;
},
{
anchors = (
{
name = t.ring;
position = "{487, 698}";
},
{
name = b.cedilla_2;
position = "{487, 0}";
}
);
layerId = "8E9CA4E0-9900-4C00-AB62-7898C7C10EDA";
shapes = (
{
closed = 1;
nodes = (
(298,0,l),
(189,0,l),
(22,698,l),
(122,698,l),
(196,362,l),
(250,114,l),
(252,114,l),
(313,362,l),
(399,698,l),
(508,698,l),
(592,362,l),
(653,115,l),
(656,115,l),
(711,362,l),
(788,698,l),
(885,698,l),
(709,0,l),
(601,0,l),
(510,354,l),
(452,590,l),
(450,590,l),
(390,354,l)
);
}
);
width = 907;
},
{
anchors = (
{
name = t.ring;
position = "{491, 698}";
},
{
name = b.cedilla_2;
position = "{485, 0}";
}
);
layerId = "43C84C2D-48F1-4CCB-8D92-E3AB8A629B7A";
shapes = (
{
closed = 1;
nodes = (
(263,0,l),
(233,0,l),
(47,698,l),
(71,698,l),
(190,248,l),
(247,31,l),
(250,31,l),
(311,248,l),
(437,698,l),
(469,698,l),
(595,248,l),
(656,31,l),
(659,31,l),
(717,248,l),
(836,698,l),
(859,698,l),
(673,0,l),
(643,0,l),
(515,457,l),
(454,674,l),
(451,674,l),
(391,457,l)
);
}
);
width = 907;
}
);
leftKerningGroup = W2;
rightKerningGroup = W;
unicode = 87;
}
{
glyphname = X;
layers = (
{
anchors = (
{
name = t.ring;
position = "{312, 698}";
},
{
name = b.cedilla_2;
position = "{312, 0}";
}
);
layerId = "7AA3F0E6-41A7-43FF-9A92-631D90721C2F";
shapes = (
{
closed = 1;
nodes = (
(-9,0,l),
(215,361,l),
(2,698,l),
(179,698,l),
(315,462,l),
(318,462,l),
(456,698,l),
(620,698,l),
(405,358,l),
(632,0,l),
(456,0,l),
(305,257,l),
(302,257,l),
(155,0,l)
);
}
);
width = 624;
},
{
anchors = (
{
name = t.ring;
position = "{337, 698}";
},
{
name = b.cedilla_2;
position = "{337, 0}";
}
);
layerId = "8E9CA4E0-9900-4C00-AB62-7898C7C10EDA";
shapes = (
{
closed = 1;
nodes = (
(22,0,l),
(250,356,l),
(29,698,l),
(145,698,l),
(312,428,l),
(315,428,l),
(486,698,l),
(595,698,l),
(372,358,l),
(602,0,l),
(487,0,l),
(310,286,l),
(308,286,l),
(131,0,l)
);
}
);
width = 624;
},
{
anchors = (
{
name = t.ring;
position = "{343, 698}";
},
{
name = b.cedilla_2;
position = "{343, 0}";
}
);
layerId = "43C84C2D-48F1-4CCB-8D92-E3AB8A629B7A";
shapes = (
{
closed = 1;
nodes = (
(61,0,l),
(299,354,l),
(70,698,l),
(96,698,l),
(311,376,l),
(313,376,l),
(528,698,l),
(554,698,l),
(326,357,l),
(563,0,l),
(537,0,l),
(314,335,l),
(312,335,l),
(87,0,l)
);
}
);
width = 624;
}
);
unicode = 88;
}
{
glyphname = Y;
layers = (
{
anchors = (
{
name = t.ring;
position = "{302, 698}";
},
{
name = b.cedilla_2;
position = "{300, 0}";
}
);
layerId = "9A8FE613-2BB2-428D-A7DB-46DFB705B86D";
shapes = (
{
closed = 1;
nodes = (
(378,0,l),
(225,0,l),
(225,273,l),
(-14,698,l),
(156,698,l),
(306,420,l),
(308,420,l),
(452,698,l),
(617,698,l),
(378,274,l)
);
}
);
width = 604;
},
{
anchors = (
{
name = t.ring;
position = "{325, 698}";
},
{
name = b.cedilla_2;
position = "{323, 0}";
}
);
layerId = "1513CFE8-5A13-42D2-8271-7D7365DF70DB";
shapes = (
{
closed = 1;
nodes = (
(349,0,l),
(252,0,l),
(252,275,l),
(12,698,l),
(122,698,l),
(301,373,l),
(304,373,l),
(482,698,l),
(591,698,l),
(349,278,l)
);
}
);
width = 604;
},
{
anchors = (
{
name = t.ring;
position = "{329, 698}";
},
{
name = b.cedilla_2;
position = "{328, 0}";
}
);
layerId = "1F8C5CD1-3431-41E3-A60F-01FCBC1C5BC1";
shapes = (
{
closed = 1;
nodes = (
(313,0,l),
(291,0,l),
(291,294,l),
(50,698,l),
(75,698,l),
(301,320,l),
(304,320,l),
(530,698,l),
(554,698,l),
(313,294,l)
);
}
);
width = 604;
}
);
leftKerningGroup = Y2;
rightKerningGroup = Y;
unicode = 89;
}
{
glyphname = Z;
layers = (
{
anchors = (
{
name = t.ring;
position = "{292, 698}";
},
{
name = b.cedilla_2;
position = "{292, 0}";
}
);
layerId = "7AA3F0E6-41A7-43FF-9A92-631D90721C2F";
shapes = (
{
closed = 1;
nodes = (
(557,134,l),
(557,0,l),
(28,0,l),
(28,135,l),
(373,564,l),
(45,564,l),
(45,698,l),
(549,698,l),
(549,563,l),
(203,134,l)
);
}
);
width = 585;
},
{
anchors = (
{
name = t.ring;
position = "{303, 698}";
},
{
name = b.cedilla_2;
position = "{303, 0}";
}
);
layerId = "8E9CA4E0-9900-4C00-AB62-7898C7C10EDA";
shapes = (
{
closed = 1;
nodes = (
(549,85,l),
(549,0,l),
(37,0,l),
(37,87,l),
(429,613,l),
(57,613,l),
(57,698,l),
(536,698,l),
(536,611,l),
(143,85,l)
);
}
);
width = 585;
},
{
anchors = (
{
name = t.ring;
position = "{303, 698}";
},
{
name = b.cedilla_2;
position = "{303, 0}";
}
);
layerId = "43C84C2D-48F1-4CCB-8D92-E3AB8A629B7A";
shapes = (
{
closed = 1;
nodes = (
(542,20,l),
(542,0,l),
(54,0,l),
(54,22,l),
(497,678,l),
(77,678,l),
(77,698,l),
(521,698,l),
(521,676,l),
(78,20,l)
);
}
);
width = 585;
}
);
leftKerningGroup = Z2;
rightKerningGroup = Z;
unicode = 90;
}
{
glyphname = bracketleft;
layers = (
{
layerId = "9A8FE613-2BB2-428D-A7DB-46DFB705B86D";
shapes = (
{
closed = 1;
nodes = (
(277,-138,l),
(70,-138,l),
(70,760,l),
(277,760,l),
(277,656,l),
(207,656,l),
(207,-34,l),
(277,-34,l)
);
}
);
width = 320;
},
{
layerId = "1513CFE8-5A13-42D2-8271-7D7365DF70DB";
shapes = (
{
closed = 1;
nodes = (
(262,-138,l),
(90,-138,l),
(90,760,l),
(262,760,l),
(262,689,l),
(172,689,l),
(172,-67,l),
(262,-67,l)
);
}
);
width = 320;
},
{
layerId = "1F8C5CD1-3431-41E3-A60F-01FCBC1C5BC1";
shapes = (
{
closed = 1;
nodes = (
(241,-138,l),
(117,-138,l),
(117,760,l),
(241,760,l),
(241,742,l),
(137,742,l),
(137,-120,l),
(241,-120,l)
);
}
);
width = 320;
}
);
rightKerningGroup = braceleft;
unicode = 91;
}
{
glyphname = backslash;
layers = (
{
layerId = "7AA3F0E6-41A7-43FF-9A92-631D90721C2F";
shapes = (
{
closed = 1;
nodes = (
(425,-151,l),
(303,-151,l),
(5,740,l),
(127,740,l)
);
}
);
width = 398;
},
{
layerId = "8E9CA4E0-9900-4C00-AB62-7898C7C10EDA";
shapes = (
{
closed = 1;
nodes = (
(387,-151,l),
(306,-151,l),
(39,740,l),
(121,740,l)
);
}
);
width = 398;
},
{
layerId = "43C84C2D-48F1-4CCB-8D92-E3AB8A629B7A";
shapes = (
{
closed = 1;
nodes = (
(336,-151,l),
(316,-151,l),
(83,740,l),
(103,740,l)
);
}
);
width = 398;
}
);
unicode = 92;
}
{
glyphname = bracketright;
layers = (
{
layerId = "7AA3F0E6-41A7-43FF-9A92-631D90721C2F";
shapes = (
{
closed = 1;
nodes = (
(43,760,l),
(250,760,l),
(250,-138,l),
(43,-138,l),
(43,-34,l),
(113,-34,l),
(113,656,l),
(43,656,l)
);
}
);
width = 320;
},
{
layerId = "8E9CA4E0-9900-4C00-AB62-7898C7C10EDA";
shapes = (
{
closed = 1;
nodes = (
(58,760,l),
(230,760,l),
(230,-138,l),
(58,-138,l),
(58,-67,l),
(148,-67,l),
(148,689,l),
(58,689,l)
);
}
);
width = 320;
},
{
layerId = "43C84C2D-48F1-4CCB-8D92-E3AB8A629B7A";
shapes = (
{
closed = 1;
nodes = (
(78,760,l),
(202,760,l),
(202,-138,l),
(78,-138,l),
(78,-120,l),
(182,-120,l),
(182,742,l),
(78,742,l)
);
}
);
width = 320;
}
);
leftKerningGroup = braceright;
unicode = 93;
}
{
glyphname = asciicircum;
layers = (
{
layerId = "7AA3F0E6-41A7-43FF-9A92-631D90721C2F";
shapes = (
{
closed = 1;
nodes = (
(559,334,l),
(440,277,l),
(300,537,l),
(294,537,l),
(154,277,l),
(42,334,l),
(242,698,l),
(362,698,l)
);
}
);
width = 600;
},
{
layerId = "8E9CA4E0-9900-4C00-AB62-7898C7C10EDA";
shapes = (
{
closed = 1;
nodes = (
(552,329,l),
(480,292,l),
(302,607,l),
(297,607,l),
(119,292,l),
(48,329,l),
(254,698,l),
(347,698,l)
);
}
);
width = 600;
},
{
layerId = "43C84C2D-48F1-4CCB-8D92-E3AB8A629B7A";
shapes = (
{
closed = 1;
nodes = (
(532,332,l),
(514,322,l),
(301,676,l),
(299,676,l),
(86,322,l),
(68,332,l),
(289,698,l),
(311,698,l)
);
}
);
width = 600;
}
);
unicode = 94;
}
{
glyphname = grave;
layers = (
{
anchors = (
{
name = _t.ring;
position = "{300, 540}";
}
);
layerId = "7AA3F0E6-41A7-43FF-9A92-631D90721C2F";
shapes = (
{
closed = 1;
nodes = (
(284,579,l),
(150,755,l),
(273,816,l),
(372,622,l)
);
}
);
width = 600;
},
{
anchors = (
{
name = _t.ring;
position = "{300, 540}";
}
);
layerId = "8E9CA4E0-9900-4C00-AB62-7898C7C10EDA";
shapes = (
{
closed = 1;
nodes = (
(291,584,l),
(180,746,l),
(262,786,l),
(350,611,l)
);
}
);
width = 600;
},
{
anchors = (
{
name = _t.ring;
position = "{300, 540}";
}
);
layerId = "43C84C2D-48F1-4CCB-8D92-E3AB8A629B7A";
shapes = (
{
closed = 1;
nodes = (
(317,587,l),
(202,739,l),
(221,751,l),
(332,597,l)
);
}
);
width = 600;
}
);
unicode = 96;
}
{
glyphname = a;
layers = (
{
anchors = (
{
name = b.uni0327;
position = "{255, 0}";
},
{
name = b.uni0328;
position = "{525, 0}";
},
{
name = t.uni0303;
position = "{254, 540}";
}
);
hints = (
{
horizontal = 1;
place = (-12,103);
type = Stem;
},
{
horizontal = 1;
place = (0,115);
type = Stem;
},
{
horizontal = 1;
place = (221,84);
type = Stem;
},
{
horizontal = 1;
place = (421,116);
type = Stem;
},
{
place = (20,149);
type = Stem;
},
{
place = (328,148);
type = Stem;
}
);
layerId = "7AA3F0E6-41A7-43FF-9A92-631D90721C2F";
shapes = (
{
closed = 1;
nodes = (
(476,0,l),
(476,345,ls),
(476,469,o),
(400,537,o),
(252,537,cs),
(142,537,o),
(82,499,o),
(40,437,c),
(128,359,l),
(151,391,o),
(182,421,o),
(241,421,cs),
(303,421,o),
(328,389,o),
(328,338,cs),
(328,305,l),
(245,305,ls),
(106,305,o),
(20,252,o),
(20,141,cs),
(20,50,o),
(78,-12,o),
(183,-12,cs),
(263,-12,o),
(321,24,o),
(337,92,c),
(343,92,l),
(352,0,l)
);
},
{
closed = 1;
nodes = (
(194,91,o),
(169,109,o),
(169,147,cs),
(169,162,ls),
(169,200,o),
(199,221,o),
(256,221,cs),
(328,221,l),
(328,159,ls),
(328,111,o),
(287,91,o),
(238,91,cs)
);
}
);
width = 541;
},
{
anchors = (
{
name = b.uni0327;
position = "{250, 0}";
},
{
name = b.uni0328;
position = "{511, 0}";
},
{
name = t.uni0303;
position = "{255, 540}";
}
);
hints = (
{
horizontal = 1;
place = (-12,75);
type = Stem;
},
{
horizontal = 1;
place = (0,79);
type = Stem;
},
{
horizontal = 1;
place = (232,65);
type = Stem;
},
{
horizontal = 1;
place = (452,78);
type = Stem;
},
{
place = (42,97);
type = Stem;
},
{
place = (361,93);
type = Stem;
}
);
layerId = "8E9CA4E0-9900-4C00-AB62-7898C7C10EDA";
shapes = (
{
closed = 1;
nodes = (
(454,0,l),
(454,352,ls),
(454,464,o),
(380,530,o),
(251,530,cs),
(155,530,o),
(94,485,o),
(63,429,c),
(119,378,l),
(146,422,o),
(185,452,o),
(246,452,cs),
(324,452,o),
(361,413,o),
(361,344,cs),
(361,297,l),
(263,297,ls),
(115,297,o),
(42,243,o),
(42,143,cs),
(42,48,o),
(105,-12,o),
(213,-12,cs),
(287,-12,o),
(342,22,o),
(363,86,c),
(368,86,l),
(376,0,l)
);
},
{
closed = 1;
nodes = (
(176,63,o),
(139,90,o),
(139,138,cs),
(139,158,ls),
(139,206,o),
(177,232,o),
(262,232,cs),
(361,232,l),
(361,152,ls),
(361,100,o),
(307,63,o),
(234,63,cs)
);
}
);
width = 541;
},
{
anchors = (
{
name = b.uni0327;
position = "{235, 0}";
},
{
name = b.uni0328;
position = "{510, 0}";
},
{
name = t.uni0303;
position = "{260, 540}";
}
);
hints = (
{
horizontal = 1;
place = (-12,19);
type = Stem;
},
{
horizontal = 1;
place = (0,19);
type = Stem;
},
{
horizontal = 1;
place = (257,18);
type = Stem;
},
{
horizontal = 1;
place = (499,19);
type = Stem;
},
{
place = (72,23);
type = Stem;
},
{
place = (404,21);
type = Stem;
}
);
layerId = "43C84C2D-48F1-4CCB-8D92-E3AB8A629B7A";
shapes = (
{
closed = 1;
nodes = (
(425,0,l),
(425,352,ls),
(425,459,o),
(370,518,o),
(260,518,cs),
(166,518,o),
(117,477,o),
(89,412,c),
(107,404,l),
(135,470,o),
(184,499,o),
(260,499,cs),
(354,499,o),
(404,453,o),
(404,349,cs),
(404,275,l),
(262,275,ls),
(117,275,o),
(72,214,o),
(72,130,cs),
(72,39,o),
(131,-12,o),
(235,-12,cs),
(328,-12,o),
(376,29,o),
(401,77,c),
(404,77,l),
(404,0,l)
);
},
{
closed = 1;
nodes = (
(153,7,o),
(95,45,o),
(95,115,cs),
(95,145,ls),
(95,212,o),
(144,257,o),
(263,257,cs),
(404,257,l),
(404,148,ls),
(404,54,o),
(325,7,o),
(235,7,cs)
);
}
);
width = 541;
}
);
leftKerningGroup = a2;
rightKerningGroup = a;
unicode = 97;
}
{
glyphname = c;
layers = (
{
anchors = (
{
name = t.ring;
position = "{268, 540}";
},
{
name = b.cedilla_2;
position = "{256, 0}";
}
);
layerId = "9A8FE613-2BB2-428D-A7DB-46DFB705B86D";
shapes = (
{
closed = 1;
nodes = (
(196,-12,o),
(136,13,o),
(94,63,cs),
(51,112,o),
(30,179,o),
(30,263,cs),
(30,347,o),
(51,414,o),
(94,463,cs),
(136,512,o),
(196,537,o),
(275,537,cs),
(382,537,o),
(454,487,o),
(485,400,c),
(365,348,l),
(356,388,o),
(327,420,o),
(275,420,cs),
(215,420,o),
(184,378,o),
(184,311,cs),
(184,213,ls),
(184,148,o),
(215,104,o),
(275,104,cs),
(334,104,o),
(358,142,o),
(373,183,c),
(488,133,l),
(453,33,o),
(378,-12,o),
(275,-12,cs)
);
}
);
width = 506;
},
{
anchors = (
{
name = t.ring;
position = "{274, 540}";
},
{
name = b.cedilla_2;
position = "{262, 0}";
}
);
layerId = "1513CFE8-5A13-42D2-8271-7D7365DF70DB";
shapes = (
{
closed = 1;
nodes = (
(204,-12,o),
(147,13,o),
(106,62,cs),
(65,111,o),
(45,176,o),
(45,259,cs),
(45,342,o),
(65,408,o),
(106,457,cs),
(147,506,o),
(204,530,o),
(278,530,cs),
(381,530,o),
(445,479,o),
(474,406,c),
(397,368,l),
(380,419,o),
(338,450,o),
(278,450,cs),
(190,450,o),
(144,389,o),
(144,304,cs),
(144,214,ls),
(144,129,o),
(190,68,o),
(278,68,cs),
(342,68,o),
(385,100,o),
(410,155,c),
(479,114,l),
(444,37,o),
(377,-12,o),
(278,-12,cs)
);
}
);
width = 506;
},
{
anchors = (
{
name = t.ring;
position = "{277, 540}";
},
{
name = b.cedilla_2;
position = "{266, 0}";
}
);
layerId = "1F8C5CD1-3431-41E3-A60F-01FCBC1C5BC1";
shapes = (
{
closed = 1;
nodes = (
(213,-12,o),
(162,10,o),
(125,55,cs),
(88,100,o),
(69,166,o),
(69,253,cs),
(69,340,o),
(88,406,o),
(125,451,cs),
(162,496,o),
(213,518,o),
(279,518,cs),
(359,518,o),
(413,478,o),
(444,418,c),
(426,409,l),
(394,468,o),
(351,499,o),
(279,499,cs),
(159,499,o),
(92,413,o),
(92,277,cs),
(92,229,ls),
(92,93,o),
(159,7,o),
(279,7,cs),
(358,7,o),
(405,40,o),
(437,95,c),
(453,84,l),
(420,27,o),
(367,-12,o),
(279,-12,cs)
);
}
);
width = 506;
}
);
leftKerningGroup = c2;
rightKerningGroup = c;
unicode = 99;
}
{
glyphname = d;
layers = (
{
anchors = (
{
name = t.uni02BC_1;
position = "{590, 740}";
},
{
name = b.cedilla_2;
position = "{279, 0}";
}
);
layerId = "9A8FE613-2BB2-428D-A7DB-46DFB705B86D";
shapes = (
{
closed = 1;
nodes = (
(379,0,l),
(379,88,l),
(374,88,l),
(367,59,o),
(350,36,o),
(324,17,cs),
(297,-3,o),
(267,-12,o),
(233,-12,cs),
(189,-12,o),
(152,-2,o),
(122,20,cs),
(62,62,o),
(31,144,o),
(31,263,cs),
(31,322,o),
(39,372,o),
(54,413,cs),
(85,494,o),
(145,537,o),
(233,537,cs),
(267,537,o),
(297,528,o),
(324,509,cs),
(350,490,o),
(367,466,o),
(374,437,c),
(379,437,l),
(379,740,l),
(527,740,l),
(527,0,l)
);
},
{
closed = 1;
nodes = (
(301,108,o),
(317,111,o),
(332,117,cs),
(361,129,o),
(379,153,o),
(379,185,cs),
(379,340,ls),
(379,356,o),
(375,370,o),
(367,382,cs),
(350,405,o),
(319,417,o),
(282,417,cs),
(226,417,o),
(185,375,o),
(185,308,cs),
(185,217,ls),
(185,152,o),
(226,108,o),
(282,108,cs)
);
}
);
width = 585;
},
{
anchors = (
{
name = t.uni02BC_1;
position = "{602, 740}";
},
{
name = b.cedilla_2;
position = "{291, 0}";
}
);
layerId = "1513CFE8-5A13-42D2-8271-7D7365DF70DB";
shapes = (
{
closed = 1;
nodes = (
(410,0,l),
(410,85,l),
(406,85,l),
(393,54,o),
(373,30,o),
(348,13,cs),
(323,-4,o),
(292,-12,o),
(257,-12,cs),
(214,-12,o),
(177,-1,o),
(146,21,cs),
(83,64,o),
(49,148,o),
(49,259,cs),
(49,315,o),
(57,363,o),
(74,404,cs),
(107,484,o),
(172,530,o),
(257,530,cs),
(292,530,o),
(323,522,o),
(349,506,cs),
(375,489,o),
(394,465,o),
(406,433,c),
(410,433,l),
(410,740,l),
(503,740,l),
(503,0,l)
);
},
{
closed = 1;
nodes = (
(308,69,o),
(330,73,o),
(349,81,cs),
(387,97,o),
(410,128,o),
(410,169,cs),
(410,354,ls),
(410,373,o),
(405,389,o),
(394,403,cs),
(372,431,o),
(332,449,o),
(284,449,cs),
(201,449,o),
(148,391,o),
(148,303,cs),
(148,215,ls),
(148,127,o),
(201,69,o),
(284,69,cs)
);
}
);
width = 585;
},
{
anchors = (
{
name = t.uni02BC_1;
position = "{606, 740}";
},
{
name = b.cedilla_2;
position = "{301, 0}";
}
);
layerId = "1F8C5CD1-3431-41E3-A60F-01FCBC1C5BC1";
shapes = (
{
closed = 1;
nodes = (
(449,0,l),
(449,78,l),
(446,78,l),
(435,56,o),
(417,36,o),
(390,17,cs),
(363,-3,o),
(327,-12,o),
(282,-12,cs),
(238,-12,o),
(200,-2,o),
(169,18,cs),
(105,57,o),
(70,136,o),
(70,253,cs),
(70,312,o),
(79,361,o),
(96,400,cs),
(130,479,o),
(194,518,o),
(282,518,cs),
(327,518,o),
(363,509,o),
(390,490,cs),
(417,471,o),
(435,450,o),
(446,428,c),
(449,428,l),
(449,740,l),
(470,740,l),
(470,0,l)
);
},
{
closed = 1;
nodes = (
(311,7,o),
(339,13,o),
(364,24,cs),
(415,47,o),
(449,90,o),
(449,143,cs),
(449,363,ls),
(449,390,o),
(441,414,o),
(426,435,c),
(394,475,o),
(341,499,o),
(282,499,cs),
(161,499,o),
(93,414,o),
(93,277,cs),
(93,229,ls),
(93,92,o),
(161,7,o),
(282,7,cs)
);
}
);
width = 585;
}
);
leftKerningGroup = d;
unicode = 100;
}
{
glyphname = e;
layers = (
{
anchors = (
{
name = t.ring;
position = "{281, 540}";
},
{
name = b.cedilla_2;
position = "{277, 0}";
},
{
name = b.ogonek_3;
position = "{377, 0}";
}
);
layerId = "9A8FE613-2BB2-428D-A7DB-46DFB705B86D";
shapes = (
{
closed = 1;
nodes = (
(229,-12,o),
(183,-1,o),
(146,22,c),
(70,66,o),
(30,151,o),
(30,263,cs),
(30,318,o),
(40,367,o),
(59,408,cs),
(97,490,o),
(171,537,o),
(276,537,cs),
(334,537,o),
(381,525,o),
(417,500,cs),
(488,450,o),
(520,364,o),
(520,269,cs),
(520,225,l),
(183,225,l),
(183,217,ls),
(183,148,o),
(220,104,o),
(299,104,cs),
(362,104,o),
(395,134,o),
(428,167,c),
(502,75,l),
(455,22,o),
(378,-12,o),
(282,-12,cs)
);
},
{
closed = 1;
nodes = (
(259,428,o),
(242,424,o),
(228,415,cs),
(199,397,o),
(183,364,o),
(183,320,cs),
(183,312,l),
(367,312,l),
(367,321,ls),
(367,342,o),
(364,361,o),
(358,377,cs),
(345,409,o),
(319,428,o),
(279,428,cs)
);
}
);
width = 551;
},
{
anchors = (
{
name = t.ring;
position = "{287, 540}";
},
{
name = b.cedilla_2;
position = "{283, 0}";
},
{
name = b.ogonek_3;
position = "{383, 0}";
}
);
layerId = "1513CFE8-5A13-42D2-8271-7D7365DF70DB";
shapes = (
{
closed = 1;
nodes = (
(233,-12,o),
(191,-1,o),
(156,22,c),
(85,66,o),
(45,150,o),
(45,259,cs),
(45,314,o),
(55,361,o),
(74,402,cs),
(113,483,o),
(184,530,o),
(280,530,cs),
(328,530,o),
(369,519,o),
(403,497,cs),
(470,452,o),
(507,371,o),
(507,275,cs),
(507,236,l),
(142,236,l),
(142,215,ls),
(142,128,o),
(195,67,o),
(288,67,cs),
(353,67,o),
(400,98,o),
(428,151,c),
(488,100,l),
(452,33,o),
(378,-12,o),
(281,-12,cs)
);
},
{
closed = 1;
nodes = (
(253,455,o),
(230,449,o),
(209,436,cs),
(167,411,o),
(142,365,o),
(142,308,cs),
(142,301,l),
(408,301,l),
(408,311,ls),
(408,340,o),
(403,366,o),
(393,387,cs),
(372,430,o),
(332,455,o),
(280,455,cs)
);
}
);
width = 551;
},
{
anchors = (
{
name = t.ring;
position = "{285, 540}";
},
{
name = b.cedilla_2;
position = "{281, 0}";
},
{
name = b.ogonek_3;
position = "{384, 0}";
}
);
layerId = "1F8C5CD1-3431-41E3-A60F-01FCBC1C5BC1";
shapes = (
{
closed = 1;
nodes = (
(237,-12,o),
(199,-2,o),
(168,18,cs),
(104,58,o),
(69,137,o),
(69,253,cs),
(69,311,o),
(77,360,o),
(94,399,cs),
(127,478,o),
(190,518,o),
(277,518,cs),
(318,518,o),
(353,508,o),
(384,488,cs),
(445,447,o),
(482,370,o),
(482,266,cs),
(482,256,l),
(92,256,l),
(92,229,ls),
(92,93,o),
(161,7,o),
(281,7,cs),
(366,7,o),
(425,50,o),
(456,131,c),
(474,124,l),
(445,41,o),
(378,-12,o),
(281,-12,cs)
);
},
{
closed = 1;
nodes = (
(238,499,o),
(204,490,o),
(177,472,cs),
(121,436,o),
(92,368,o),
(92,277,cs),
(92,275,l),
(459,275,l),
(459,279,ls),
(459,324,o),
(451,362,o),
(436,395,cs),
(405,460,o),
(350,499,o),
(277,499,cs)
);
}
);
width = 551;
}
);
leftKerningGroup = c2;
rightKerningGroup = e;
unicode = 101;
}
{
glyphname = f;
layers = (
{
anchors = (
{
name = b.cedilla_2;
position = "{155, 0}";
}
);
layerId = "9A8FE613-2BB2-428D-A7DB-46DFB705B86D";
shapes = (
{
closed = 1;
nodes = (
(80,0,l),
(80,410,l),
(6,410,l),
(6,525,l),
(80,525,l),
(80,587,ls),
(80,688,o),
(136,740,o),
(237,740,cs),
(333,740,l),
(333,625,l),
(228,625,l),
(228,525,l),
(333,525,l),
(333,410,l),
(228,410,l),
(228,0,l)
);
}
);
width = 331;
},
{
anchors = (
{
name = b.cedilla_2;
position = "{170, 0}";
}
);
layerId = "1513CFE8-5A13-42D2-8271-7D7365DF70DB";
shapes = (
{
closed = 1;
nodes = (
(110,0,l),
(110,439,l),
(27,439,l),
(27,518,l),
(110,518,l),
(110,614,ls),
(110,690,o),
(150,740,o),
(231,740,cs),
(312,740,l),
(312,661,l),
(203,661,l),
(203,518,l),
(312,518,l),
(312,439,l),
(203,439,l),
(203,0,l)
);
}
);
width = 331;
},
{
anchors = (
{
name = b.cedilla_2;
position = "{173, 0}";
}
);
layerId = "1F8C5CD1-3431-41E3-A60F-01FCBC1C5BC1";
shapes = (
{
closed = 1;
nodes = (
(146,0,l),
(146,487,l),
(53,487,l),
(53,506,l),
(146,506,l),
(146,711,ls),
(146,731,o),
(155,740,o),
(175,740,cs),
(283,740,l),
(283,721,l),
(167,721,l),
(167,506,l),
(283,506,l),
(283,487,l),
(167,487,l),
(167,0,l)
);
}
);
width = 331;
}
);
leftKerningGroup = f;
unicode = 102;
}
{
glyphname = g;
layers = (
{
anchors = (
{
name = t.ring;
position = "{265, 540}";
}
);
layerId = "9A8FE613-2BB2-428D-A7DB-46DFB705B86D";
shapes = (
{
closed = 1;
nodes = (
(542,-75,o),
(533,-106,o),
(516,-132,cs),
(480,-184,o),
(401,-212,o),
(258,-212,cs),
(197,-212,o),
(149,-207,o),
(113,-198,cs),
(40,-178,o),
(9,-141,o),
(9,-90,cs),
(9,-31,o),
(46,2,o),
(107,10,c),
(107,21,l),
(58,30,o),
(31,68,o),
(31,113,cs),
(31,140,o),
(41,162,o),
(62,177,cs),
(82,192,o),
(104,201,o),
(129,206,c),
(129,210,l),
(66,239,o),
(35,292,o),
(35,360,cs),
(35,395,o),
(43,426,o),
(60,453,cs),
(93,506,o),
(160,537,o),
(260,537,cs),
(293,537,o),
(330,534,o),
(359,525,c),
(533,525,l),
(533,426,l),
(469,426,l),
(469,424,l),
(478,413,o),
(485,387,o),
(485,360,cs),
(485,325,o),
(477,295,o),
(461,269,cs),
(428,216,o),
(361,186,o),
(260,186,cs),
(225,186,o),
(194,190,o),
(167,197,c),
(154,188,o),
(144,174,o),
(144,155,cs),
(144,130,o),
(162,115,o),
(207,115,cs),
(359,115,ls),
(487,115,o),
(542,59,o),
(542,-38,cs)
);
},
{
closed = 1;
nodes = (
(319,283,o),
(347,310,o),
(347,355,cs),
(347,367,ls),
(347,414,o),
(319,439,o),
(260,439,cs),
(203,439,o),
(173,414,o),
(173,367,cs),
(173,355,ls),
(173,332,o),
(180,315,o),
(195,302,cs),
(210,289,o),
(231,283,o),
(260,283,cs)
);
},
{
closed = 1;
nodes = (
(403,-27,o),
(381,-11,o),
(322,-11,cs),
(142,-11,l),
(129,-24,o),
(123,-42,o),
(123,-58,cs),
(123,-95,o),
(153,-114,o),
(233,-114,cs),
(293,-114,ls),
(333,-114,o),
(361,-109,o),
(378,-100,cs),
(395,-91,o),
(403,-77,o),
(403,-58,cs)
);
}
);
width = 537;
},
{
anchors = (
{
name = t.ring;
position = "{278, 540}";
}
);
layerId = "1513CFE8-5A13-42D2-8271-7D7365DF70DB";
shapes = (
{
closed = 1;
nodes = (
(527,-89,o),
(518,-119,o),
(499,-142,cs),
(462,-189,o),
(387,-212,o),
(270,-212,cs),
(215,-212,o),
(171,-207,o),
(137,-197,cs),
(69,-177,o),
(39,-139,o),
(39,-86,cs),
(39,-30,o),
(72,2,o),
(124,14,c),
(124,25,l),
(91,38,o),
(72,64,o),
(72,101,cs),
(72,127,o),
(81,147,o),
(98,161,cs),
(115,175,o),
(137,185,o),
(163,191,c),
(163,195,l),
(102,224,o),
(67,280,o),
(67,352,cs),
(67,387,o),
(75,418,o),
(91,445,cs),
(123,498,o),
(184,530,o),
(267,530,cs),
(295,530,o),
(325,526,o),
(349,518,c),
(512,518,l),
(512,447,l),
(435,447,l),
(435,445,l),
(452,429,o),
(468,393,o),
(468,352,cs),
(468,317,o),
(460,287,o),
(444,260,cs),
(412,206,o),
(351,175,o),
(267,175,cs),
(247,175,o),
(226,177,o),
(209,181,c),
(180,172,o),
(150,155,o),
(150,126,cs),
(150,97,o),
(179,87,o),
(226,87,cs),
(344,87,ls),
(472,87,o),
(527,34,o),
(527,-53,cs)
);
},
{
closed = 1;
nodes = (
(334,245,o),
(374,276,o),
(374,340,cs),
(374,365,ls),
(374,429,o),
(334,459,o),
(267,459,cs),
(202,459,o),
(161,429,o),
(161,365,cs),
(161,340,ls),
(161,308,o),
(171,284,o),
(190,269,cs),
(209,253,o),
(234,245,o),
(267,245,cs)
);
},
{
closed = 1;
nodes = (
(439,-23,o),
(413,2,o),
(337,2,cs),
(164,2,l),
(135,-13,o),
(121,-35,o),
(121,-64,cs),
(121,-108,o),
(152,-141,o),
(233,-141,cs),
(304,-141,ls),
(348,-141,o),
(382,-134,o),
(405,-121,cs),
(428,-108,o),
(439,-88,o),
(439,-62,cs)
);
}
);
width = 537;
},
{
anchors = (
{
name = t.ring;
position = "{280, 540}";
}
);
layerId = "1F8C5CD1-3431-41E3-A60F-01FCBC1C5BC1";
shapes = (
{
closed = 1;
nodes = (
(506,-98,o),
(497,-126,o),
(478,-148,cs),
(441,-192,o),
(368,-212,o),
(267,-212,cs),
(218,-212,o),
(177,-207,o),
(146,-196,cs),
(83,-174,o),
(55,-134,o),
(55,-82,cs),
(55,-22,o),
(93,18,o),
(154,38,c),
(154,41,l),
(117,52,o),
(101,76,o),
(101,108,cs),
(101,131,o),
(110,150,o),
(127,164,cs),
(144,177,o),
(164,187,o),
(186,194,c),
(186,197,l),
(129,222,o),
(95,273,o),
(95,349,cs),
(95,383,o),
(102,413,o),
(116,438,cs),
(144,489,o),
(197,518,o),
(268,518,cs),
(295,518,o),
(319,514,o),
(340,506,c),
(506,506,l),
(506,487,l),
(376,487,l),
(376,485,l),
(416,464,o),
(441,409,o),
(441,349,cs),
(441,315,o),
(434,285,o),
(419,260,cs),
(390,209,o),
(337,180,o),
(268,180,cs),
(248,180,o),
(232,183,o),
(212,187,c),
(152,171,o),
(121,146,o),
(121,109,cs),
(121,81,o),
(139,53,o),
(208,53,cs),
(343,53,ls),
(458,53,o),
(506,7,o),
(506,-65,cs)
);
},
{
closed = 1;
nodes = (
(363,199,o),
(417,257,o),
(417,330,cs),
(417,368,ls),
(417,443,o),
(363,499,o),
(268,499,cs),
(173,499,o),
(119,443,o),
(119,368,cs),
(119,330,ls),
(119,293,o),
(132,262,o),
(159,237,cs),
(185,212,o),
(221,199,o),
(268,199,cs)
);
},
{
closed = 1;
nodes = (
(484,-4,o),
(448,33,o),
(340,33,cs),
(185,33,l),
(122,17,o),
(77,-19,o),
(77,-83,cs),
(77,-148,o),
(142,-193,o),
(243,-193,cs),
(292,-193,ls),
(349,-193,o),
(395,-183,o),
(431,-163,c),
(466,-142,o),
(484,-110,o),
(484,-65,cs)
);
}
);
width = 537;
}
);
leftKerningGroup = g2;
rightKerningGroup = g;
unicode = 103;
}
{
glyphname = h;
layers = (
{
anchors = (
{
name = t.ring;
position = "{131, 698}";
},
{
name = b.cedilla_2;
position = "{290, 0}";
}
);
layerId = "9A8FE613-2BB2-428D-A7DB-46DFB705B86D";
shapes = (
{
closed = 1;
nodes = (
(57,0,l),
(57,740,l),
(205,740,l),
(205,436,l),
(211,436,l),
(230,491,o),
(274,537,o),
(357,537,cs),
(464,537,o),
(521,461,o),
(521,329,cs),
(521,0,l),
(373,0,l),
(373,317,ls),
(373,384,o),
(355,417,o),
(300,417,cs),
(284,417,o),
(269,414,o),
(255,409,cs),
(226,397,o),
(205,375,o),
(205,340,cs),
(205,0,l)
);
}
);
width = 573;
},
{
anchors = (
{
name = t.ring;
position = "{143, 698}";
},
{
name = b.cedilla_2;
position = "{302, 0}";
}
);
layerId = "1513CFE8-5A13-42D2-8271-7D7365DF70DB";
shapes = (
{
closed = 1;
nodes = (
(82,0,l),
(82,740,l),
(175,740,l),
(175,433,l),
(179,433,l),
(203,490,o),
(248,530,o),
(325,530,cs),
(432,530,o),
(497,458,o),
(497,331,cs),
(497,0,l),
(404,0,l),
(404,317,ls),
(404,404,o),
(368,449,o),
(295,449,cs),
(275,449,o),
(256,446,o),
(237,439,cs),
(200,425,o),
(175,396,o),
(175,355,cs),
(175,0,l)
);
}
);
width = 573;
},
{
anchors = (
{
name = t.ring;
position = "{139, 698}";
},
{
name = b.cedilla_2;
position = "{303, 0}";
}
);
layerId = "1F8C5CD1-3431-41E3-A60F-01FCBC1C5BC1";
shapes = (
{
closed = 1;
nodes = (
(113,0,l),
(113,740,l),
(134,740,l),
(134,430,l),
(137,430,l),
(156,475,o),
(204,518,o),
(295,518,cs),
(408,518,o),
(469,452,o),
(469,325,cs),
(469,0,l),
(448,0,l),
(448,321,ls),
(448,444,o),
(392,499,o),
(293,499,cs),
(265,499,o),
(239,494,o),
(215,484,cs),
(167,464,o),
(134,423,o),
(134,362,cs),
(134,0,l)
);
}
);
width = 573;
}
);
leftKerningGroup = b2;
rightKerningGroup = h;
unicode = 104;
}
{
glyphname = i;
layers = (
{
anchors = (
{
name = b.cedilla_2;
position = "{128, 0}";
},
{
name = b.ogonek_3;
position = "{202, 0}";
}
);
layerId = "9A8FE613-2BB2-428D-A7DB-46DFB705B86D";
shapes = (
{
closed = 1;
nodes = (
(68,581,o),
(42,613,o),
(42,654,cs),
(42,676,ls),
(42,719,o),
(68,749,o),
(128,749,cs),
(188,749,o),
(214,719,o),
(214,676,cs),
(214,654,ls),
(214,613,o),
(188,581,o),
(128,581,cs)
);
},
{
closed = 1;
nodes = (
(54,0,l),
(54,525,l),
(202,525,l),
(202,0,l)
);
}
);
width = 257;
},
{
anchors = (
{
name = b.cedilla_2;
position = "{143, 0}";
},
{
name = b.ogonek_3;
position = "{217, 0}";
}
);
layerId = "1513CFE8-5A13-42D2-8271-7D7365DF70DB";
shapes = (
{
closed = 1;
nodes = (
(91,626,o),
(72,648,o),
(72,677,cs),
(72,691,ls),
(72,722,o),
(91,742,o),
(128,742,cs),
(168,742,o),
(184,722,o),
(184,691,cs),
(184,677,ls),
(184,648,o),
(168,626,o),
(128,626,cs)
);
},
{
closed = 1;
nodes = (
(82,0,l),
(82,518,l),
(175,518,l),
(175,0,l)
);
}
);
width = 257;
},
{
anchors = (
{
name = b.cedilla_2;
position = "{147, 0}";
},
{
name = b.ogonek_3;
position = "{191, 0}";
}
);
layerId = "1F8C5CD1-3431-41E3-A60F-01FCBC1C5BC1";
shapes = (
{
closed = 1;
nodes = (
(111,673,o),
(105,683,o),
(105,694,cs),
(105,701,ls),
(105,712,o),
(111,722,o),
(128,722,cs),
(145,722,o),
(151,712,o),
(151,701,cs),
(151,694,ls),
(151,683,o),
(145,673,o),
(128,673,cs)
);
},
{
closed = 1;
nodes = (
(118,0,l),
(118,506,l),
(139,506,l),
(139,0,l)
);
}
);
width = 257;
}
);
leftKerningGroup = i2;
rightKerningGroup = i;
unicode = 105;
}
{
glyphname = j;
layers = (
{
layerId = "7AA3F0E6-41A7-43FF-9A92-631D90721C2F";
shapes = (
{
closed = 1;
nodes = (
(54,-85,l),
(54,525,l),
(202,525,l),
(202,-56,ls),
(202,-149,o),
(157,-200,o),
(54,-200,cs),
(-24,-200,l),
(-24,-85,l)
);
},
{
closed = 1;
nodes = (
(68,581,o),
(42,613,o),
(42,654,cs),
(42,676,ls),
(42,719,o),
(68,749,o),
(128,749,cs),
(188,749,o),
(214,719,o),
(214,676,cs),
(214,654,ls),
(214,613,o),
(188,581,o),
(128,581,cs)
);
}
);
width = 257;
},
{
layerId = "8E9CA4E0-9900-4C00-AB62-7898C7C10EDA";
shapes = (
{
closed = 1;
nodes = (
(82,-121,l),
(82,518,l),
(175,518,l),
(175,-75,ls),
(175,-151,o),
(139,-200,o),
(56,-200,cs),
(-1,-200,l),
(-1,-121,l)
);
},
{
closed = 1;
nodes = (
(91,626,o),
(72,648,o),
(72,677,cs),
(72,691,ls),
(72,722,o),
(91,742,o),
(128,742,cs),
(168,742,o),
(184,722,o),
(184,691,cs),
(184,677,ls),
(184,648,o),
(168,626,o),
(128,626,cs)
);
}
);
width = 257;
},
{
layerId = "43C84C2D-48F1-4CCB-8D92-E3AB8A629B7A";
shapes = (
{
closed = 1;
nodes = (
(118,-181,l),
(118,506,l),
(139,506,l),
(139,-171,ls),
(139,-191,o),
(130,-200,o),
(110,-200,cs),
(33,-200,l),
(33,-181,l)
);
},
{
closed = 1;
nodes = (
(111,673,o),
(105,683,o),
(105,694,cs),
(105,701,ls),
(105,712,o),
(111,722,o),
(128,722,cs),
(145,722,o),
(151,712,o),
(151,701,cs),
(151,694,ls),
(151,683,o),
(145,673,o),
(128,673,cs)
);
}
);
width = 257;
}
);
leftKerningGroup = j2;
rightKerningGroup = j;
unicode = 106;
}
{
glyphname = k;
layers = (
{
anchors = (
{
name = b.cedilla_2;
position = "{304, 0}";
}
);
layerId = "7AA3F0E6-41A7-43FF-9A92-631D90721C2F";
shapes = (
{
closed = 1;
nodes = (
(49,0,l),
(49,740,l),
(197,740,l),
(197,415,l),
(197,303,l),
(203,303,l),
(268,400,l),
(373,525,l),
(537,525,l),
(362,324,l),
(557,0,l),
(381,0,l),
(263,222,l),
(197,148,l),
(197,0,l)
);
}
);
width = 537;
},
{
anchors = (
{
name = b.cedilla_2;
position = "{324, 0}";
}
);
layerId = "8E9CA4E0-9900-4C00-AB62-7898C7C10EDA";
shapes = (
{
closed = 1;
nodes = (
(82,0,l),
(82,740,l),
(175,740,l),
(175,373,l),
(175,277,l),
(179,277,l),
(256,367,l),
(394,518,l),
(504,518,l),
(316,314,l),
(523,0,l),
(411,0,l),
(250,255,l),
(175,177,l),
(175,0,l)
);
}
);
width = 537;
},
{
anchors = (
{
name = b.cedilla_2;
position = "{325, 0}";
}
);
layerId = "43C84C2D-48F1-4CCB-8D92-E3AB8A629B7A";
shapes = (
{
closed = 1;
nodes = (
(128,0,l),
(128,740,l),
(149,740,l),
(149,299,l),
(149,220,l),
(152,220,l),
(232,299,l),
(439,506,l),
(467,506,l),
(252,292,l),
(494,0,l),
(468,0,l),
(237,277,l),
(149,190,l),
(149,0,l)
);
}
);
width = 537;
}
);
leftKerningGroup = b2;
rightKerningGroup = k;
unicode = 107;
}
{
glyphname = l;
layers = (
{
anchors = (
{
name = t.ring;
position = "{130, 740}";
},
{
name = t.uni02BC_1;
position = "{267, 740}";
},
{
name = b.cedilla_2;
position = "{162, 0}";
}
);
layerId = "9A8FE613-2BB2-428D-A7DB-46DFB705B86D";
shapes = (
{
closed = 1;
nodes = (
(270,0,l),
(203,0,ls),
(102,0,o),
(56,51,o),
(56,144,cs),
(56,740,l),
(204,740,l),
(204,115,l),
(270,115,l)
);
}
);
width = 278;
},
{
anchors = (
{
name = t.ring;
position = "{143, 740}";
},
{
name = t.uni02BC_1;
position = "{280, 740}";
},
{
name = b.cedilla_2;
position = "{175, 0}";
}
);
layerId = "1513CFE8-5A13-42D2-8271-7D7365DF70DB";
shapes = (
{
closed = 1;
nodes = (
(249,0,l),
(179,0,ls),
(115,0,o),
(82,38,o),
(82,95,cs),
(82,740,l),
(175,740,l),
(175,79,l),
(249,79,l)
);
}
);
width = 278;
},
{
anchors = (
{
name = t.ring;
position = "{146, 740}";
},
{
name = t.uni02BC_1;
position = "{289, 740}";
},
{
name = b.cedilla_2;
position = "{186, 0}";
}
);
layerId = "1F8C5CD1-3431-41E3-A60F-01FCBC1C5BC1";
shapes = (
{
closed = 1;
nodes = (
(224,0,l),
(147,0,ls),
(127,0,o),
(118,9,o),
(118,29,cs),
(118,740,l),
(139,740,l),
(139,19,l),
(224,19,l)
);
}
);
width = 278;
}
);
leftKerningGroup = l2;
rightKerningGroup = l;
unicode = 108;
}
{
glyphname = m;
layers = (
{
anchors = (
{
name = t.ring;
position = "{441, 540}";
},
{
name = b.cedilla_2;
position = "{441, 0}";
}
);
layerId = "9A8FE613-2BB2-428D-A7DB-46DFB705B86D";
shapes = (
{
closed = 1;
nodes = (
(208,0,l),
(60,0,l),
(60,525,l),
(208,525,l),
(208,436,l),
(214,436,l),
(233,492,o),
(278,537,o),
(355,537,cs),
(427,537,o),
(479,500,o),
(502,431,c),
(505,431,l),
(524,490,o),
(585,537,o),
(665,537,cs),
(766,537,o),
(822,461,o),
(822,329,cs),
(822,0,l),
(674,0,l),
(674,317,ls),
(674,385,o),
(651,417,o),
(602,417,cs),
(587,417,o),
(573,414,o),
(560,409,cs),
(533,397,o),
(515,375,o),
(515,340,cs),
(515,0,l),
(367,0,l),
(367,317,ls),
(367,385,o),
(343,417,o),
(295,417,cs),
(281,417,o),
(267,414,o),
(254,409,cs),
(227,397,o),
(208,375,o),
(208,340,cs)
);
}
);
width = 877;
},
{
anchors = (
{
name = t.ring;
position = "{450, 540}";
},
{
name = b.cedilla_2;
position = "{450, 0}";
}
);
layerId = "1513CFE8-5A13-42D2-8271-7D7365DF70DB";
shapes = (
{
closed = 1;
nodes = (
(175,0,l),
(82,0,l),
(82,518,l),
(175,518,l),
(175,433,l),
(179,433,l),
(202,486,o),
(239,530,o),
(319,530,cs),
(387,530,o),
(447,498,o),
(475,425,c),
(477,425,l),
(496,481,o),
(547,530,o),
(634,530,cs),
(739,530,o),
(800,458,o),
(800,331,cs),
(800,0,l),
(707,0,l),
(707,317,ls),
(707,404,o),
(675,449,o),
(602,449,cs),
(583,449,o),
(564,446,o),
(547,439,cs),
(511,425,o),
(488,396,o),
(488,355,cs),
(488,0,l),
(395,0,l),
(395,317,ls),
(395,405,o),
(362,449,o),
(291,449,cs),
(272,449,o),
(253,446,o),
(235,439,cs),
(199,425,o),
(175,396,o),
(175,355,cs)
);
}
);
width = 877;
},
{
anchors = (
{
name = t.ring;
position = "{455, 540}";
},
{
name = b.cedilla_2;
position = "{455, 0}";
}
);
layerId = "1F8C5CD1-3431-41E3-A60F-01FCBC1C5BC1";
shapes = (
{
closed = 1;
nodes = (
(125,0,l),
(104,0,l),
(104,506,l),
(125,506,l),
(125,430,l),
(128,430,l),
(147,475,o),
(192,518,o),
(281,518,cs),
(364,518,o),
(420,479,o),
(440,406,c),
(444,406,l),
(463,471,o),
(517,518,o),
(610,518,cs),
(723,518,o),
(783,452,o),
(783,325,cs),
(783,0,l),
(762,0,l),
(762,322,ls),
(762,445,o),
(708,499,o),
(608,499,cs),
(581,499,o),
(555,494,o),
(532,484,cs),
(485,463,o),
(454,423,o),
(454,360,cs),
(454,0,l),
(433,0,l),
(433,322,ls),
(433,445,o),
(378,499,o),
(279,499,cs),
(252,499,o),
(227,494,o),
(204,484,cs),
(156,464,o),
(125,423,o),
(125,362,cs)
);
}
);
width = 877;
}
);
leftKerningGroup = m;
rightKerningGroup = h;
unicode = 109;
}
{
glyphname = n;
layers = (
{
anchors = (
{
name = t.ring;
position = "{287, 540}";
},
{
name = b.cedilla_2;
position = "{290, 0}";
}
);
layerId = "7AA3F0E6-41A7-43FF-9A92-631D90721C2F";
shapes = (
{
closed = 1;
nodes = (
(205,0,l),
(57,0,l),
(57,525,l),
(205,525,l),
(205,436,l),
(211,436,l),
(230,491,o),
(274,537,o),
(357,537,cs),
(464,537,o),
(521,461,o),
(521,329,cs),
(521,0,l),
(373,0,l),
(373,317,ls),
(373,384,o),
(355,417,o),
(300,417,cs),
(284,417,o),
(269,414,o),
(255,409,cs),
(226,397,o),
(205,375,o),
(205,340,cs)
);
}
);
width = 573;
},
{
anchors = (
{
name = t.ring;
position = "{299, 540}";
},
{
name = b.cedilla_2;
position = "{302, 0}";
}
);
layerId = "8E9CA4E0-9900-4C00-AB62-7898C7C10EDA";
shapes = (
{
closed = 1;
nodes = (
(175,0,l),
(82,0,l),
(82,518,l),
(175,518,l),
(175,433,l),
(179,433,l),
(203,490,o),
(248,530,o),
(325,530,cs),
(432,530,o),
(497,458,o),
(497,331,cs),
(497,0,l),
(404,0,l),
(404,317,ls),
(404,404,o),
(368,449,o),
(295,449,cs),
(275,449,o),
(256,446,o),
(237,439,cs),
(200,425,o),
(175,396,o),
(175,355,cs)
);
}
);
width = 573;
},
{
anchors = (
{
name = t.ring;
position = "{303, 540}";
},
{
name = b.cedilla_2;
position = "{306, 0}";
}
);
layerId = "43C84C2D-48F1-4CCB-8D92-E3AB8A629B7A";
shapes = (
{
closed = 1;
nodes = (
(134,0,l),
(113,0,l),
(113,506,l),
(134,506,l),
(134,430,l),
(137,430,l),
(156,475,o),
(204,518,o),
(295,518,cs),
(408,518,o),
(469,452,o),
(469,325,cs),
(469,0,l),
(448,0,l),
(448,321,ls),
(448,444,o),
(392,499,o),
(293,499,cs),
(265,499,o),
(239,494,o),
(215,484,cs),
(167,464,o),
(134,423,o),
(134,362,cs)
);
}
);
width = 573;
}
);
leftKerningGroup = m;
rightKerningGroup = h;
unicode = 110;
}
{
glyphname = o;
layers = (
{
anchors = (
{
name = t.ring;
position = "{279, 540}";
},
{
name = b.cedilla_2;
position = "{279, 0}";
}
);
layerId = "7AA3F0E6-41A7-43FF-9A92-631D90721C2F";
shapes = (
{
closed = 1;
nodes = (
(229,-12,o),
(185,-1,o),
(148,22,cs),
(75,66,o),
(34,151,o),
(34,263,cs),
(34,320,o),
(44,368,o),
(64,409,cs),
(103,490,o),
(177,537,o),
(280,537,cs),
(331,537,o),
(375,526,o),
(412,504,cs),
(485,459,o),
(526,376,o),
(526,263,cs),
(526,207,o),
(516,158,o),
(497,117,cs),
(457,34,o),
(383,-12,o),
(280,-12,cs)
);
},
{
closed = 1;
nodes = (
(339,105,o),
(372,144,o),
(372,209,cs),
(372,316,ls),
(372,383,o),
(339,420,o),
(280,420,cs),
(223,420,o),
(188,383,o),
(188,316,cs),
(188,209,ls),
(188,144,o),
(223,105,o),
(280,105,cs)
);
}
);
width = 561;
},
{
anchors = (
{
name = t.ring;
position = "{281, 540}";
},
{
name = b.cedilla_2;
position = "{281, 0}";
}
);
layerId = "8E9CA4E0-9900-4C00-AB62-7898C7C10EDA";
shapes = (
{
closed = 1;
nodes = (
(233,-12,o),
(192,-1,o),
(157,22,c),
(86,66,o),
(45,150,o),
(45,259,cs),
(45,314,o),
(55,362,o),
(75,403,cs),
(114,483,o),
(187,530,o),
(280,530,cs),
(327,530,o),
(369,519,o),
(404,497,cs),
(475,452,o),
(516,370,o),
(516,259,cs),
(516,204,o),
(506,157,o),
(487,116,cs),
(447,35,o),
(375,-12,o),
(280,-12,cs)
);
},
{
closed = 1;
nodes = (
(361,68,o),
(417,118,o),
(417,219,cs),
(417,299,ls),
(417,400,o),
(361,450,o),
(280,450,cs),
(200,450,o),
(144,400,o),
(144,299,cs),
(144,219,ls),
(144,118,o),
(200,68,o),
(280,68,cs)
);
}
);
width = 561;
},
{
anchors = (
{
name = t.ring;
position = "{281, 540}";
},
{
name = b.cedilla_2;
position = "{281, 0}";
}
);
layerId = "43C84C2D-48F1-4CCB-8D92-E3AB8A629B7A";
shapes = (
{
closed = 1;
nodes = (
(236,-12,o),
(198,-2,o),
(167,18,cs),
(104,58,o),
(70,137,o),
(70,253,cs),
(70,312,o),
(78,361,o),
(95,400,cs),
(128,478,o),
(192,518,o),
(280,518,cs),
(324,518,o),
(362,508,o),
(393,488,cs),
(456,448,o),
(490,370,o),
(490,253,cs),
(490,195,o),
(482,146,o),
(465,107,cs),
(432,28,o),
(368,-12,o),
(280,-12,cs)
);
},
{
closed = 1;
nodes = (
(400,7,o),
(467,93,o),
(467,229,cs),
(467,277,ls),
(467,413,o),
(400,499,o),
(280,499,cs),
(160,499,o),
(93,413,o),
(93,277,cs),
(93,229,ls),
(93,93,o),
(160,7,o),
(280,7,cs)
);
}
);
width = 561;
}
);
leftKerningGroup = c2;
rightKerningGroup = o;
unicode = 111;
}
{
glyphname = p;
layers = (
{
anchors = (
{
name = t.ring;
position = "{305, 540}";
}
);
layerId = "7AA3F0E6-41A7-43FF-9A92-631D90721C2F";
shapes = (
{
closed = 1;
nodes = (
(57,-200,l),
(57,525,l),
(205,525,l),
(205,437,l),
(210,437,l),
(217,466,o),
(234,490,o),
(261,509,cs),
(287,528,o),
(317,537,o),
(351,537,cs),
(396,537,o),
(433,527,o),
(463,506,cs),
(522,464,o),
(553,382,o),
(553,263,cs),
(553,204,o),
(545,154,o),
(530,113,cs),
(499,31,o),
(440,-12,o),
(351,-12,cs),
(317,-12,o),
(287,-3,o),
(261,17,c),
(234,36,o),
(217,59,o),
(210,88,c),
(205,88,l),
(205,-200,l)
);
},
{
closed = 1;
nodes = (
(358,108,o),
(399,152,o),
(399,217,cs),
(399,308,ls),
(399,375,o),
(358,417,o),
(302,417,cs),
(283,417,o),
(267,414,o),
(252,408,cs),
(223,396,o),
(205,372,o),
(205,340,cs),
(205,185,ls),
(205,169,o),
(209,155,o),
(218,144,c),
(234,120,o),
(265,108,o),
(302,108,cs)
);
}
);
width = 585;
},
{
anchors = (
{
name = t.ring;
position = "{317, 540}";
}
);
layerId = "8E9CA4E0-9900-4C00-AB62-7898C7C10EDA";
shapes = (
{
closed = 1;
nodes = (
(82,-200,l),
(82,518,l),
(175,518,l),
(175,433,l),
(179,433,l),
(191,465,o),
(210,489,o),
(237,506,cs),
(263,522,o),
(293,530,o),
(328,530,cs),
(372,530,o),
(410,519,o),
(441,497,cs),
(503,453,o),
(537,371,o),
(537,259,cs),
(537,204,o),
(529,156,o),
(512,115,cs),
(479,33,o),
(416,-12,o),
(328,-12,cs),
(293,-12,o),
(263,-4,o),
(238,13,cs),
(213,30,o),
(193,54,o),
(179,85,c),
(175,85,l),
(175,-200,l)
);
},
{
closed = 1;
nodes = (
(385,69,o),
(438,127,o),
(438,215,cs),
(438,303,ls),
(438,391,o),
(385,449,o),
(301,449,cs),
(278,449,o),
(257,445,o),
(238,437,cs),
(199,420,o),
(175,391,o),
(175,354,cs),
(175,169,ls),
(175,148,o),
(181,131,o),
(192,116,cs),
(215,86,o),
(256,69,o),
(301,69,cs)
);
}
);
width = 585;
},
{
anchors = (
{
name = t.ring;
position = "{312, 540}";
}
);
layerId = "43C84C2D-48F1-4CCB-8D92-E3AB8A629B7A";
shapes = (
{
closed = 1;
nodes = (
(115,-200,l),
(115,506,l),
(136,506,l),
(136,428,l),
(139,428,l),
(150,450,o),
(169,471,o),
(196,490,cs),
(223,509,o),
(258,518,o),
(303,518,cs),
(348,518,o),
(386,508,o),
(417,489,cs),
(480,449,o),
(515,370,o),
(515,253,cs),
(515,194,o),
(507,145,o),
(490,106,cs),
(456,27,o),
(392,-12,o),
(303,-12,cs),
(258,-12,o),
(223,-3,o),
(196,17,cs),
(169,36,o),
(150,56,o),
(139,78,c),
(136,78,l),
(136,-200,l)
);
},
{
closed = 1;
nodes = (
(424,7,o),
(492,92,o),
(492,229,cs),
(492,277,ls),
(492,414,o),
(424,499,o),
(303,499,cs),
(274,499,o),
(246,493,o),
(221,482,cs),
(170,459,o),
(136,418,o),
(136,363,cs),
(136,143,ls),
(136,116,o),
(144,93,o),
(160,72,cs),
(191,31,o),
(244,7,o),
(303,7,cs)
);
}
);
width = 585;
}
);
rightKerningGroup = b;
unicode = 112;
}
{
glyphname = q;
layers = (
{
anchors = (
{
name = t.ring;
position = "{279, 540}";
}
);
layerId = "7AA3F0E6-41A7-43FF-9A92-631D90721C2F";
shapes = (
{
closed = 1;
nodes = (
(379,-200,l),
(379,88,l),
(374,88,l),
(367,59,o),
(350,36,o),
(324,17,cs),
(297,-3,o),
(267,-12,o),
(233,-12,cs),
(189,-12,o),
(152,-2,o),
(122,20,cs),
(62,62,o),
(31,144,o),
(31,263,cs),
(31,322,o),
(39,372,o),
(54,413,cs),
(85,494,o),
(145,537,o),
(233,537,cs),
(267,537,o),
(297,528,o),
(324,509,cs),
(350,490,o),
(367,466,o),
(374,437,c),
(379,437,l),
(379,525,l),
(527,525,l),
(527,-200,l)
);
},
{
closed = 1;
nodes = (
(301,108,o),
(317,111,o),
(332,117,cs),
(361,129,o),
(379,153,o),
(379,185,cs),
(379,340,ls),
(379,356,o),
(375,370,o),
(367,382,cs),
(350,405,o),
(319,417,o),
(282,417,cs),
(226,417,o),
(185,375,o),
(185,308,cs),
(185,217,ls),
(185,152,o),
(226,108,o),
(282,108,cs)
);
}
);
width = 585;
},
{
anchors = (
{
name = t.ring;
position = "{291, 540}";
}
);
layerId = "8E9CA4E0-9900-4C00-AB62-7898C7C10EDA";
shapes = (
{
closed = 1;
nodes = (
(410,-200,l),
(410,85,l),
(406,85,l),
(393,54,o),
(373,30,o),
(348,13,cs),
(323,-4,o),
(292,-12,o),
(257,-12,cs),
(214,-12,o),
(177,-1,o),
(146,21,cs),
(83,64,o),
(49,148,o),
(49,259,cs),
(49,315,o),
(57,363,o),
(74,404,cs),
(107,484,o),
(172,530,o),
(257,530,cs),
(292,530,o),
(323,522,o),
(349,506,cs),
(375,489,o),
(394,465,o),
(406,433,c),
(410,433,l),
(410,518,l),
(503,518,l),
(503,-200,l)
);
},
{
closed = 1;
nodes = (
(308,69,o),
(330,73,o),
(349,81,cs),
(387,97,o),
(410,128,o),
(410,169,cs),
(410,354,ls),
(410,373,o),
(405,389,o),
(394,403,cs),
(372,431,o),
(332,449,o),
(284,449,cs),
(201,449,o),
(148,391,o),
(148,303,cs),
(148,215,ls),
(148,127,o),
(201,69,o),
(284,69,cs)
);
}
);
width = 585;
},
{
anchors = (
{
name = t.ring;
position = "{300, 540}";
}
);
layerId = "43C84C2D-48F1-4CCB-8D92-E3AB8A629B7A";
shapes = (
{
closed = 1;
nodes = (
(449,-200,l),
(449,78,l),
(446,78,l),
(435,56,o),
(417,36,o),
(390,17,cs),
(363,-3,o),
(327,-12,o),
(282,-12,cs),
(238,-12,o),
(200,-2,o),
(169,18,cs),
(105,57,o),
(70,136,o),
(70,253,cs),
(70,312,o),
(79,361,o),
(96,400,cs),
(130,479,o),
(194,518,o),
(282,518,cs),
(327,518,o),
(363,509,o),
(390,490,cs),
(417,471,o),
(435,450,o),
(446,428,c),
(449,428,l),
(449,506,l),
(470,506,l),
(470,-200,l)
);
},
{
closed = 1;
nodes = (
(311,7,o),
(339,13,o),
(364,24,cs),
(415,47,o),
(449,90,o),
(449,143,cs),
(449,363,ls),
(449,390,o),
(441,414,o),
(426,435,c),
(394,475,o),
(341,499,o),
(282,499,cs),
(161,499,o),
(93,414,o),
(93,277,cs),
(93,229,ls),
(93,92,o),
(161,7,o),
(282,7,cs)
);
}
);
width = 585;
}
);
leftKerningGroup = d;
rightKerningGroup = j;
unicode = 113;
}
{
glyphname = r;
layers = (
{
anchors = (
{
name = t.ring;
position = "{209, 540}";
},
{
name = b.cedilla_2;
position = "{128, 0}";
}
);
layerId = "9A8FE613-2BB2-428D-A7DB-46DFB705B86D";
shapes = (
{
closed = 1;
nodes = (
(202,0,l),
(54,0,l),
(54,525,l),
(202,525,l),
(202,411,l),
(207,411,l),
(211,430,o),
(218,449,o),
(229,466,cs),
(250,501,o),
(286,525,o),
(341,525,cs),
(366,525,o),
(396,517,o),
(425,502,c),
(367,377,l),
(353,383,o),
(340,387,o),
(330,387,cs),
(301,387,o),
(278,385,o),
(259,380,cs),
(221,370,o),
(202,348,o),
(202,307,cs)
);
}
);
width = 414;
},
{
anchors = (
{
name = t.ring;
position = "{224, 540}";
},
{
name = b.cedilla_2;
position = "{143, 0}";
}
);
layerId = "1513CFE8-5A13-42D2-8271-7D7365DF70DB";
shapes = (
{
closed = 1;
nodes = (
(175,0,l),
(82,0,l),
(82,518,l),
(175,518,l),
(175,419,l),
(180,419,l),
(185,436,o),
(194,453,o),
(207,468,cs),
(231,498,o),
(270,518,o),
(326,518,cs),
(344,518,o),
(371,511,o),
(391,502,c),
(356,418,l),
(342,424,o),
(326,427,o),
(311,427,cs),
(282,427,o),
(258,423,o),
(238,416,cs),
(197,401,o),
(175,377,o),
(175,342,cs)
);
}
);
width = 414;
},
{
anchors = (
{
name = t.ring;
position = "{242, 540}";
},
{
name = b.cedilla_2;
position = "{148, 0}";
}
);
layerId = "1F8C5CD1-3431-41E3-A60F-01FCBC1C5BC1";
shapes = (
{
closed = 1;
nodes = (
(142,0,l),
(121,0,l),
(121,506,l),
(142,506,l),
(142,419,l),
(145,419,l),
(153,435,o),
(163,450,o),
(176,463,cs),
(201,489,o),
(242,506,o),
(303,506,cs),
(317,506,o),
(337,502,o),
(350,497,c),
(344,479,l),
(330,484,o),
(315,487,o),
(300,487,cs),
(273,487,o),
(247,482,o),
(223,472,cs),
(175,452,o),
(142,412,o),
(142,349,cs)
);
}
);
width = 414;
}
);
leftKerningGroup = m;
rightKerningGroup = r;
unicode = 114;
}
{
glyphname = s;
layers = (
{
anchors = (
{
name = t.ring;
position = "{243, 540}";
},
{
name = b.cedilla_2;
position = "{242, 0}";
}
);
layerId = "9A8FE613-2BB2-428D-A7DB-46DFB705B86D";
shapes = (
{
closed = 1;
nodes = (
(139,-12,o),
(74,22,o),
(19,82,c),
(106,170,l),
(143,129,o),
(188,103,o),
(245,103,cs),
(304,103,o),
(323,122,o),
(323,153,cs),
(323,180,o),
(307,192,o),
(270,197,cs),
(213,204,ls),
(174,209,o),
(141,219,o),
(115,232,cs),
(62,259,o),
(36,303,o),
(36,366,cs),
(36,417,o),
(54,458,o),
(91,490,cs),
(128,521,o),
(177,537,o),
(240,537,cs),
(277,537,o),
(308,534,o),
(333,528,cs),
(384,515,o),
(419,490,o),
(454,455,c),
(369,368,l),
(352,385,o),
(334,398,o),
(313,408,cs),
(292,417,o),
(270,422,o),
(248,422,cs),
(199,422,o),
(178,405,o),
(178,378,cs),
(178,350,o),
(190,336,o),
(233,329,c),
(292,321,ls),
(407,306,o),
(465,254,o),
(465,163,cs),
(465,130,o),
(456,100,o),
(437,73,cs),
(400,20,o),
(331,-12,o),
(240,-12,cs)
);
}
);
width = 490;
},
{
anchors = (
{
name = t.ring;
position = "{250, 540}";
},
{
name = b.cedilla_2;
position = "{249, 0}";
}
);
layerId = "1513CFE8-5A13-42D2-8271-7D7365DF70DB";
shapes = (
{
closed = 1;
nodes = (
(145,-12,o),
(82,27,o),
(34,88,c),
(97,142,l),
(136,94,o),
(183,65,o),
(247,65,cs),
(314,65,o),
(349,94,o),
(349,142,cs),
(349,181,o),
(329,208,o),
(266,216,c),
(222,223,ls),
(189,228,o),
(160,236,o),
(135,247,cs),
(84,270,o),
(54,310,o),
(54,374,cs),
(54,425,o),
(72,464,o),
(107,491,cs),
(142,517,o),
(187,530,o),
(242,530,cs),
(272,530,o),
(298,527,o),
(321,520,cs),
(365,507,o),
(400,482,o),
(429,447,c),
(370,391,l),
(357,408,o),
(340,422,o),
(319,435,c),
(297,447,o),
(270,453,o),
(239,453,cs),
(176,453,o),
(144,424,o),
(144,380,cs),
(144,335,o),
(174,315,o),
(234,306,cs),
(278,299,l),
(393,283,o),
(439,232,o),
(439,152,cs),
(439,119,o),
(431,90,o),
(415,65,cs),
(383,16,o),
(322,-12,o),
(241,-12,cs)
);
}
);
width = 490;
},
{
anchors = (
{
name = t.ring;
position = "{249, 540}";
},
{
name = b.cedilla_2;
position = "{260, 0}";
}
);
layerId = "1F8C5CD1-3431-41E3-A60F-01FCBC1C5BC1";
shapes = (
{
closed = 1;
nodes = (
(169,-12,o),
(110,16,o),
(63,81,c),
(81,93,l),
(128,30,o),
(177,7,o),
(250,7,cs),
(345,7,o),
(396,49,o),
(396,124,cs),
(396,200,o),
(352,232,o),
(268,245,cs),
(224,252,ls),
(195,257,o),
(169,264,o),
(148,275,c),
(104,295,o),
(80,330,o),
(80,389,cs),
(80,432,o),
(96,464,o),
(127,486,cs),
(158,507,o),
(195,518,o),
(240,518,cs),
(269,518,o),
(294,515,o),
(315,508,cs),
(356,494,o),
(386,470,o),
(407,445,c),
(391,431,l),
(376,448,o),
(357,464,o),
(335,478,cs),
(312,492,o),
(281,499,o),
(241,499,cs),
(157,499,o),
(101,461,o),
(101,390,cs),
(101,315,o),
(143,287,o),
(228,272,cs),
(272,265,ls),
(360,252,o),
(417,214,o),
(417,125,cs),
(417,96,o),
(410,72,o),
(397,51,c),
(369,10,o),
(319,-12,o),
(250,-12,cs)
);
}
);
width = 490;
}
);
leftKerningGroup = s2;
rightKerningGroup = s;
unicode = 115;
}
{
glyphname = t;
layers = (
{
anchors = (
{
name = t.uni02BC_1;
position = "{295, 791}";
},
{
name = b.cedilla_2;
position = "{216, 0}";
}
);
layerId = "7AA3F0E6-41A7-43FF-9A92-631D90721C2F";
shapes = (
{
closed = 1;
nodes = (
(328,0,l),
(240,0,ls),
(139,0,o),
(84,53,o),
(84,153,cs),
(84,410,l),
(10,410,l),
(10,525,l),
(47,525,ls),
(87,525,o),
(99,545,o),
(99,581,cs),
(99,667,l),
(232,667,l),
(232,525,l),
(336,525,l),
(336,410,l),
(232,410,l),
(232,115,l),
(328,115,l)
);
}
);
width = 357;
},
{
anchors = (
{
name = t.uni02BC_1;
position = "{308, 791}";
},
{
name = b.cedilla_2;
position = "{229, 0}";
}
);
layerId = "8E9CA4E0-9900-4C00-AB62-7898C7C10EDA";
shapes = (
{
closed = 1;
nodes = (
(307,0,l),
(209,0,ls),
(146,0,o),
(111,39,o),
(111,98,cs),
(111,439,l),
(28,439,l),
(28,518,l),
(74,518,ls),
(110,518,o),
(120,531,o),
(120,566,cs),
(120,661,l),
(204,661,l),
(204,518,l),
(315,518,l),
(315,439,l),
(204,439,l),
(204,79,l),
(307,79,l)
);
}
);
width = 357;
},
{
anchors = (
{
name = t.uni02BC_1;
position = "{314, 780}";
},
{
name = b.cedilla_2;
position = "{229, 0}";
}
);
layerId = "43C84C2D-48F1-4CCB-8D92-E3AB8A629B7A";
shapes = (
{
closed = 1;
nodes = (
(282,0,l),
(177,0,ls),
(157,0,o),
(148,9,o),
(148,29,cs),
(148,487,l),
(53,487,l),
(53,506,l),
(125,506,ls),
(144,506,o),
(148,514,o),
(148,531,cs),
(148,650,l),
(169,650,l),
(169,506,l),
(290,506,l),
(290,487,l),
(169,487,l),
(169,19,l),
(282,19,l)
);
}
);
width = 357;
}
);
leftKerningGroup = t2;
rightKerningGroup = t;
unicode = 116;
}
{
glyphname = u;
layers = (
{
anchors = (
{
name = t.ring;
position = "{283, 540}";
},
{
name = b.cedilla_2;
position = "{283, 0}";
},
{
name = b.ogonek_3;
position = "{516, 0}";
}
);
layerId = "7AA3F0E6-41A7-43FF-9A92-631D90721C2F";
shapes = (
{
closed = 1;
nodes = (
(367,0,l),
(367,88,l),
(362,88,l),
(353,61,o),
(338,38,o),
(315,18,cs),
(292,-2,o),
(258,-12,o),
(215,-12,cs),
(108,-12,o),
(51,63,o),
(51,195,cs),
(51,525,l),
(199,525,l),
(199,208,ls),
(199,144,o),
(221,108,o),
(274,108,cs),
(289,108,o),
(304,111,o),
(319,117,cs),
(347,128,o),
(367,151,o),
(367,184,cs),
(367,525,l),
(515,525,l),
(515,0,l)
);
}
);
width = 573;
},
{
anchors = (
{
name = t.ring;
position = "{295, 540}";
},
{
name = b.cedilla_2;
position = "{295, 0}";
},
{
name = b.ogonek_3;
position = "{528, 0}";
}
);
layerId = "8E9CA4E0-9900-4C00-AB62-7898C7C10EDA";
shapes = (
{
closed = 1;
nodes = (
(398,0,l),
(398,85,l),
(394,85,l),
(385,60,o),
(369,37,o),
(347,18,cs),
(325,-2,o),
(292,-12,o),
(249,-12,cs),
(144,-12,o),
(77,60,o),
(77,187,cs),
(77,518,l),
(170,518,l),
(170,201,ls),
(170,114,o),
(207,69,o),
(280,69,cs),
(300,69,o),
(319,72,o),
(337,79,cs),
(373,92,o),
(398,120,o),
(398,164,cs),
(398,518,l),
(491,518,l),
(491,0,l)
);
}
);
width = 573;
},
{
anchors = (
{
name = t.ring;
position = "{294, 540}";
},
{
name = b.cedilla_2;
position = "{294, 0}";
},
{
name = b.ogonek_3;
position = "{504, 0}";
}
);
layerId = "43C84C2D-48F1-4CCB-8D92-E3AB8A629B7A";
shapes = (
{
closed = 1;
nodes = (
(438,0,l),
(438,76,l),
(435,76,l),
(426,53,o),
(409,33,o),
(384,15,cs),
(358,-3,o),
(322,-12,o),
(277,-12,cs),
(164,-12,o),
(103,56,o),
(103,181,cs),
(103,506,l),
(124,506,l),
(124,185,ls),
(124,62,o),
(180,7,o),
(279,7,cs),
(307,7,o),
(333,12,o),
(357,22,cs),
(405,42,o),
(438,83,o),
(438,144,cs),
(438,506,l),
(459,506,l),
(459,0,l)
);
}
);
width = 573;
}
);
leftKerningGroup = u2;
rightKerningGroup = u;
unicode = 117;
}
{
glyphname = v;
layers = (
{
anchors = (
{
name = t.ring;
position = "{250, 540}";
},
{
name = b.cedilla_2;
position = "{250, 0}";
}
);
layerId = "9A8FE613-2BB2-428D-A7DB-46DFB705B86D";
shapes = (
{
closed = 1;
nodes = (
(338,0,l),
(162,0,l),
(-10,525,l),
(136,525,l),
(201,313,l),
(250,123,l),
(258,123,l),
(307,313,l),
(370,525,l),
(510,525,l)
);
}
);
width = 501;
},
{
anchors = (
{
name = t.ring;
position = "{269, 540}";
},
{
name = b.cedilla_2;
position = "{269, 0}";
}
);
layerId = "1513CFE8-5A13-42D2-8271-7D7365DF70DB";
shapes = (
{
closed = 1;
nodes = (
(304,0,l),
(196,0,l),
(16,518,l),
(109,518,l),
(194,270,l),
(249,91,l),
(254,91,l),
(309,270,l),
(395,518,l),
(484,518,l)
);
}
);
width = 501;
},
{
anchors = (
{
name = t.ring;
position = "{273, 540}";
},
{
name = b.cedilla_2;
position = "{273, 0}";
}
);
layerId = "1F8C5CD1-3431-41E3-A60F-01FCBC1C5BC1";
shapes = (
{
closed = 1;
nodes = (
(263,0,l),
(237,0,l),
(49,506,l),
(71,506,l),
(188,189,l),
(249,24,l),
(252,24,l),
(313,189,l),
(430,506,l),
(451,506,l)
);
}
);
width = 501;
}
);
unicode = 118;
}
{
glyphname = w;
layers = (
{
anchors = (
{
name = t.ring;
position = "{391, 540}";
},
{
name = b.cedilla_2;
position = "{391, 0}";
}
);
layerId = "9A8FE613-2BB2-428D-A7DB-46DFB705B86D";
shapes = (
{
closed = 1;
nodes = (
(136,0,l),
(-11,525,l),
(132,525,l),
(183,313,l),
(219,153,l),
(223,153,l),
(265,313,l),
(325,525,l),
(460,525,l),
(521,313,l),
(564,153,l),
(568,153,l),
(604,313,l),
(655,525,l),
(792,525,l),
(647,0,l),
(492,0,l),
(428,222,l),
(391,358,l),
(388,358,l),
(352,222,l),
(288,0,l)
);
}
);
width = 782;
},
{
anchors = (
{
name = t.ring;
position = "{421, 540}";
},
{
name = b.cedilla_2;
position = "{421, 0}";
}
);
layerId = "1513CFE8-5A13-42D2-8271-7D7365DF70DB";
shapes = (
{
closed = 1;
nodes = (
(168,0,l),
(29,518,l),
(119,518,l),
(173,297,l),
(225,83,l),
(227,83,l),
(286,297,l),
(350,518,l),
(433,518,l),
(499,297,l),
(559,83,l),
(562,83,l),
(611,297,l),
(666,518,l),
(753,518,l),
(615,0,l),
(505,0,l),
(435,243,l),
(391,396,l),
(389,396,l),
(346,243,l),
(276,0,l)
);
}
);
width = 782;
},
{
anchors = (
{
name = t.ring;
position = "{428, 540}";
},
{
name = b.cedilla_2;
position = "{428, 0}";
}
);
layerId = "1F8C5CD1-3431-41E3-A60F-01FCBC1C5BC1";
shapes = (
{
closed = 1;
nodes = (
(217,0,l),
(63,506,l),
(85,506,l),
(180,191,l),
(229,27,l),
(232,27,l),
(283,191,l),
(380,506,l),
(402,506,l),
(499,191,l),
(550,27,l),
(553,27,l),
(602,191,l),
(697,506,l),
(718,506,l),
(564,0,l),
(538,0,l),
(443,308,l),
(392,472,l),
(389,472,l),
(338,308,l),
(243,0,l)
);
}
);
width = 782;
}
);
leftKerningGroup = w2;
rightKerningGroup = w;
unicode = 119;
}
{
glyphname = x;
layers = (
{
anchors = (
{
name = t.ring;
position = "{258, 540}";
},
{
name = b.cedilla_2;
position = "{258, 0}";
}
);
layerId = "9A8FE613-2BB2-428D-A7DB-46DFB705B86D";
shapes = (
{
closed = 1;
nodes = (
(-4,0,l),
(169,267,l),
(-2,525,l),
(166,525,l),
(264,360,l),
(268,360,l),
(363,525,l),
(519,525,l),
(345,262,l),
(520,0,l),
(352,0,l),
(251,171,l),
(247,171,l),
(150,0,l)
);
}
);
width = 517;
},
{
anchors = (
{
name = t.ring;
position = "{280, 540}";
},
{
name = b.cedilla_2;
position = "{280, 0}";
}
);
layerId = "1513CFE8-5A13-42D2-8271-7D7365DF70DB";
shapes = (
{
closed = 1;
nodes = (
(20,0,l),
(208,261,l),
(27,518,l),
(135,518,l),
(260,331,l),
(263,331,l),
(391,518,l),
(493,518,l),
(313,265,l),
(497,0,l),
(389,0,l),
(261,196,l),
(258,196,l),
(122,0,l)
);
}
);
width = 517;
},
{
anchors = (
{
name = t.ring;
position = "{285, 540}";
},
{
name = b.cedilla_2;
position = "{285, 0}";
}
);
layerId = "1F8C5CD1-3431-41E3-A60F-01FCBC1C5BC1";
shapes = (
{
closed = 1;
nodes = (
(57,0,l),
(245,255,l),
(62,506,l),
(86,506,l),
(257,271,l),
(259,271,l),
(430,506,l),
(454,506,l),
(271,255,l),
(459,0,l),
(435,0,l),
(259,239,l),
(257,239,l),
(81,0,l)
);
}
);
width = 517;
}
);
unicode = 120;
}
{
glyphname = y;
layers = (
{
anchors = (
{
name = t.ring;
position = "{257, 540}";
},
{
name = b.cedilla_2;
position = "{418, 0}";
}
);
layerId = "9A8FE613-2BB2-428D-A7DB-46DFB705B86D";
shapes = (
{
closed = 1;
nodes = (
(299,280,l),
(376,525,l),
(514,525,l),
(312,-81,ls),
(303,-108,o),
(292,-130,o),
(279,-148,c),
(251,-183,o),
(211,-200,o),
(151,-200,cs),
(59,-200,l),
(59,-85,l),
(158,-85,l),
(176,-27,l),
(-8,525,l),
(139,525,l),
(216,280,l),
(254,128,l),
(260,128,l)
);
}
);
width = 506;
},
{
anchors = (
{
name = t.ring;
position = "{271, 540}";
},
{
name = b.cedilla_2;
position = "{432, 0}";
}
);
layerId = "1513CFE8-5A13-42D2-8271-7D7365DF70DB";
shapes = (
{
closed = 1;
nodes = (
(285,187,l),
(401,518,l),
(491,518,l),
(265,-113,ls),
(258,-134,o),
(249,-152,o),
(239,-165,cs),
(219,-191,o),
(190,-200,o),
(137,-200,cs),
(87,-200,l),
(87,-121,l),
(171,-121,l),
(206,-21,l),
(15,518,l),
(108,518,l),
(223,187,l),
(249,90,l),
(255,90,l)
);
}
);
width = 506;
},
{
anchors = (
{
name = t.ring;
position = "{276, 540}";
},
{
name = b.cedilla_2;
position = "{423, 0}";
}
);
layerId = "1F8C5CD1-3431-41E3-A60F-01FCBC1C5BC1";
shapes = (
{
closed = 1;
nodes = (
(318,194,l),
(433,506,l),
(454,506,l),
(199,-181,ls),
(198,-185,o),
(196,-189,o),
(193,-192,cs),
(187,-198,o),
(179,-200,o),
(168,-200,cs),
(84,-200,l),
(84,-181,l),
(177,-181,l),
(243,-7,l),
(52,506,l),
(74,506,l),
(189,194,l),
(252,24,l),
(255,24,l)
);
}
);
width = 506;
}
);
leftKerningGroup = y2;
rightKerningGroup = y;
unicode = 121;
}
{
glyphname = z;
layers = (
{
anchors = (
{
name = t.ring;
position = "{237, 540}";
},
{
name = b.cedilla_2;
position = "{237, 0}";
}
);
layerId = "9A8FE613-2BB2-428D-A7DB-46DFB705B86D";
shapes = (
{
closed = 1;
nodes = (
(457,0,l),
(17,0,l),
(17,117,l),
(278,410,l),
(26,410,l),
(26,525,l),
(450,525,l),
(450,409,l),
(188,115,l),
(457,115,l)
);
}
);
width = 474;
},
{
anchors = (
{
name = t.ring;
position = "{259, 540}";
},
{
name = b.cedilla_2;
position = "{259, 0}";
}
);
layerId = "1513CFE8-5A13-42D2-8271-7D7365DF70DB";
shapes = (
{
closed = 1;
nodes = (
(440,0,l),
(34,0,l),
(34,77,l),
(321,439,l),
(43,439,l),
(43,518,l),
(432,518,l),
(432,447,l),
(140,79,l),
(440,79,l)
);
}
);
width = 474;
},
{
anchors = (
{
name = t.ring;
position = "{264, 540}";
},
{
name = b.cedilla_2;
position = "{264, 0}";
}
);
layerId = "1F8C5CD1-3431-41E3-A60F-01FCBC1C5BC1";
shapes = (
{
closed = 1;
nodes = (
(424,0,l),
(55,0,l),
(55,21,l),
(392,487,l),
(65,487,l),
(65,506,l),
(414,506,l),
(414,485,l),
(77,19,l),
(424,19,l)
);
}
);
width = 474;
}
);
leftKerningGroup = z2;
rightKerningGroup = z;
unicode = 122;
}
{
glyphname = braceleft;
layers = (
{
layerId = "7AA3F0E6-41A7-43FF-9A92-631D90721C2F";
shapes = (
{
closed = 1;
nodes = (
(310,-138,l),
(201,-138,ls),
(148,-138,o),
(104,-102,o),
(104,-37,cs),
(104,166,ls),
(104,225,o),
(63,255,o),
(7,255,c),
(7,368,l),
(63,368,o),
(104,400,o),
(104,457,cs),
(104,659,ls),
(104,724,o),
(148,760,o),
(201,760,cs),
(310,760,l),
(310,656,l),
(241,656,l),
(241,441,ls),
(241,420,o),
(236,400,o),
(227,382,c),
(207,346,o),
(174,321,o),
(137,313,c),
(137,309,l),
(156,306,o),
(173,298,o),
(189,286,cs),
(220,262,o),
(241,225,o),
(241,181,cs),
(241,-34,l),
(310,-34,l)
);
}
);
width = 349;
},
{
layerId = "8E9CA4E0-9900-4C00-AB62-7898C7C10EDA";
shapes = (
{
closed = 1;
nodes = (
(290,-138,l),
(202,-138,ls),
(149,-138,o),
(118,-101,o),
(118,-52,cs),
(118,181,ls),
(118,238,o),
(77,269,o),
(21,269,c),
(21,353,l),
(77,353,o),
(118,385,o),
(118,442,cs),
(118,674,ls),
(118,725,o),
(149,760,o),
(202,760,cs),
(290,760,l),
(290,689,l),
(200,689,l),
(200,446,ls),
(200,425,o),
(196,406,o),
(188,388,cs),
(171,351,o),
(141,326,o),
(104,318,c),
(104,304,l),
(123,301,o),
(139,293,o),
(154,281,c),
(182,256,o),
(200,219,o),
(200,176,cs),
(200,-67,l),
(290,-67,l)
);
}
);
width = 349;
},
{
layerId = "43C84C2D-48F1-4CCB-8D92-E3AB8A629B7A";
shapes = (
{
closed = 1;
nodes = (
(264,-138,l),
(164,-138,ls),
(147,-138,o),
(139,-131,o),
(139,-112,cs),
(139,201,ls),
(139,261,o),
(102,287,o),
(42,287,c),
(42,335,l),
(102,335,o),
(139,361,o),
(139,421,cs),
(139,734,ls),
(139,753,o),
(147,760,o),
(164,760,cs),
(264,760,l),
(264,742,l),
(159,742,l),
(159,421,ls),
(159,400,o),
(155,382,o),
(147,367,cs),
(131,336,o),
(100,319,o),
(60,319,c),
(60,303,l),
(80,303,o),
(98,299,o),
(113,291,cs),
(143,274,o),
(159,242,o),
(159,201,cs),
(159,-120,l),
(264,-120,l)
);
}
);
width = 349;
}
);
rightKerningGroup = braceleft;
unicode = 123;
}
{
glyphname = bar;
layers = (
{
layerId = "9A8FE613-2BB2-428D-A7DB-46DFB705B86D";
shapes = (
{
closed = 1;
nodes = (
(228,-138,l),
(102,-138,l),
(102,760,l),
(228,760,l)
);
}
);
width = 331;
},
{
layerId = "1513CFE8-5A13-42D2-8271-7D7365DF70DB";
shapes = (
{
closed = 1;
nodes = (
(205,-138,l),
(126,-138,l),
(126,760,l),
(205,760,l)
);
}
);
width = 331;
},
{
layerId = "1F8C5CD1-3431-41E3-A60F-01FCBC1C5BC1";
shapes = (
{
closed = 1;
nodes = (
(175,-138,l),
(155,-138,l),
(155,760,l),
(175,760,l)
);
}
);
width = 331;
}
);
unicode = 124;
}
{
glyphname = braceright;
layers = (
{
layerId = "7AA3F0E6-41A7-43FF-9A92-631D90721C2F";
shapes = (
{
closed = 1;
nodes = (
(38,760,l),
(147,760,ls),
(202,760,o),
(244,724,o),
(244,659,cs),
(244,457,ls),
(244,400,o),
(285,368,o),
(341,368,c),
(341,255,l),
(285,255,o),
(244,225,o),
(244,166,cs),
(244,-37,ls),
(244,-102,o),
(202,-138,o),
(147,-138,cs),
(38,-138,l),
(38,-34,l),
(107,-34,l),
(107,182,ls),
(107,204,o),
(112,224,o),
(122,242,cs),
(141,278,o),
(174,303,o),
(211,310,c),
(211,314,l),
(192,318,o),
(175,326,o),
(160,338,cs),
(128,362,o),
(107,399,o),
(107,442,cs),
(107,656,l),
(38,656,l)
);
}
);
width = 349;
},
{
layerId = "8E9CA4E0-9900-4C00-AB62-7898C7C10EDA";
shapes = (
{
closed = 1;
nodes = (
(58,760,l),
(147,760,ls),
(200,760,o),
(230,725,o),
(230,674,cs),
(230,442,ls),
(230,385,o),
(271,353,o),
(327,353,c),
(327,269,l),
(271,269,o),
(230,238,o),
(230,181,cs),
(230,-52,ls),
(230,-101,o),
(200,-138,o),
(147,-138,cs),
(58,-138,l),
(58,-67,l),
(148,-67,l),
(148,176,ls),
(148,198,o),
(152,218,o),
(161,236,c),
(177,272,o),
(208,297,o),
(245,304,c),
(245,318,l),
(226,322,o),
(210,330,o),
(195,342,cs),
(166,366,o),
(148,405,o),
(148,446,cs),
(148,689,l),
(58,689,l)
);
}
);
width = 349;
},
{
layerId = "43C84C2D-48F1-4CCB-8D92-E3AB8A629B7A";
shapes = (
{
closed = 1;
nodes = (
(85,760,l),
(185,760,ls),
(202,760,o),
(210,753,o),
(210,734,cs),
(210,421,ls),
(210,361,o),
(247,335,o),
(307,335,c),
(307,287,l),
(247,287,o),
(210,261,o),
(210,201,cs),
(210,-112,ls),
(210,-131,o),
(202,-138,o),
(185,-138,cs),
(85,-138,l),
(85,-120,l),
(190,-120,l),
(190,201,ls),
(190,222,o),
(194,240,o),
(203,255,c),
(219,286,o),
(249,303,o),
(289,303,c),
(289,319,l),
(269,319,o),
(252,323,o),
(237,332,cs),
(208,348,o),
(190,380,o),
(190,421,cs),
(190,742,l),
(85,742,l)
);
}
);
width = 349;
}
);
leftKerningGroup = braceright;
unicode = 125;
}
{
glyphname = asciitilde;
layers = (
{
layerId = "7AA3F0E6-41A7-43FF-9A92-631D90721C2F";
shapes = (
{
closed = 1;
nodes = (
(367,212,o),
(334,227,o),
(290,248,c),
(254,267,o),
(221,281,o),
(180,281,cs),
(151,281,o),
(131,273,o),
(102,254,c),
(53,338,l),
(77,373,o),
(119,400,o),
(184,400,cs),
(233,400,o),
(266,387,o),
(310,364,cs),
(328,355,o),
(346,348,o),
(363,341,cs),
(380,334,o),
(399,331,o),
(420,331,cs),
(451,331,o),
(469,339,o),
(498,358,c),
(547,274,l),
(523,241,o),
(481,212,o),
(416,212,cs)
);
}
);
width = 600;
},
{
layerId = "8E9CA4E0-9900-4C00-AB62-7898C7C10EDA";
shapes = (
{
closed = 1;
nodes = (
(369,231,o),
(337,247,o),
(290,268,c),
(253,287,o),
(219,302,o),
(178,302,cs),
(145,302,o),
(125,292,o),
(96,271,c),
(59,323,l),
(86,356,o),
(121,379,o),
(182,379,cs),
(231,379,o),
(265,365,o),
(310,342,cs),
(329,333,o),
(347,326,o),
(365,319,cs),
(382,312,o),
(401,308,o),
(422,308,cs),
(455,308,o),
(475,319,o),
(504,339,c),
(541,288,l),
(514,255,o),
(479,231,o),
(418,231,cs)
);
}
);
width = 600;
},
{
layerId = "43C84C2D-48F1-4CCB-8D92-E3AB8A629B7A";
shapes = (
{
closed = 1;
nodes = (
(387,256,o),
(357,267,o),
(294,295,cs),
(237,322,o),
(211,332,o),
(175,332,cs),
(136,332,o),
(110,321,o),
(78,290,c),
(65,304,l),
(100,337,o),
(132,352,o),
(176,352,cs),
(215,352,o),
(245,341,o),
(306,313,cs),
(335,300,o),
(358,291,o),
(374,285,cs),
(390,279,o),
(407,276,o),
(425,276,cs),
(464,276,o),
(490,289,o),
(522,318,c),
(535,304,l),
(502,271,o),
(468,256,o),
(424,256,cs)
);
}
);
width = 600;
}
);
unicode = 126;
}
{
glyphname = exclamdown;
layers = (
{
layerId = "9A8FE613-2BB2-428D-A7DB-46DFB705B86D";
shapes = (
{
closed = 1;
nodes = (
(223,-173,l),
(67,-173,l),
(67,21,l),
(113,305,l),
(176,305,l),
(223,21,l)
);
},
{
closed = 1;
nodes = (
(82,361,o),
(56,394,o),
(56,437,cs),
(56,461,ls),
(56,504,o),
(82,537,o),
(145,537,cs),
(208,537,o),
(234,504,o),
(234,461,cs),
(234,437,ls),
(234,394,o),
(208,361,o),
(145,361,cs)
);
}
);
width = 291;
},
{
layerId = "1513CFE8-5A13-42D2-8271-7D7365DF70DB";
shapes = (
{
closed = 1;
nodes = (
(195,-180,l),
(94,-180,l),
(94,21,l),
(122,326,l),
(167,326,l),
(195,21,l)
);
},
{
closed = 1;
nodes = (
(100,392,o),
(79,417,o),
(79,453,cs),
(79,468,ls),
(79,504,o),
(100,530,o),
(145,530,cs),
(192,530,o),
(212,504,o),
(212,468,cs),
(212,453,ls),
(212,417,o),
(192,392,o),
(145,392,cs)
);
}
);
width = 291;
},
{
layerId = "1F8C5CD1-3431-41E3-A60F-01FCBC1C5BC1";
shapes = (
{
closed = 1;
nodes = (
(156,-192,l),
(134,-192,l),
(134,91,l),
(139,330,l),
(151,330,l),
(156,91,l)
);
},
{
closed = 1;
nodes = (
(128,453,o),
(118,462,o),
(118,478,cs),
(118,486,ls),
(118,502,o),
(128,511,o),
(145,511,cs),
(162,511,o),
(172,502,o),
(172,486,cs),
(172,478,ls),
(172,462,o),
(164,453,o),
(145,453,cs)
);
}
);
width = 291;
}
);
unicode = 161;
}
{
glyphname = cent;
layers = (
{
layerId = "7AA3F0E6-41A7-43FF-9A92-631D90721C2F";
shapes = (
{
closed = 1;
nodes = (
(331,-114,l),
(221,-114,l),
(221,-7,l),
(97,17,o),
(25,113,o),
(25,258,cs),
(25,403,o),
(98,500,o),
(221,523,c),
(221,630,l),
(331,630,l),
(331,524,l),
(412,511,o),
(463,465,o),
(492,402,c),
(386,344,l),
(373,373,o),
(353,399,o),
(322,411,c),
(322,104,l),
(357,116,o),
(379,144,o),
(395,173,c),
(500,114,l),
(471,51,o),
(415,4,o),
(331,-8,c)
);
},
{
closed = 1;
nodes = (
(166,216,ls),
(166,163,o),
(188,123,o),
(231,106,c),
(231,410,l),
(190,393,o),
(166,353,o),
(166,300,cs)
);
}
);
width = 521;
},
{
layerId = "8E9CA4E0-9900-4C00-AB62-7898C7C10EDA";
shapes = (
{
closed = 1;
nodes = (
(313,-114,l),
(235,-114,l),
(235,-9,l),
(115,10,o),
(46,110,o),
(46,258,cs),
(46,407,o),
(116,506,o),
(235,525,c),
(235,630,l),
(313,630,l),
(313,526,l),
(396,518,o),
(448,471,o),
(476,408,c),
(404,368,l),
(388,412,o),
(357,440,o),
(310,447,c),
(310,68,l),
(359,76,o),
(394,105,o),
(417,153,c),
(484,110,l),
(455,45,o),
(397,-3,o),
(313,-10,c)
);
},
{
closed = 1;
nodes = (
(142,214,ls),
(142,143,o),
(175,87,o),
(238,71,c),
(238,445,l),
(175,430,o),
(142,374,o),
(142,302,cs)
);
}
);
width = 521;
},
{
layerId = "43C84C2D-48F1-4CCB-8D92-E3AB8A629B7A";
shapes = (
{
closed = 1;
nodes = (
(285,-114,l),
(265,-114,l),
(265,-11,l),
(144,-4,o),
(72,86,o),
(72,253,cs),
(72,420,o),
(144,510,o),
(265,517,c),
(265,620,l),
(285,620,l),
(285,518,l),
(364,517,o),
(416,477,o),
(447,418,c),
(429,409,l),
(397,468,o),
(354,499,o),
(285,499,c),
(285,7,l),
(361,8,o),
(408,42,o),
(440,95,c),
(456,84,l),
(423,27,o),
(370,-12,o),
(285,-12,c)
);
},
{
closed = 1;
nodes = (
(95,229,ls),
(95,100,o),
(156,15,o),
(265,8,c),
(265,498,l),
(156,491,o),
(95,406,o),
(95,277,cs)
);
}
);
width = 521;
}
);
unicode = 162;
}
{
glyphname = sterling;
layers = (
{
layerId = "7AA3F0E6-41A7-43FF-9A92-631D90721C2F";
shapes = (
{
closed = 1;
nodes = (
(559,0,l),
(71,0,l),
(71,136,l),
(122,159,o),
(154,201,o),
(154,258,cs),
(154,269,o),
(153,280,o),
(150,291,c),
(39,291,l),
(39,411,l),
(105,411,l),
(96,439,o),
(87,470,o),
(87,505,cs),
(87,546,o),
(97,582,o),
(118,613,cs),
(159,674,o),
(236,710,o),
(337,710,cs),
(445,710,o),
(520,669,o),
(573,589,c),
(463,512,l),
(426,560,o),
(389,579,o),
(341,579,cs),
(308,579,o),
(283,571,o),
(266,554,cs),
(249,537,o),
(240,512,o),
(240,481,cs),
(240,456,o),
(246,434,o),
(254,411,c),
(450,411,l),
(450,291,l),
(300,291,l),
(301,282,o),
(302,274,o),
(302,263,cs),
(302,228,o),
(294,201,o),
(277,181,cs),
(260,161,o),
(242,146,o),
(225,137,c),
(225,128,l),
(559,128,l)
);
}
);
width = 593;
},
{
layerId = "8E9CA4E0-9900-4C00-AB62-7898C7C10EDA";
shapes = (
{
closed = 1;
nodes = (
(531,0,l),
(79,0,l),
(79,107,l),
(134,131,o),
(153,185,o),
(153,241,cs),
(153,257,o),
(152,274,o),
(149,287,c),
(55,287,l),
(55,366,l),
(125,366,l),
(112,409,o),
(97,449,o),
(97,500,cs),
(97,541,o),
(106,578,o),
(125,610,cs),
(162,673,o),
(234,710,o),
(330,710,cs),
(434,710,o),
(501,667,o),
(549,595,c),
(477,543,l),
(442,595,o),
(397,625,o),
(329,625,cs),
(288,625,o),
(256,614,o),
(232,591,cs),
(208,568,o),
(196,534,o),
(196,489,cs),
(196,444,o),
(209,406,o),
(221,366,c),
(434,366,l),
(434,287,l),
(245,287,l),
(248,275,o),
(248,264,o),
(248,249,cs),
(248,212,o),
(240,180,o),
(225,152,cs),
(209,124,o),
(191,104,o),
(172,91,c),
(172,85,l),
(531,85,l)
);
}
);
width = 593;
},
{
layerId = "43C84C2D-48F1-4CCB-8D92-E3AB8A629B7A";
shapes = (
{
closed = 1;
nodes = (
(520,0,l),
(90,0,l),
(90,25,l),
(146,68,o),
(186,135,o),
(186,220,cs),
(186,253,o),
(180,283,o),
(172,311,c),
(77,311,l),
(77,331,l),
(165,331,l),
(146,388,o),
(119,441,o),
(119,510,cs),
(119,552,o),
(128,588,o),
(146,618,cs),
(182,677,o),
(247,710,o),
(326,710,cs),
(411,710,o),
(481,671,o),
(526,592,c),
(507,582,l),
(463,657,o),
(403,690,o),
(327,690,cs),
(272,690,o),
(228,674,o),
(193,643,cs),
(158,611,o),
(141,567,o),
(141,510,cs),
(141,442,o),
(168,390,o),
(188,331,c),
(406,331,l),
(406,311,l),
(194,311,l),
(202,283,o),
(208,254,o),
(208,221,cs),
(208,181,o),
(200,144,o),
(184,109,cs),
(168,74,o),
(145,45,o),
(114,22,c),
(114,20,l),
(520,20,l)
);
}
);
width = 593;
}
);
unicode = 163;
}
{
glyphname = currency;
layers = (
{
layerId = "7AA3F0E6-41A7-43FF-9A92-631D90721C2F";
shapes = (
{
closed = 1;
nodes = (
(256,107,o),
(210,118,o),
(175,137,c),
(84,45,l),
(3,125,l),
(94,216,l),
(73,252,o),
(62,297,o),
(62,349,cs),
(62,401,o),
(73,446,o),
(94,482,c),
(3,573,l),
(84,653,l),
(175,561,l),
(210,580,o),
(256,591,o),
(307,591,cs),
(358,591,o),
(404,580,o),
(439,561,c),
(530,653,l),
(611,573,l),
(520,482,l),
(541,446,o),
(552,401,o),
(552,349,cs),
(552,297,o),
(541,252,o),
(520,216,c),
(611,125,l),
(530,45,l),
(439,137,l),
(404,118,o),
(358,107,o),
(307,107,cs)
);
},
{
closed = 1;
nodes = (
(368,214,o),
(404,253,o),
(404,321,cs),
(404,377,ls),
(404,445,o),
(368,484,o),
(307,484,cs),
(246,484,o),
(210,445,o),
(210,377,cs),
(210,321,ls),
(210,253,o),
(246,214,o),
(307,214,cs)
);
}
);
width = 615;
},
{
layerId = "8E9CA4E0-9900-4C00-AB62-7898C7C10EDA";
shapes = (
{
closed = 1;
nodes = (
(252,117,o),
(206,131,o),
(171,159,c),
(71,59,l),
(16,112,l),
(120,215,l),
(99,252,o),
(88,297,o),
(88,349,cs),
(88,401,o),
(99,446,o),
(120,483,c),
(16,586,l),
(71,639,l),
(171,539,l),
(206,567,o),
(252,581,o),
(308,581,cs),
(363,581,o),
(409,567,o),
(444,539,c),
(544,639,l),
(599,586,l),
(495,483,l),
(516,446,o),
(527,401,o),
(527,349,cs),
(527,297,o),
(516,252,o),
(495,215,c),
(599,112,l),
(544,59,l),
(444,159,l),
(409,131,o),
(363,117,o),
(308,117,cs)
);
},
{
closed = 1;
nodes = (
(381,191,o),
(430,234,o),
(430,318,cs),
(430,380,ls),
(430,464,o),
(381,507,o),
(308,507,cs),
(233,507,o),
(185,464,o),
(185,380,cs),
(185,318,ls),
(185,234,o),
(233,191,o),
(308,191,cs)
);
}
);
width = 615;
},
{
layerId = "43C84C2D-48F1-4CCB-8D92-E3AB8A629B7A";
shapes = (
{
closed = 1;
nodes = (
(244,129,o),
(194,150,o),
(161,189,c),
(51,78,l),
(36,93,l),
(148,206,l),
(127,241,o),
(114,289,o),
(114,349,cs),
(114,409,o),
(127,459,o),
(148,492,c),
(36,605,l),
(51,620,l),
(161,509,l),
(194,548,o),
(244,569,o),
(307,569,cs),
(370,569,o),
(420,548,o),
(453,509,c),
(563,620,l),
(578,605,l),
(466,492,l),
(489,459,o),
(500,409,o),
(500,349,cs),
(500,289,o),
(489,241,o),
(466,206,c),
(578,93,l),
(563,78,l),
(453,189,l),
(420,150,o),
(370,129,o),
(307,129,cs)
);
},
{
closed = 1;
nodes = (
(415,148,o),
(477,217,o),
(477,326,cs),
(477,372,ls),
(477,483,o),
(415,550,o),
(307,550,cs),
(199,550,o),
(137,483,o),
(137,372,cs),
(137,326,ls),
(137,217,o),
(199,148,o),
(307,148,cs)
);
}
);
width = 615;
}
);
unicode = 164;
}
{
glyphname = yen;
layers = (
{
layerId = "7AA3F0E6-41A7-43FF-9A92-631D90721C2F";
shapes = (
{
closed = 1;
nodes = (
(549,133,l),
(381,133,l),
(381,0,l),
(228,0,l),
(228,133,l),
(60,133,l),
(60,223,l),
(228,223,l),
(228,291,l),
(60,291,l),
(60,381,l),
(170,381,l),
(1,698,l),
(173,698,l),
(311,423,l),
(313,423,l),
(450,698,l),
(613,698,l),
(439,381,l),
(549,381,l),
(549,291,l),
(381,291,l),
(381,223,l),
(549,223,l)
);
}
);
width = 614;
},
{
layerId = "8E9CA4E0-9900-4C00-AB62-7898C7C10EDA";
shapes = (
{
closed = 1;
nodes = (
(529,143,l),
(354,143,l),
(354,0,l),
(258,0,l),
(258,143,l),
(84,143,l),
(84,214,l),
(258,214,l),
(258,305,l),
(84,305,l),
(84,376,l),
(215,376,l),
(31,698,l),
(140,698,l),
(308,391,l),
(312,391,l),
(476,698,l),
(582,698,l),
(398,376,l),
(529,376,l),
(529,305,l),
(354,305,l),
(354,214,l),
(529,214,l)
);
}
);
width = 614;
},
{
layerId = "43C84C2D-48F1-4CCB-8D92-E3AB8A629B7A";
shapes = (
{
closed = 1;
nodes = (
(516,168,l),
(318,168,l),
(318,0,l),
(296,0,l),
(296,168,l),
(98,168,l),
(98,187,l),
(296,187,l),
(296,325,l),
(98,325,l),
(98,344,l),
(284,344,l),
(65,698,l),
(90,698,l),
(306,348,l),
(309,348,l),
(525,698,l),
(549,698,l),
(330,344,l),
(516,344,l),
(516,325,l),
(318,325,l),
(318,187,l),
(516,187,l)
);
}
);
width = 614;
}
);
unicode = 165;
}
{
glyphname = brokenbar;
layers = (
{
layerId = "9A8FE613-2BB2-428D-A7DB-46DFB705B86D";
shapes = (
{
closed = 1;
nodes = (
(228,401,l),
(102,401,l),
(102,760,l),
(228,760,l)
);
},
{
closed = 1;
nodes = (
(228,-138,l),
(102,-138,l),
(102,221,l),
(228,221,l)
);
}
);
width = 331;
},
{
layerId = "1513CFE8-5A13-42D2-8271-7D7365DF70DB";
shapes = (
{
closed = 1;
nodes = (
(205,405,l),
(126,405,l),
(126,760,l),
(205,760,l)
);
},
{
closed = 1;
nodes = (
(205,-138,l),
(126,-138,l),
(126,217,l),
(205,217,l)
);
}
);
width = 331;
},
{
layerId = "1F8C5CD1-3431-41E3-A60F-01FCBC1C5BC1";
shapes = (
{
closed = 1;
nodes = (
(175,401,l),
(155,401,l),
(155,760,l),
(175,760,l)
);
},
{
closed = 1;
nodes = (
(175,-138,l),
(155,-138,l),
(155,221,l),
(175,221,l)
);
}
);
width = 331;
}
);
unicode = 166;
}
{
glyphname = section;
layers = (
{
layerId = "7AA3F0E6-41A7-43FF-9A92-631D90721C2F";
shapes = (
{
closed = 1;
nodes = (
(495,-23,o),
(486,-54,o),
(468,-80,cs),
(431,-132,o),
(363,-161,o),
(278,-161,cs),
(209,-161,o),
(136,-142,o),
(79,-89,c),
(151,-1,l),
(186,-36,o),
(228,-56,o),
(280,-56,cs),
(335,-56,o),
(371,-34,o),
(371,7,cs),
(371,20,o),
(368,30,o),
(362,39,cs),
(350,55,o),
(324,67,o),
(284,78,cs),
(207,99,ls),
(170,110,o),
(140,123,o),
(118,139,cs),
(74,170,o),
(57,208,o),
(57,247,cs),
(57,304,o),
(91,354,o),
(164,385,c),
(164,402,l),
(117,433,o),
(87,480,o),
(87,541,cs),
(87,578,o),
(96,609,o),
(115,634,cs),
(152,684,o),
(219,710,o),
(303,710,cs),
(374,710,o),
(447,693,o),
(504,638,c),
(431,550,l),
(396,585,o),
(359,605,o),
(300,605,cs),
(249,605,o),
(211,589,o),
(211,546,cs),
(211,535,o),
(214,525,o),
(221,517,c),
(233,500,o),
(258,489,o),
(298,478,cs),
(375,457,ls),
(413,447,o),
(443,434,o),
(465,418,cs),
(509,386,o),
(526,347,o),
(526,307,cs),
(526,250,o),
(493,200,o),
(418,169,c),
(418,153,l),
(465,122,o),
(495,76,o),
(495,13,cs)
);
},
{
closed = 1;
nodes = (
(403,273,o),
(401,284,o),
(397,295,c),
(388,315,o),
(366,333,o),
(323,345,cs),
(247,366,ls),
(236,369,o),
(226,372,o),
(215,376,c),
(192,351,o),
(179,323,o),
(179,292,cs),
(179,259,o),
(195,230,o),
(259,211,cs),
(335,190,ls),
(346,187,o),
(357,183,o),
(368,179,c),
(391,206,o),
(403,233,o),
(403,262,cs)
);
}
);
width = 583;
},
{
layerId = "8E9CA4E0-9900-4C00-AB62-7898C7C10EDA";
shapes = (
{
closed = 1;
nodes = (
(477,-27,o),
(469,-56,o),
(452,-81,cs),
(419,-129,o),
(356,-156,o),
(276,-156,cs),
(215,-156,o),
(151,-140,o),
(103,-97,c),
(154,-35,l),
(186,-63,o),
(228,-80,o),
(277,-80,cs),
(348,-80,o),
(390,-48,o),
(390,3,cs),
(390,19,o),
(386,33,o),
(378,44,cs),
(362,67,o),
(333,82,o),
(289,95,cs),
(223,114,ls),
(188,125,o),
(159,138,o),
(136,154,cs),
(91,185,o),
(71,223,o),
(71,266,cs),
(71,329,o),
(109,380,o),
(180,408,c),
(180,417,l),
(135,448,o),
(105,491,o),
(105,550,cs),
(105,583,o),
(113,611,o),
(130,635,cs),
(163,683,o),
(226,710,o),
(306,710,cs),
(367,710,o),
(431,694,o),
(480,651,c),
(428,589,l),
(396,617,o),
(356,634,o),
(304,634,cs),
(236,634,o),
(192,604,o),
(192,552,cs),
(192,536,o),
(196,522,o),
(204,511,cs),
(220,488,o),
(250,473,o),
(293,460,cs),
(358,441,ls),
(395,430,o),
(424,417,o),
(447,402,c),
(491,371,o),
(512,333,o),
(512,288,cs),
(512,225,o),
(474,175,o),
(402,146,c),
(402,138,l),
(450,109,o),
(477,63,o),
(477,6,cs)
);
},
{
closed = 1;
nodes = (
(424,280,o),
(420,296,o),
(413,309,cs),
(398,336,o),
(366,356,o),
(314,369,c),
(250,387,ls),
(239,390,o),
(229,394,o),
(218,398,c),
(181,370,o),
(158,336,o),
(158,292,cs),
(158,240,o),
(191,207,o),
(267,186,cs),
(332,168,ls),
(343,165,o),
(355,161,o),
(364,157,c),
(401,186,o),
(424,219,o),
(424,263,cs)
);
}
);
width = 583;
},
{
layerId = "43C84C2D-48F1-4CCB-8D92-E3AB8A629B7A";
shapes = (
{
closed = 1;
nodes = (
(451,-45,o),
(443,-72,o),
(428,-93,cs),
(396,-135,o),
(342,-154,o),
(278,-154,cs),
(205,-154,o),
(157,-130,o),
(124,-98,c),
(137,-83,l),
(168,-112,o),
(211,-135,o),
(279,-135,cs),
(374,-135,o),
(430,-93,o),
(430,-13,cs),
(430,12,o),
(424,33,o),
(413,50,c),
(389,82,o),
(350,102,o),
(306,115,c),
(239,137,ls),
(210,147,o),
(184,159,o),
(163,172,cs),
(119,198,o),
(95,236,o),
(95,296,cs),
(95,372,o),
(138,421,o),
(205,446,c),
(205,449,l),
(158,477,o),
(131,517,o),
(131,569,cs),
(131,602,o),
(139,628,o),
(155,649,cs),
(186,690,o),
(240,710,o),
(304,710,cs),
(379,710,o),
(425,686,o),
(458,654,c),
(445,639,l),
(414,668,o),
(371,691,o),
(303,691,cs),
(210,691,o),
(152,649,o),
(152,569,cs),
(152,544,o),
(158,523,o),
(170,507,cs),
(193,474,o),
(233,456,o),
(276,441,cs),
(343,419,ls),
(373,410,o),
(399,398,o),
(420,385,cs),
(463,358,o),
(487,321,o),
(487,260,cs),
(487,184,o),
(444,137,o),
(377,110,c),
(377,107,l),
(424,79,o),
(451,39,o),
(451,-13,cs)
);
},
{
closed = 1;
nodes = (
(466,286,o),
(461,308,o),
(451,326,cs),
(431,361,o),
(392,384,o),
(335,401,cs),
(269,422,ls),
(253,427,o),
(239,433,o),
(223,440,c),
(158,412,o),
(116,368,o),
(116,297,cs),
(116,218,o),
(162,182,o),
(247,155,cs),
(313,134,ls),
(329,129,o),
(343,123,o),
(359,116,c),
(424,144,o),
(466,188,o),
(466,259,cs)
);
}
);
width = 583;
}
);
unicode = 167;
}
{
glyphname = copyright;
layers = (
{
layerId = "7AA3F0E6-41A7-43FF-9A92-631D90721C2F";
shapes = (
{
closed = 1;
nodes = (
(322,-12,o),
(262,3,o),
(209,32,cs),
(104,91,o),
(41,201,o),
(41,349,cs),
(41,424,o),
(56,488,o),
(86,542,cs),
(145,649,o),
(254,710,o),
(389,710,cs),
(457,710,o),
(517,695,o),
(570,666,cs),
(674,607,o),
(737,498,o),
(737,349,cs),
(737,275,o),
(722,211,o),
(693,157,cs),
(633,49,o),
(525,-12,o),
(389,-12,cs)
);
},
{
closed = 1;
nodes = (
(442,52,o),
(490,64,o),
(531,87,cs),
(613,134,o),
(663,216,o),
(663,315,cs),
(663,383,ls),
(663,432,o),
(651,477,o),
(628,517,cs),
(580,596,o),
(496,646,o),
(389,646,cs),
(336,646,o),
(289,634,o),
(248,611,cs),
(165,564,o),
(115,482,o),
(115,383,cs),
(115,315,ls),
(115,266,o),
(127,221,o),
(151,182,cs),
(198,102,o),
(284,52,o),
(389,52,cs)
);
},
{
closed = 1;
nodes = (
(331,134,o),
(281,154,o),
(244,193,cs),
(207,232,o),
(188,284,o),
(188,349,cs),
(188,414,o),
(207,467,o),
(244,506,cs),
(281,545,o),
(331,564,o),
(396,564,cs),
(493,564,o),
(550,518,o),
(577,451,c),
(477,403,l),
(461,438,o),
(440,461,o),
(396,461,cs),
(352,461,o),
(325,433,o),
(325,389,cs),
(325,309,ls),
(325,265,o),
(352,237,o),
(396,237,cs),
(440,237,o),
(467,262,o),
(484,295,c),
(585,248,l),
(571,217,o),
(549,191,o),
(520,168,cs),
(491,145,o),
(449,134,o),
(396,134,cs)
);
}
);
width = 779;
},
{
layerId = "8E9CA4E0-9900-4C00-AB62-7898C7C10EDA";
shapes = (
{
closed = 1;
nodes = (
(327,-11,o),
(270,4,o),
(219,33,cs),
(117,92,o),
(53,201,o),
(53,349,cs),
(53,423,o),
(68,487,o),
(98,541,cs),
(157,649,o),
(263,709,o),
(390,709,cs),
(453,709,o),
(510,695,o),
(561,666,cs),
(662,608,o),
(726,497,o),
(726,349,cs),
(726,275,o),
(711,211,o),
(682,158,cs),
(622,50,o),
(517,-11,o),
(390,-11,cs)
);
},
{
closed = 1;
nodes = (
(442,50,o),
(488,62,o),
(528,85,cs),
(608,132,o),
(657,215,o),
(657,318,cs),
(657,380,ls),
(657,431,o),
(646,477,o),
(623,518,cs),
(577,598,o),
(494,648,o),
(390,648,cs),
(337,648,o),
(291,636,o),
(251,613,cs),
(171,566,o),
(122,483,o),
(122,380,cs),
(122,318,ls),
(122,267,o),
(134,221,o),
(157,181,cs),
(203,100,o),
(285,50,o),
(390,50,cs)
);
},
{
closed = 1;
nodes = (
(343,151,o),
(301,169,o),
(270,205,cs),
(239,241,o),
(224,289,o),
(224,349,cs),
(224,410,o),
(239,458,o),
(270,494,cs),
(301,529,o),
(343,547,o),
(397,547,cs),
(470,547,o),
(516,510,o),
(539,455,c),
(474,420,l),
(459,455,o),
(437,476,o),
(397,476,cs),
(342,476,o),
(312,438,o),
(312,383,cs),
(312,315,ls),
(312,260,o),
(342,221,o),
(397,221,cs),
(441,221,o),
(463,245,o),
(483,280,c),
(546,244,l),
(534,217,o),
(516,195,o),
(492,178,cs),
(467,160,o),
(436,151,o),
(397,151,cs)
);
}
);
width = 779;
},
{
layerId = "43C84C2D-48F1-4CCB-8D92-E3AB8A629B7A";
shapes = (
{
closed = 1;
nodes = (
(326,-12,o),
(271,3,o),
(223,33,cs),
(126,92,o),
(68,204,o),
(68,349,cs),
(68,422,o),
(82,486,o),
(109,540,cs),
(164,648,o),
(264,710,o),
(389,710,cs),
(452,710,o),
(508,695,o),
(556,666,cs),
(652,606,o),
(710,496,o),
(710,349,cs),
(710,276,o),
(696,213,o),
(669,159,cs),
(614,50,o),
(516,-12,o),
(389,-12,cs)
);
},
{
closed = 1;
nodes = (
(449,6,o),
(501,20,o),
(546,48,cs),
(635,104,o),
(688,206,o),
(688,327,cs),
(688,371,ls),
(688,432,o),
(676,487,o),
(651,536,cs),
(601,632,o),
(509,692,o),
(389,692,cs),
(329,692,o),
(277,678,o),
(232,650,cs),
(143,594,o),
(90,494,o),
(90,371,cs),
(90,327,ls),
(90,266,o),
(103,212,o),
(128,163,cs),
(178,66,o),
(270,6,o),
(389,6,cs)
);
},
{
closed = 1;
nodes = (
(341,149,o),
(305,166,o),
(278,199,cs),
(251,232,o),
(237,281,o),
(237,346,cs),
(237,411,o),
(251,460,o),
(279,493,cs),
(306,526,o),
(343,543,o),
(388,543,cs),
(453,543,o),
(495,509,o),
(511,462,c),
(495,457,l),
(478,500,o),
(443,526,o),
(388,526,cs),
(309,526,o),
(257,468,o),
(257,356,cs),
(257,336,ls),
(257,220,o),
(310,166,o),
(387,166,cs),
(442,166,o),
(481,193,o),
(500,236,c),
(515,229,l),
(506,206,o),
(490,187,o),
(468,172,cs),
(445,157,o),
(418,149,o),
(386,149,cs)
);
}
);
width = 779;
}
);
unicode = 169;
}
{
glyphname = ordfeminine;
layers = (
{
layerId = "7AA3F0E6-41A7-43FF-9A92-631D90721C2F";
shapes = (
{
closed = 1;
nodes = (
(346,330,l),
(260,330,l),
(251,424,l),
(282,394,l),
(248,394,l),
(235,349,o),
(195,324,o),
(140,324,cs),
(72,324,o),
(26,364,o),
(26,433,cs),
(26,508,o),
(82,544,o),
(186,544,cs),
(242,544,l),
(242,563,ls),
(242,607,o),
(226,628,o),
(179,628,cs),
(136,628,o),
(111,610,o),
(92,583,c),
(36,633,l),
(60,676,o),
(111,704,o),
(191,704,cs),
(287,704,o),
(346,656,o),
(346,567,cs)
);
},
{
closed = 1;
nodes = (
(242,488,l),
(189,488,ls),
(149,488,o),
(127,473,o),
(127,445,cs),
(127,431,ls),
(127,404,o),
(148,392,o),
(180,392,cs),
(215,392,o),
(242,409,o),
(242,444,cs)
);
}
);
width = 409;
},
{
layerId = "8E9CA4E0-9900-4C00-AB62-7898C7C10EDA";
shapes = (
{
closed = 1;
nodes = (
(331,346,l),
(272,346,l),
(265,422,l),
(287,401,l),
(262,401,l),
(247,368,o),
(211,340,o),
(151,340,cs),
(82,340,o),
(41,381,o),
(41,440,cs),
(41,512,o),
(96,546,o),
(192,546,cs),
(260,546,l),
(260,572,ls),
(260,624,o),
(236,647,o),
(188,647,cs),
(143,647,o),
(113,626,o),
(97,597,c),
(53,634,l),
(73,670,o),
(117,704,o),
(192,704,cs),
(277,704,o),
(331,658,o),
(331,575,cs)
);
},
{
closed = 1;
nodes = (
(260,498,l),
(191,498,ls),
(140,498,o),
(111,482,o),
(111,451,cs),
(111,441,ls),
(111,409,o),
(133,394,o),
(170,394,cs),
(218,394,o),
(260,419,o),
(260,456,cs)
);
}
);
width = 409;
},
{
layerId = "43C84C2D-48F1-4CCB-8D92-E3AB8A629B7A";
shapes = (
{
closed = 1;
nodes = (
(310,366,l),
(291,366,l),
(291,425,l),
(301,415,l),
(289,415,l),
(274,387,o),
(240,360,o),
(177,360,cs),
(106,360,o),
(68,396,o),
(68,449,cs),
(68,505,o),
(102,542,o),
(195,542,cs),
(291,542,l),
(291,598,ls),
(291,658,o),
(255,687,o),
(192,687,cs),
(148,687,o),
(112,670,o),
(93,629,c),
(78,637,l),
(97,678,o),
(133,704,o),
(192,704,cs),
(267,704,o),
(310,666,o),
(310,601,cs)
);
},
{
closed = 1;
nodes = (
(291,525,l),
(194,525,ls),
(117,525,o),
(89,499,o),
(89,456,cs),
(89,443,ls),
(89,400,o),
(124,377,o),
(177,377,cs),
(238,377,o),
(291,404,o),
(291,461,cs)
);
}
);
width = 409;
}
);
unicode = 170;
}
{
glyphname = guillemotleft;
layers = (
{
layerId = "7AA3F0E6-41A7-43FF-9A92-631D90721C2F";
shapes = (
{
closed = 1;
nodes = (
(249,141,l),
(206,49,l),
(20,209,l),
(20,335,l),
(206,495,l),
(249,403,l),
(130,273,l),
(130,271,l)
);
},
{
closed = 1;
nodes = (
(490,141,l),
(447,49,l),
(261,209,l),
(261,335,l),
(447,495,l),
(490,403,l),
(371,273,l),
(371,271,l)
);
}
);
width = 522;
},
{
layerId = "8E9CA4E0-9900-4C00-AB62-7898C7C10EDA";
shapes = (
{
closed = 1;
nodes = (
(255,135,l),
(227,74,l),
(36,239,l),
(36,324,l),
(227,489,l),
(255,428,l),
(122,283,l),
(122,281,l)
);
},
{
closed = 1;
nodes = (
(470,135,l),
(442,74,l),
(251,239,l),
(251,324,l),
(442,489,l),
(470,428,l),
(337,283,l),
(337,281,l)
);
}
);
width = 522;
},
{
layerId = "43C84C2D-48F1-4CCB-8D92-E3AB8A629B7A";
shapes = (
{
closed = 1;
nodes = (
(266,121,l),
(257,106,l),
(59,284,l),
(59,304,l),
(257,482,l),
(266,467,l),
(83,295,l),
(83,293,l)
);
},
{
closed = 1;
nodes = (
(446,121,l),
(437,106,l),
(239,284,l),
(239,304,l),
(437,482,l),
(446,467,l),
(263,295,l),
(263,293,l)
);
}
);
width = 522;
}
);
leftKerningGroup = guilsinglleft2;
rightKerningGroup = guilsinglleft;
unicode = 171;
}
{
glyphname = logicalnot;
layers = (
{
layerId = "9A8FE613-2BB2-428D-A7DB-46DFB705B86D";
shapes = (
{
closed = 1;
nodes = (
(533,78,l),
(412,78,l),
(412,247,l),
(52,247,l),
(52,365,l),
(533,365,l)
);
}
);
width = 600;
},
{
layerId = "1513CFE8-5A13-42D2-8271-7D7365DF70DB";
shapes = (
{
closed = 1;
nodes = (
(533,78,l),
(454,78,l),
(454,266,l),
(64,266,l),
(64,344,l),
(533,344,l)
);
}
);
width = 600;
},
{
layerId = "1F8C5CD1-3431-41E3-A60F-01FCBC1C5BC1";
shapes = (
{
closed = 1;
nodes = (
(522,104,l),
(501,104,l),
(501,296,l),
(62,296,l),
(62,315,l),
(522,315,l)
);
}
);
width = 600;
}
);
unicode = 172;
}
{
glyphname = registered;
layers = (
{
layerId = "9A8FE613-2BB2-428D-A7DB-46DFB705B86D";
shapes = (
{
closed = 1;
nodes = (
(200,298,o),
(166,307,o),
(135,325,cs),
(74,361,o),
(35,425,o),
(35,504,cs),
(35,543,o),
(44,579,o),
(62,610,cs),
(98,672,o),
(162,710,o),
(237,710,cs),
(275,710,o),
(309,701,o),
(340,683,cs),
(400,647,o),
(439,583,o),
(439,504,cs),
(439,465,o),
(430,430,o),
(412,399,cs),
(376,337,o),
(313,298,o),
(237,298,cs)
);
},
{
closed = 1;
nodes = (
(264,345,o),
(288,351,o),
(311,362,c),
(355,385,o),
(385,428,o),
(385,488,cs),
(385,520,ls),
(385,550,o),
(378,576,o),
(365,597,cs),
(337,640,o),
(290,663,o),
(237,663,cs),
(210,663,o),
(186,657,o),
(164,646,cs),
(119,623,o),
(89,580,o),
(89,520,cs),
(89,488,ls),
(89,458,o),
(96,432,o),
(110,411,cs),
(137,368,o),
(184,345,o),
(237,345,cs)
);
},
{
closed = 1;
nodes = (
(214,461,l),
(214,400,l),
(150,400,l),
(150,609,l),
(252,609,ls),
(308,609,o),
(332,579,o),
(332,539,cs),
(332,506,o),
(318,484,o),
(295,473,c),
(338,400,l),
(269,400,l),
(237,461,l)
);
},
{
closed = 1;
nodes = (
(214,508,l),
(239,508,ls),
(258,508,o),
(267,515,o),
(267,531,cs),
(267,538,ls),
(267,554,o),
(258,561,o),
(239,561,cs),
(214,561,l)
);
}
);
width = 474;
},
{
layerId = "1513CFE8-5A13-42D2-8271-7D7365DF70DB";
shapes = (
{
closed = 1;
nodes = (
(200,298,o),
(167,307,o),
(137,325,cs),
(77,361,o),
(38,427,o),
(38,504,cs),
(38,543,o),
(47,579,o),
(65,610,cs),
(101,672,o),
(164,710,o),
(237,710,cs),
(273,710,o),
(306,701,o),
(337,683,cs),
(397,647,o),
(436,583,o),
(436,504,cs),
(436,465,o),
(427,430,o),
(409,399,cs),
(373,336,o),
(309,298,o),
(237,298,cs)
);
},
{
closed = 1;
nodes = (
(267,339,o),
(293,346,o),
(316,360,cs),
(361,388,o),
(391,437,o),
(391,492,cs),
(391,516,ls),
(391,543,o),
(384,569,o),
(371,592,cs),
(343,639,o),
(297,669,o),
(237,669,cs),
(208,669,o),
(181,662,o),
(158,648,cs),
(111,620,o),
(83,571,o),
(83,516,cs),
(83,492,ls),
(83,465,o),
(90,439,o),
(103,416,cs),
(130,369,o),
(178,339,o),
(237,339,cs)
);
},
{
closed = 1;
nodes = (
(204,473,l),
(204,397,l),
(160,397,l),
(160,606,l),
(252,606,ls),
(295,606,o),
(319,580,o),
(319,541,cs),
(319,509,o),
(303,490,o),
(280,479,c),
(328,397,l),
(279,397,l),
(237,473,l)
);
},
{
closed = 1;
nodes = (
(204,508,l),
(248,508,ls),
(263,508,o),
(272,516,o),
(272,529,cs),
(272,549,ls),
(272,562,o),
(263,570,o),
(248,570,cs),
(204,570,l)
);
}
);
width = 474;
},
{
layerId = "1F8C5CD1-3431-41E3-A60F-01FCBC1C5BC1";
shapes = (
{
closed = 1;
nodes = (
(199,298,o),
(165,307,o),
(135,324,cs),
(75,359,o),
(39,423,o),
(39,504,cs),
(39,545,o),
(48,581,o),
(65,612,cs),
(99,674,o),
(161,710,o),
(237,710,cs),
(276,710,o),
(310,701,o),
(340,684,cs),
(399,649,o),
(435,585,o),
(435,504,cs),
(435,463,o),
(427,428,o),
(410,397,cs),
(376,335,o),
(314,298,o),
(237,298,cs)
);
},
{
closed = 1;
nodes = (
(272,314,o),
(302,322,o),
(329,338,cs),
(382,369,o),
(416,425,o),
(416,494,cs),
(416,514,ls),
(416,549,o),
(408,580,o),
(393,607,c),
(361,661,o),
(306,694,o),
(237,694,cs),
(203,694,o),
(173,686,o),
(146,671,c),
(92,639,o),
(58,583,o),
(58,514,cs),
(58,494,ls),
(58,459,o),
(66,429,o),
(82,402,cs),
(113,348,o),
(169,314,o),
(237,314,cs)
);
},
{
closed = 1;
nodes = (
(188,488,l),
(188,397,l),
(172,397,l),
(172,609,l),
(253,609,ls),
(292,609,o),
(316,591,o),
(316,547,cs),
(316,511,o),
(296,490,o),
(268,489,c),
(322,397,l),
(303,397,l),
(251,488,l)
);
},
{
closed = 1;
nodes = (
(188,503,l),
(252,503,ls),
(285,503,o),
(298,516,o),
(298,545,cs),
(298,552,ls),
(298,583,o),
(285,594,o),
(252,594,cs),
(188,594,l)
);
}
);
width = 474;
}
);
unicode = 174;
}
{
glyphname = macron;
layers = (
{
anchors = (
{
name = _t.ring;
position = "{300, 540}";
}
);
layerId = "7AA3F0E6-41A7-43FF-9A92-631D90721C2F";
shapes = (
{
closed = 1;
nodes = (
(147,624,l),
(147,727,l),
(453,727,l),
(453,624,l)
);
}
);
width = 600;
},
{
anchors = (
{
name = _t.ring;
position = "{300, 540}";
}
);
layerId = "8E9CA4E0-9900-4C00-AB62-7898C7C10EDA";
shapes = (
{
closed = 1;
nodes = (
(158,635,l),
(158,709,l),
(442,709,l),
(442,635,l)
);
}
);
width = 600;
},
{
anchors = (
{
name = _t.ring;
position = "{300, 540}";
}
);
layerId = "43C84C2D-48F1-4CCB-8D92-E3AB8A629B7A";
shapes = (
{
closed = 1;
nodes = (
(171,658,l),
(171,676,l),
(429,676,l),
(429,658,l)
);
}
);
width = 600;
}
);
unicode = 175;
}
{
glyphname = degree;
layers = (
{
layerId = "9A8FE613-2BB2-428D-A7DB-46DFB705B86D";
shapes = (
{
closed = 1;
nodes = (
(199,334,o),
(168,342,o),
(140,359,cs),
(84,391,o),
(49,450,o),
(49,522,cs),
(49,558,o),
(57,590,o),
(74,619,cs),
(106,675,o),
(165,710,o),
(234,710,cs),
(269,710,o),
(301,702,o),
(329,686,cs),
(384,653,o),
(419,594,o),
(419,522,cs),
(419,486,o),
(411,454,o),
(395,426,cs),
(362,369,o),
(305,334,o),
(234,334,cs)
);
},
{
closed = 1;
nodes = (
(251,429,o),
(266,433,o),
(279,441,cs),
(303,457,o),
(318,487,o),
(318,522,cs),
(318,540,o),
(315,556,o),
(308,570,cs),
(294,598,o),
(269,615,o),
(234,615,cs),
(217,615,o),
(203,611,o),
(190,603,cs),
(165,587,o),
(150,558,o),
(150,523,cs),
(150,505,o),
(154,489,o),
(161,475,cs),
(175,446,o),
(201,429,o),
(234,429,cs)
);
}
);
width = 468;
},
{
layerId = "1513CFE8-5A13-42D2-8271-7D7365DF70DB";
shapes = (
{
closed = 1;
nodes = (
(202,360,o),
(173,368,o),
(147,383,cs),
(95,414,o),
(63,468,o),
(63,535,cs),
(63,568,o),
(71,598,o),
(86,625,cs),
(116,677,o),
(170,710,o),
(234,710,cs),
(267,710,o),
(296,702,o),
(322,687,cs),
(373,656,o),
(405,602,o),
(405,535,cs),
(405,502,o),
(398,472,o),
(383,446,cs),
(353,393,o),
(299,360,o),
(234,360,cs)
);
},
{
closed = 1;
nodes = (
(253,430,o),
(270,435,o),
(285,444,c),
(313,463,o),
(330,496,o),
(330,535,cs),
(330,554,o),
(326,572,o),
(318,588,cs),
(302,620,o),
(273,640,o),
(234,640,cs),
(215,640,o),
(198,635,o),
(184,626,cs),
(155,607,o),
(139,574,o),
(139,535,cs),
(139,516,o),
(143,498,o),
(151,482,cs),
(166,450,o),
(195,430,o),
(234,430,cs)
);
}
);
width = 468;
},
{
layerId = "1F8C5CD1-3431-41E3-A60F-01FCBC1C5BC1";
shapes = (
{
closed = 1;
nodes = (
(203,374,o),
(176,381,o),
(151,396,cs),
(102,425,o),
(72,479,o),
(72,543,cs),
(72,574,o),
(79,603,o),
(93,628,cs),
(121,679,o),
(173,710,o),
(234,710,cs),
(265,710,o),
(292,703,o),
(317,688,cs),
(365,659,o),
(396,606,o),
(396,542,cs),
(396,511,o),
(389,482,o),
(375,457,cs),
(346,405,o),
(295,374,o),
(234,374,cs)
);
},
{
closed = 1;
nodes = (
(263,393,o),
(288,400,o),
(309,414,cs),
(351,441,o),
(375,488,o),
(375,543,cs),
(375,570,o),
(369,594,o),
(358,617,c),
(334,661,o),
(291,691,o),
(234,691,cs),
(205,691,o),
(181,684,o),
(160,671,cs),
(118,644,o),
(93,597,o),
(93,542,cs),
(93,515,o),
(99,490,o),
(111,467,cs),
(134,422,o),
(177,393,o),
(234,393,cs)
);
}
);
width = 468;
}
);
unicode = 176;
}
{
glyphname = plusminus;
layers = (
{
layerId = "7AA3F0E6-41A7-43FF-9A92-631D90721C2F";
shapes = (
{
closed = 1;
nodes = (
(364,184,l),
(236,184,l),
(236,351,l),
(67,351,l),
(67,470,l),
(236,470,l),
(236,635,l),
(364,635,l),
(364,470,l),
(533,470,l),
(533,351,l),
(364,351,l)
);
},
{
closed = 1;
nodes = (
(533,0,l),
(67,0,l),
(67,119,l),
(533,119,l)
);
}
);
width = 600;
},
{
layerId = "8E9CA4E0-9900-4C00-AB62-7898C7C10EDA";
shapes = (
{
closed = 1;
nodes = (
(343,158,l),
(257,158,l),
(257,351,l),
(67,351,l),
(67,429,l),
(257,429,l),
(257,621,l),
(343,621,l),
(343,429,l),
(533,429,l),
(533,351,l),
(343,351,l)
);
},
{
closed = 1;
nodes = (
(533,0,l),
(67,0,l),
(67,78,l),
(533,78,l)
);
}
);
width = 600;
},
{
layerId = "43C84C2D-48F1-4CCB-8D92-E3AB8A629B7A";
shapes = (
{
closed = 1;
nodes = (
(311,115,l),
(290,115,l),
(290,349,l),
(62,349,l),
(62,368,l),
(290,368,l),
(290,602,l),
(311,602,l),
(311,368,l),
(539,368,l),
(539,349,l),
(311,349,l)
);
},
{
closed = 1;
nodes = (
(538,0,l),
(62,0,l),
(62,19,l),
(538,19,l)
);
}
);
width = 600;
}
);
unicode = 177;
}
{
glyphname = twosuperior;
layers = (
{
layerId = "9A8FE613-2BB2-428D-A7DB-46DFB705B86D";
shapes = (
{
closed = 1;
nodes = (
(321,412,l),
(321,329,l),
(32,329,l),
(32,417,l),
(141,500,ls),
(192,539,o),
(208,554,o),
(208,583,cs),
(208,584,ls),
(208,611,o),
(184,618,o),
(165,618,cs),
(132,618,o),
(117,597,o),
(110,573,c),
(21,606,l),
(40,662,o),
(91,704,o),
(175,704,cs),
(266,704,o),
(317,657,o),
(317,590,cs),
(317,556,o),
(305,528,o),
(282,505,cs),
(259,482,o),
(232,462,o),
(203,445,cs),
(144,412,l)
);
}
);
width = 346;
},
{
layerId = "1513CFE8-5A13-42D2-8271-7D7365DF70DB";
shapes = (
{
closed = 1;
nodes = (
(313,385,l),
(313,329,l),
(38,329,l),
(38,392,l),
(164,493,ls),
(205,526,o),
(227,553,o),
(227,588,cs),
(227,593,ls),
(227,626,o),
(205,646,o),
(166,646,cs),
(123,646,o),
(103,621,o),
(92,590,c),
(32,612,l),
(48,661,o),
(91,704,o),
(171,704,cs),
(255,704,o),
(302,658,o),
(302,594,cs),
(302,565,o),
(293,539,o),
(274,517,cs),
(255,494,o),
(232,473,o),
(203,452,cs),
(113,385,l)
);
}
);
width = 346;
},
{
layerId = "1F8C5CD1-3431-41E3-A60F-01FCBC1C5BC1";
shapes = (
{
closed = 1;
nodes = (
(300,346,l),
(300,329,l),
(44,329,l),
(44,349,l),
(183,464,ls),
(240,511,o),
(267,553,o),
(267,592,cs),
(267,602,ls),
(267,651,o),
(235,687,o),
(172,687,cs),
(111,687,o),
(75,656,o),
(58,609,c),
(41,614,l),
(57,663,o),
(99,704,o),
(172,704,cs),
(248,704,o),
(287,658,o),
(287,599,cs),
(287,574,o),
(279,550,o),
(264,526,cs),
(249,502,o),
(225,477,o),
(194,452,cs),
(64,346,l)
);
}
);
width = 346;
}
);
unicode = 178;
}
{
glyphname = threesuperior;
layers = (
{
layerId = "7AA3F0E6-41A7-43FF-9A92-631D90721C2F";
shapes = (
{
closed = 1;
nodes = (
(117,558,l),
(151,558,ls),
(187,558,o),
(202,570,o),
(202,585,cs),
(202,589,ls),
(202,608,o),
(186,625,o),
(157,625,cs),
(129,625,o),
(98,610,o),
(77,582,c),
(15,641,l),
(50,682,o),
(91,704,o),
(160,704,cs),
(255,704,o),
(310,663,o),
(310,603,cs),
(310,558,o),
(275,527,o),
(234,522,c),
(234,518,l),
(285,510,o),
(316,480,o),
(316,433,cs),
(316,365,o),
(252,323,o),
(159,323,cs),
(74,323,o),
(31,357,o),
(4,398,c),
(80,456,l),
(95,425,o),
(119,402,o),
(159,402,cs),
(190,402,o),
(209,418,o),
(209,442,cs),
(209,444,ls),
(209,467,o),
(184,476,o),
(148,476,cs),
(117,476,l)
);
}
);
width = 346;
},
{
layerId = "8E9CA4E0-9900-4C00-AB62-7898C7C10EDA";
shapes = (
{
closed = 1;
nodes = (
(115,548,l),
(154,548,ls),
(202,548,o),
(225,569,o),
(225,596,cs),
(225,600,ls),
(225,629,o),
(202,648,o),
(163,648,cs),
(127,648,o),
(100,632,o),
(81,604,c),
(34,643,l),
(59,678,o),
(99,704,o),
(166,704,cs),
(245,704,o),
(299,668,o),
(299,608,cs),
(299,560,o),
(265,532,o),
(222,524,c),
(222,520,l),
(269,512,o),
(305,483,o),
(305,431,cs),
(305,366,o),
(248,323,o),
(160,323,cs),
(84,323,o),
(45,356,o),
(20,391,c),
(73,429,l),
(90,400,o),
(116,379,o),
(160,379,cs),
(207,379,o),
(232,400,o),
(232,436,cs),
(232,441,ls),
(232,476,o),
(206,491,o),
(158,491,cs),
(115,491,l)
);
}
);
width = 346;
},
{
layerId = "43C84C2D-48F1-4CCB-8D92-E3AB8A629B7A";
shapes = (
{
closed = 1;
nodes = (
(112,529,l),
(158,529,ls),
(233,529,o),
(259,559,o),
(259,608,cs),
(259,614,ls),
(259,658,o),
(227,687,o),
(167,687,cs),
(115,687,o),
(89,670,o),
(66,641,c),
(52,651,l),
(73,682,o),
(110,704,o),
(167,704,cs),
(238,704,o),
(279,668,o),
(279,609,cs),
(279,561,o),
(252,534,o),
(209,523,c),
(209,520,l),
(260,512,o),
(286,482,o),
(286,431,cs),
(286,366,o),
(241,323,o),
(161,323,cs),
(101,323,o),
(64,348,o),
(41,379,c),
(55,390,l),
(79,361,o),
(106,340,o),
(161,340,cs),
(230,340,o),
(266,372,o),
(266,427,cs),
(266,433,ls),
(266,484,o),
(240,512,o),
(165,512,cs),
(112,512,l)
);
}
);
width = 346;
}
);
unicode = 179;
}
{
glyphname = acute;
layers = (
{
anchors = (
{
name = _t.ring;
position = "{300, 540}";
}
);
layerId = "9A8FE613-2BB2-428D-A7DB-46DFB705B86D";
shapes = (
{
closed = 1;
nodes = (
(450,755,l),
(316,579,l),
(228,622,l),
(327,816,l)
);
}
);
width = 600;
},
{
anchors = (
{
name = _t.ring;
position = "{300, 540}";
}
);
layerId = "1513CFE8-5A13-42D2-8271-7D7365DF70DB";
shapes = (
{
closed = 1;
nodes = (
(420,746,l),
(309,584,l),
(250,611,l),
(338,786,l)
);
}
);
width = 600;
},
{
anchors = (
{
name = _t.ring;
position = "{300, 540}";
}
);
layerId = "1F8C5CD1-3431-41E3-A60F-01FCBC1C5BC1";
shapes = (
{
closed = 1;
nodes = (
(397,739,l),
(282,587,l),
(267,597,l),
(378,751,l)
);
}
);
width = 600;
}
);
unicode = 180;
}
{
glyphname = paragraph;
layers = (
{
layerId = "9A8FE613-2BB2-428D-A7DB-46DFB705B86D";
shapes = (
{
closed = 1;
nodes = (
(232,-149,l),
(232,260,l),
(193,260,o),
(157,270,o),
(125,290,cs),
(61,329,o),
(21,399,o),
(21,479,cs),
(21,519,o),
(30,556,o),
(49,589,cs),
(86,656,o),
(153,698,o),
(232,698,cs),
(614,698,l),
(614,592,l),
(548,592,l),
(548,-149,l),
(439,-149,l),
(439,592,l),
(341,592,l),
(341,-149,l)
);
}
);
width = 657;
},
{
layerId = "1513CFE8-5A13-42D2-8271-7D7365DF70DB";
shapes = (
{
closed = 1;
nodes = (
(245,-149,l),
(245,292,l),
(208,292,o),
(175,301,o),
(146,320,c),
(86,357,o),
(48,422,o),
(48,495,cs),
(48,532,o),
(57,566,o),
(75,597,cs),
(110,659,o),
(172,698,o),
(245,698,cs),
(580,698,l),
(580,623,l),
(513,623,l),
(513,-149,l),
(434,-149,l),
(434,623,l),
(325,623,l),
(325,-149,l)
);
}
);
width = 657;
},
{
layerId = "1F8C5CD1-3431-41E3-A60F-01FCBC1C5BC1";
shapes = (
{
closed = 1;
nodes = (
(283,-149,l),
(283,330,l),
(247,330,o),
(214,337,o),
(184,352,c),
(123,380,o),
(84,437,o),
(84,514,cs),
(84,553,o),
(93,587,o),
(111,614,cs),
(147,669,o),
(211,698,o),
(283,698,cs),
(526,698,l),
(526,680,l),
(457,680,l),
(457,-149,l),
(436,-149,l),
(436,680,l),
(304,680,l),
(304,-149,l)
);
}
);
width = 657;
}
);
unicode = 182;
}
{
glyphname = periodcentered;
layers = (
{
layerId = "7AA3F0E6-41A7-43FF-9A92-631D90721C2F";
shapes = (
{
closed = 1;
nodes = (
(106,213,o),
(78,248,o),
(78,293,cs),
(78,313,ls),
(78,360,o),
(106,393,o),
(166,393,cs),
(226,393,o),
(254,360,o),
(254,313,cs),
(254,293,ls),
(254,248,o),
(226,213,o),
(166,213,cs)
);
}
);
width = 332;
},
{
layerId = "8E9CA4E0-9900-4C00-AB62-7898C7C10EDA";
shapes = (
{
closed = 1;
nodes = (
(121,235,o),
(100,261,o),
(100,297,cs),
(100,311,ls),
(100,348,o),
(121,374,o),
(166,374,cs),
(213,374,o),
(232,348,o),
(232,311,cs),
(232,297,ls),
(232,261,o),
(213,235,o),
(166,235,cs)
);
}
);
width = 332;
},
{
layerId = "43C84C2D-48F1-4CCB-8D92-E3AB8A629B7A";
shapes = (
{
closed = 1;
nodes = (
(149,277,o),
(139,286,o),
(139,302,cs),
(139,310,ls),
(139,326,o),
(149,335,o),
(166,335,cs),
(185,335,o),
(193,326,o),
(193,310,cs),
(193,302,ls),
(193,286,o),
(183,277,o),
(166,277,cs)
);
}
);
width = 332;
}
);
unicode = 183;
}
{
glyphname = cedilla;
layers = (
{
anchors = (
{
name = _b.cedilla_2;
position = "{300, 0}";
}
);
layerId = "9A8FE613-2BB2-428D-A7DB-46DFB705B86D";
shapes = (
{
closed = 1;
nodes = (
(245,-212,o),
(207,-188,o),
(190,-168,c),
(236,-112,l),
(249,-128,o),
(271,-141,o),
(302,-141,cs),
(327,-141,o),
(346,-133,o),
(346,-116,cs),
(346,-101,o),
(334,-81,o),
(271,-76,cs),
(250,-74,l),
(272,30,l),
(339,30,l),
(321,-55,l),
(325,-59,l),
(341,-55,o),
(357,-52,o),
(373,-52,cs),
(413,-52,o),
(446,-72,o),
(446,-121,cs),
(446,-144,o),
(440,-162,o),
(427,-175,cs),
(402,-202,o),
(359,-212,o),
(314,-212,cs)
);
}
);
width = 600;
},
{
anchors = (
{
name = _b.cedilla_2;
position = "{300, 0}";
}
);
layerId = "1513CFE8-5A13-42D2-8271-7D7365DF70DB";
shapes = (
{
closed = 1;
nodes = (
(256,-208,o),
(224,-186,o),
(209,-166,c),
(248,-123,l),
(260,-138,o),
(281,-151,o),
(310,-151,cs),
(335,-151,o),
(354,-141,o),
(354,-121,cs),
(354,-102,o),
(342,-88,o),
(285,-80,cs),
(258,-76,l),
(278,22,l),
(331,22,l),
(315,-60,l),
(318,-63,l),
(331,-59,o),
(346,-57,o),
(358,-57,cs),
(398,-57,o),
(427,-79,o),
(427,-123,cs),
(427,-143,o),
(422,-159,o),
(411,-172,cs),
(390,-196,o),
(353,-208,o),
(312,-208,cs)
);
}
);
width = 600;
},
{
anchors = (
{
name = _b.cedilla_2;
position = "{300, 0}";
}
);
layerId = "1F8C5CD1-3431-41E3-A60F-01FCBC1C5BC1";
shapes = (
{
closed = 1;
nodes = (
(272,-202,o),
(240,-187,o),
(228,-170,c),
(241,-157,l),
(256,-174,o),
(280,-184,o),
(309,-184,cs),
(345,-184,o),
(370,-165,o),
(370,-132,cs),
(370,-107,o),
(354,-87,o),
(309,-86,c),
(272,-84,l),
(293,3,l),
(311,3,l),
(292,-73,l),
(294,-75,l),
(303,-72,o),
(315,-72,o),
(324,-72,cs),
(363,-72,o),
(391,-95,o),
(391,-131,cs),
(391,-144,o),
(388,-155,o),
(381,-166,cs),
(368,-187,o),
(344,-202,o),
(309,-202,cs)
);
}
);
width = 600;
}
);
unicode = 184;
}
{
glyphname = onesuperior;
layers = (
{
layerId = "7AA3F0E6-41A7-43FF-9A92-631D90721C2F";
shapes = (
{
closed = 1;
nodes = (
(243,329,l),
(142,329,l),
(142,606,l),
(62,570,l),
(62,661,l),
(137,698,l),
(243,698,l)
);
}
);
width = 314;
},
{
layerId = "8E9CA4E0-9900-4C00-AB62-7898C7C10EDA";
shapes = (
{
closed = 1;
nodes = (
(231,329,l),
(159,329,l),
(159,634,l),
(79,594,l),
(79,660,l),
(154,698,l),
(231,698,l)
);
}
);
width = 325;
},
{
layerId = "43C84C2D-48F1-4CCB-8D92-E3AB8A629B7A";
shapes = (
{
closed = 1;
nodes = (
(208,329,l),
(189,329,l),
(189,681,l),
(109,640,l),
(109,659,l),
(185,698,l),
(208,698,l)
);
}
);
width = 343;
}
);
unicode = 185;
}
